<svg xmlns="http://www.w3.org/2000/svg" xmlns:xlink="http://www.w3.org/1999/xlink" viewBox="0 0 216 32.04"><defs><style>.a{fill:none;}.b{clip-path:url(#a);}.c{fill:#d13239;}.d{fill:#fff;}</style><clipPath id="a" transform="translate(0 0)"><rect class="a" width="216" height="32.04"/></clipPath></defs><g class="b"><path class="c" d="M0,16A16,16,0,1,0,16,0,16,16,0,0,0,0,16" transform="translate(0 0)"/><polygon class="d" points="9.61 19.23 16.02 10.94 16.02 6.41 9.61 6.41 9.61 12.81 3.21 12.81 3.21 19.23 9.61 19.23 9.61 19.23"/><polygon class="d" points="21.27 16.02 28.84 6.41 21.52 6.41 9.61 21.81 9.61 25.63 16.02 25.63 16.02 18.51 21.52 25.63 28.84 25.63 21.27 16.02"/><path class="d" d="M41.06,23.31a.34.34,0,0,1,0-.48l2.15-2.46a.28.28,0,0,1,.42,0,8.13,8.13,0,0,0,5,2c2,0,3.13-.93,3.13-2.29,0-1.13-.67-1.83-3-2.15l-1-.14c-3.9-.53-6.07-2.37-6.07-5.76S44.36,6.1,48.52,6.1a10.88,10.88,0,0,1,6.52,2c.17.11.2.23.06.42L53.37,11.1a.27.27,0,0,1-.39.09,7.94,7.94,0,0,0-4.46-1.47c-1.7,0-2.58.87-2.58,2.09s.79,1.81,3,2.12l1,.14c3.95.54,6,2.34,6,5.82s-2.57,6.05-7.54,6.05a11.3,11.3,0,0,1-7.4-2.63" transform="translate(0 0)"/><path class="d" d="M72.36,25.62a.36.36,0,0,1-.36-.28L68.66,13.39h0l-3.37,12a.36.36,0,0,1-.36.28H62.05a.36.36,0,0,1-.34-.28l-5-18.64c0-.17,0-.29.23-.29h3.64A.32.32,0,0,1,61,6.7l2.77,12.06h.05L67.05,6.7a.38.38,0,0,1,.37-.29h2.46a.37.37,0,0,1,.34.29l3.39,12.06h0L76.32,6.7a.3.3,0,0,1,.34-.29h3.61c.2,0,.26.12.23.29L75.56,25.34a.35.35,0,0,1-.37.28Z" transform="translate(0 0)"/><rect class="d" x="82.26" y="6.41" width="4.15" height="19.21" rx="0.28"/><path class="d" d="M89,23.31a.35.35,0,0,1,0-.48l2.15-2.46a.29.29,0,0,1,.43,0,8.12,8.12,0,0,0,5,2c2,0,3.14-.93,3.14-2.29,0-1.13-.68-1.83-3-2.15l-1-.14c-3.9-.53-6.08-2.37-6.08-5.76S92.31,6.1,96.46,6.1a10.91,10.91,0,0,1,6.53,2c.17.11.19.23.05.42l-1.72,2.57a.29.29,0,0,1-.4.09,7.94,7.94,0,0,0-4.46-1.47c-1.69,0-2.57.87-2.57,2.09s.79,1.81,3,2.12l1,.14c4,.54,6,2.34,6,5.82s-2.57,6.05-7.55,6.05A11.35,11.35,0,0,1,89,23.31" transform="translate(0 0)"/><path class="d" d="M105.87,23.31a.35.35,0,0,1,0-.48L108,20.37a.28.28,0,0,1,.42,0,8.15,8.15,0,0,0,5,2c2,0,3.14-.93,3.14-2.29,0-1.13-.68-1.83-3-2.15l-1-.14c-3.9-.53-6.07-2.37-6.07-5.76s2.66-5.88,6.81-5.88a10.88,10.88,0,0,1,6.52,2c.17.11.2.23.06.42l-1.72,2.57a.29.29,0,0,1-.4.09,7.94,7.94,0,0,0-4.46-1.47c-1.7,0-2.57.87-2.57,2.09s.79,1.81,3,2.12l1,.14c4,.54,6,2.34,6,5.82s-2.57,6.05-7.54,6.05a11.35,11.35,0,0,1-7.4-2.63" transform="translate(0 0)"/><path class="d" d="M130.28,6.7a.28.28,0,0,1,.29-.29h3.58a.28.28,0,0,1,.29.29V15l6.38-8.33a.5.5,0,0,1,.48-.26h4.1c.17,0,.25.2.11.37l-5.82,7.29,6.36,11.22c.11.19,0,.33-.17.33h-4.15a.4.4,0,0,1-.43-.25L137,17.29l-2.51,3.17v4.88a.27.27,0,0,1-.29.28h-3.58a.27.27,0,0,1-.29-.28Z" transform="translate(0 0)"/><path class="d" d="M158.57,25.63a.39.39,0,0,1-.43-.29l-3.3-7h-2.57c-.12,0-.17.05-.17.17v6.86a.27.27,0,0,1-.28.29h-3.59a.27.27,0,0,1-.28-.29V6.7a.27.27,0,0,1,.28-.29h7.66c3.92,0,6.52,2.46,6.52,6A5.62,5.62,0,0,1,159,17.71l3.79,7.58a.22.22,0,0,1-.2.34Zm-.31-13.25a2.34,2.34,0,0,0-2.6-2.38h-3.39a.15.15,0,0,0-.17.17v4.44a.15.15,0,0,0,.17.17h3.39a2.35,2.35,0,0,0,2.6-2.4" transform="translate(0 0)"/><path class="d" d="M165.44,21.27a15.64,15.64,0,0,1-.53-5.25,15.74,15.74,0,0,1,.53-5.26c1-3.1,3.65-4.66,7-4.66s6,1.56,7,4.66A15.74,15.74,0,0,1,180,16a15.64,15.64,0,0,1-.53,5.25c-1,3.11-3.65,4.67-7,4.67s-6-1.56-7-4.67m10-1.13a13.89,13.89,0,0,0,.31-4.12,14,14,0,0,0-.31-4.13,3.22,3.22,0,0,0-6,0,14,14,0,0,0-.31,4.13,13.89,13.89,0,0,0,.31,4.12,3.21,3.21,0,0,0,6,0" transform="translate(0 0)"/><path class="d" d="M183,6.7a.27.27,0,0,1,.28-.29h3.39a.52.52,0,0,1,.48.29L194,18.79h.14V6.7a.28.28,0,0,1,.28-.29h3.2a.27.27,0,0,1,.28.29V25.34a.26.26,0,0,1-.28.28h-3.36a.49.49,0,0,1-.48-.28l-6.81-12.06h-.15V25.34a.26.26,0,0,1-.28.28H183.3a.26.26,0,0,1-.28-.28Z" transform="translate(0 0)"/><path class="d" d="M201.45,21.27a15.57,15.57,0,0,1-.54-5.25,15.67,15.67,0,0,1,.54-5.26c1-3.1,3.65-4.66,7-4.66s6,1.56,7,4.66A15.41,15.41,0,0,1,216,16a15.31,15.31,0,0,1-.54,5.25c-1,3.11-3.64,4.67-7,4.67s-6-1.56-7-4.67m10-1.13a13.89,13.89,0,0,0,.31-4.12,14,14,0,0,0-.31-4.13,3.22,3.22,0,0,0-6,0,14.36,14.36,0,0,0-.31,4.13,14.27,14.27,0,0,0,.31,4.12,3.22,3.22,0,0,0,6,0" transform="translate(0 0)"/></g></svg>