<?xml version="1.0" standalone="no"?>
<!DOCTYPE svg PUBLIC "-//W3C//DTD SVG 1.1//EN" "http://www.w3.org/Graphics/SVG/1.1/DTD/svg11.dtd" >
<svg xmlns="http://www.w3.org/2000/svg">
<metadata>Generated by IcoMoon</metadata>
<defs>
<font id="icomoon" horiz-adv-x="1024">
<font-face units-per-em="1024" ascent="960" descent="-64" />
<missing-glyph horiz-adv-x="1024" />
<glyph unicode="&#x20;" horiz-adv-x="512" d="" />
<glyph unicode="&#xe900;" glyph-name="3d" d="M18 940l402-194-392-792zM406 722l-8 28 600 180 10-30zM1022-64h-1022v1022h1026v-1022h-4zM36-28h950v950h-950zM642 438c-4-36-22-50-50-58 32-10 46-32 40-64-4-54-54-82-98-82-56 0-78 28-86 74l22 8c4 0 8 0 8 0 6 0 14-4 14-8 6-18 14-38 46-38s50 24 50 42c4 26-6 40-54 40l4 32c44 0 58 18 62 40 6 28-8 42-30 42-24 0-36-14-46-32-4-10-8-14-18-14h-4l-24 4c14 50 56 78 100 78 42 4 72-28 64-64zM768 234h-104l32 268h104c82 0 126-54 118-136-10-72-74-132-150-132zM796 466h-50l-24-190h50c54 0 92 36 96 94 4 60-24 96-72 96zM294 112c-4 0-10 6-22 6-10 0-18-6-18-14 0-18 40-10 40-36 0-14-10-28-28-28-8 0-22 6-26 10l4 4c0 0 0 0 4 0 6 0 10-8 24-8 8 0 18 4 18 18 0 22-42 8-42 40 0 14 10 22 28 22 8 0 18-4 22-8zM370 126v-8h-26v-78h-10v78h-32v8zM398 76v-36h-14v86h22c24 0 32-8 32-22s-8-22-22-22c0 0 4 0 4-6l28-36h-10c0 0-4 0-4 6l-22 30-6 6h-8zM398 86h14c12 0 22 8 22 18 0 8-4 14-18 14h-14v-32zM516 76v54h12v-54c0-18-12-36-36-36-22 0-36 14-36 36v54h14v-54c0-12 8-22 22-22 14-4 24 10 24 22zM610 58l4-4c-8-8-18-14-32-14-22 0-40 18-40 46 0 26 18 44 46 44 12 0 22-4 26-8l-4-4c0 0 0 0-4 0-6 0-10 8-24 8-18 0-30-14-30-32 0-22 12-36 30-36 10-8 18-4 28 0-4 0-4 0 0 0zM686 126v-8h-26v-78h-10v78h-30v8zM754 76v54h14v-54c0-18-14-36-36-36s-36 14-36 36v54h14v-54c0-12 8-22 22-22 18-4 22 10 22 22zM800 76v-36h-14v86h22c24 0 32-8 32-22s-8-22-22-22c0 0 4 0 4-6l28-36h-10c0 0-4 0-4 6l-22 30-6 6h-8zM800 86h14c12 0 22 8 22 18 0 8-4 14-18 14h-14v-32zM918 126v-8h-42v-28h36v-8h-36v-32h42v-10h-50v86z" />
<glyph unicode="&#xe901;" glyph-name="5w" d="M948 244h78v-14h-78l-112-70v12c0 2 0 2 0 4l2 2 88 54c2 0 4 2 6 2s4 2 6 2c-2 0-4 2-6 2s-4 2-6 4l-88 54c0 0-2 0-2 2s0 2 0 4v12zM836 458h10v-100h78v84h12v-84h78v102l10-2v-114h-188zM956 518v84l-96-38c-2-2-6-2-12-4 2 0 4-2 6-2s4-2 6-2zM1024 642v-10c0-2 0-2 0-2l-2-2-54-22v-92l54-22c2 0 2-2 2-2s0-2 0-4v-10l-190 76v14zM930 688v32c0 8-2 16-4 22s-4 12-8 16c-4 4-8 8-16 10-6 2-12 4-18 4-14 0-24-4-30-14-6-8-10-22-10-38v-34h86zM940 688h84v-14h-190v48c0 22 4 38 12 48 8 12 20 18 36 18 8 0 14-2 22-4 6-2 12-8 16-12s8-10 12-16c2-6 4-14 6-22 2 2 4 4 6 6l80 66v-12c0-2 0-2 0-4s-2-2-2-4l-76-62-4-4c0 0 0-2-2-4 0-2 0-2 0-4v-24zM858 928c2 0 2-2 2-4 0 0 0-2-2-4s-4-4-6-8c-2-4-4-6-6-12-2-4-2-10-2-18 0-6 0-12 2-18 2-4 4-10 8-12 4-4 8-6 12-8s8-2 14-2c6 0 12 2 16 4s10 6 12 10c4 4 6 10 8 16s4 12 6 18c2 6 4 12 6 18s6 10 8 16c4 4 8 8 14 10 4 2 12 4 20 4s16-2 22-4c6-2 12-6 18-12 6-4 10-12 12-18 2-8 4-16 4-26 0-12-2-24-6-32s-10-16-18-24l-6 2c-2 2-2 2-2 4 0 0 0 2 2 4s2 2 4 4 4 4 4 6c2 2 4 6 6 8 2 4 2 8 4 12s2 10 2 14c0 8-2 14-4 20s-6 10-10 14c-4 4-8 8-14 10s-12 4-18 4c-6 0-12-2-16-4s-8-6-10-10c-2-4-6-10-8-16s-4-12-6-18c-2-6-4-12-6-18s-6-10-8-16c-4-4-8-8-16-10-6-2-12-4-20-4-6 0-12 2-18 4s-10 6-16 10c-4 4-8 10-10 16-2 8-2 16-2 26s2 18 4 26c4 8 8 14 14 22zM0 90h14c2 0 2 0 4-2 2 0 2-2 2-2l28-94c0-2 0-4 2-6 0-2 0-4 2-6 0 2 0 4 2 6 0 2 0 4 2 6l30 94c0 0 0 2 2 2 0 0 2 2 4 2h6c2 0 2 0 4-2 2 0 2-2 2-2l30-94c0-2 2-4 2-6s0-4 2-6c0 2 0 4 0 6s0 4 2 6l28 94c0 0 0 2 2 2 0 0 2 2 4 2h16l-44-134h-16l-34 100c0 4-2 6-2 8 0-2 0-2 0-4 0-4 0-4 0-4l-34-100h-16zM220 6h48l-20 56c0 2-2 4-2 6s-2 4-2 6c0-2-2-4-2-6s-2-4-2-6zM306-44h-14c-2 0-2 0-4 2l-2 2-12 32h-60l-12-32-2-2c-2 0-2-2-4-2h-14l52 134h18zM340 24h18c6 0 10 0 14 2s8 2 10 6c2 2 4 6 6 8 2 4 2 6 2 10 0 10-2 16-8 20s-12 6-24 6h-20v-52zM340 12v-54h-18v134h38c8 0 16-2 22-2 6-2 12-4 16-8s6-6 8-12c2-4 2-10 2-18 0-4 0-10-2-14s-4-8-6-10c-2-4-6-6-10-8s-8-4-14-6c2-2 4-4 6-6l38-52h-16c-4 0-6 2-8 4l-34 48c-2 2-2 2-4 4-2 0-2 0-6 0zM456 24h18c6 0 10 0 14 2s8 2 10 6c2 2 4 6 6 8 2 4 2 6 2 10 0 10-2 16-8 20s-12 6-24 6h-20v-52zM456 12v-54h-18v134h38c8 0 16-2 22-2 6-2 12-4 14-8 4-4 6-6 8-12 2-4 2-10 2-18 0-4 0-10-2-14s-4-8-6-10c-2-4-6-6-10-8s-8-4-14-6c2-2 4-4 6-6l38-52h-16c-4 0-6 2-8 4l-34 48c-2 2-2 2-4 4-2 0-4 0-6 0zM576 6h50l-20 56c0 2-2 4-2 6s-2 4-2 6c0-2-2-4-2-6s-2-4-2-6zM662-44h-14c-2 0-4 0-4 2l-2 2-12 32h-58l-12-32-2-2c-2 0-2-2-4-2h-16l54 134h18zM690 90c2 0 2-2 2-2s0 0 2-2l76-100c0 2 0 4 0 4 0 2 0 2 0 4v96h16v-134h-8c-2 0-2 0-4 0l-2 2-76 102c0-4 0-6 0-6v-98h-16v134h10c-2 0 0 0 0 0zM910 90v-14h-44v-120h-18v120h-44v14zM978 10v-52h-18v52l-48 82h16c2 0 2 0 4-2l2-2 30-54c2-2 2-4 2-6s2-4 2-6c0 2 2 4 2 6s2 4 4 6l30 54 2 2c2 0 2 2 4 2h16zM720 822c-4-8-10-16-16-22s-14-12-24-14c-10-4-20-8-30-8-12 0-22 4-30 8-10 4-18 8-24 16-6 6-12 14-16 24s-6 20-6 30c0 10 2 20 6 28s8 16 14 22l12-10 2-2c0 0 0-2 0-4s0-2 0-4-2-2-2-4c0-2-2-2-2-4-2-2-2-4-2-6s-2-4-2-8c0-4 0-6 0-10 0-6 2-12 4-18s6-10 10-14c4-4 10-8 16-10s14-4 22-4c8 0 16 2 22 4s12 6 16 10c4 4 8 8 10 14s4 12 4 18c0 4 0 8 0 10 0 4-2 6-2 8s-2 6-4 8c-2 2-4 4-6 6l-2 2v2c0 2 0 2 2 4l12 10c8-6 14-14 18-22s6-20 6-32c-4-10-6-20-8-28zM576 556c2 6 4 12 8 18 4 4 8 8 12 10s10 4 16 4c4 0 6 0 10-2s6-2 10-4c2-2 6-4 8-8s4-8 6-12c4 20 16 30 34 30 6 0 12-2 18-4s10-6 14-10c4-4 6-10 10-18 2-6 4-14 4-24v-56h-152v52c0 10 0 18 2 24zM574 752h150v-28h-150zM700 644v60h22v-88h-148v28zM720 358c-4-8-8-14-12-20-6-6-12-10-20-12s-16-4-24-4h-90v28h90c6 0 10 0 16 2 4 2 8 4 12 6s6 6 8 10c2 4 2 10 2 14 0 6 0 10-2 14s-4 8-8 10c-4 2-8 6-12 6-4 2-10 2-16 2h-90v30h90c8 0 18-2 24-4 8-2 14-6 20-12s10-14 12-22c4-8 4-16 4-26 0-6 0-14-4-22zM724 196h-150v48c0 10 2 18 4 26s6 14 10 18c4 4 10 8 16 10s12 4 20 4c8 0 14-2 20-4s12-6 16-10c4-4 8-10 10-18s4-16 4-26v-20h52v-28zM502 938v-60c0-20-6-38-20-50-12-12-34-20-66-20h-230l-32-178c40 8 74 12 106 12 44 0 84-6 118-20s62-32 86-54c24-24 40-50 52-82s18-68 18-104c0-44-8-86-24-122s-38-68-66-94h320v772zM702 536c0 6 0 10-2 14s-2 6-4 8c-2 2-4 4-8 4-2 0-6 2-8 2-4 0-6 0-8-2s-4-2-6-4c-2-2-4-6-4-8 0-4-2-8-2-12v-28h44v26zM638 530c0 10-2 16-6 22-4 4-8 8-16 8s-14-2-16-6c-4-4-4-12-4-20v-24h44v20zM228 522c-40 0-84-8-126-22l-90 26 70 412h-80v-708l8 10c10 14 22 20 36 20 10 0 20-4 30-10s22-14 34-20c14-8 28-14 46-20s42-10 66-10c26 0 50 4 70 12s38 20 50 36c14 16 24 34 30 56s10 44 10 70c0 48-14 84-40 110-22 26-62 38-114 38zM642 268c-2 2-6 4-8 6-4 2-8 2-12 2s-8 0-10-2c-4-2-6-4-8-6s-4-6-6-10c-2-4-2-8-2-14v-20h54v20c0 6 0 10-2 14s-4 8-6 10z" />
<glyph unicode="&#xe902;" glyph-name="7" d="M674 186v90c0 6 0 12 0 20 0 6-6 14-6 14-8 6-8 6-14 6s-14 0-20 0c-8 0-8 0-14 0-8 0-8 0-14-6-8 0-8-8-14-8 0-6-6-6-6-14 0 8-8 14-14 22-8 6-14 6-22 6-6 0-6 0-14 0-6 0-6 0-12-6l-14-14v14c0 6-8 6-8 6h-20v-144h34v110c8 6 8 6 14 14 6 0 6 6 14 6 6 0 14 0 20-6 8-8 8-14 8-20v-90h34v90c0 6 0 6 0 12 0 8 0 8 6 8l8 6h6c8 0 14 0 22-6 6-8 6-14 6-20v-90h20zM916 192v90c0 6 0 14 0 20 0 8-8 14-8 14-6 8-6 8-14 8-6 0-12 0-20 0-6 0-6 0-14 0-6 0-6 0-14-8-6 0-6-6-14-6-6 0-6-8-6-14 0 6-6 14-14 20-6 8-14 8-20 8-8 0-8 0-14 0-8 0-8 0-14-8l-14-14v14c0 8-6 8-6 8h-22v-146h36v110c6 8 6 8 12 8 8 0 8 6 14 6 8 0 14 0 22-6 6-8 6-14 6-20v-90h34v90c0 6 0 6 0 12 0 0 0 8 8 8l6 6h8c6 0 14 0 20-6 6-8 6-14 6-20v-90zM770 626c0 0 0 8 8 14 0 6 0 6 0 14v28l-186 6v-42c0 0 0 0 0-6 0 0 0 0 0-6 0 0 0 0 6 0 0 0 0 0 8 0h110c-6-8-6-8-6-14 0-8-8-8-8-14l-96-194h42c6 0 12 0 20 8 6 6 6 6 14 14zM1018 894l-778 62-240-62v-40l220 54v-922l-220 56v-42l248-62 778 62v48l-758-62v922l758-54v40z" />
<glyph unicode="&#xe903;" glyph-name="8mm" d="M224 934h44v-972h-44zM242 910l-242-58v46l242 62 784-62v-46zM0-2v44l246-58 780 58v-44l-780-64zM470 176v148h22c6 0 10 0 10-4l4-10c4 6 4 6 10 10 4 4 4 4 8 4s8 4 8 4c6 0 10 0 14 0 10 0 18 0 22-8 6-4 10-14 14-18 4 4 4 8 10 14 4 4 8 4 12 8 6 0 10 4 14 4s10 0 14 0c8 0 12 0 22-4 4-4 14-4 18-8 4-6 8-10 8-18 0-6 6-14 6-24v-88h-36v88c0 10 0 18-6 24-4 4-8 4-16 4-6 0-10 0-10 0-4 0-4-4-8-4-6-6-6-6-6-10s0-8 0-14v-88h-36v94c0 8 0 18-4 22s-8 4-18 4c-4 0-8 0-14-4-4-4-8-4-12-10v-112zM712 190v138h22c6 0 10 0 10-4l4-8c4 4 4 4 8 8 6 4 6 4 10 4s8 4 8 4c6 0 10 0 14 0 10 0 18 0 22-8 6-4 10-8 14-18 4 4 4 10 10 14 4 4 8 4 12 8 6 0 10 4 14 4s8 0 14 0c8 0 12 0 22-4 4 0 14-4 18-8s8-10 8-18c6-4 6-14 6-22v-86h-36v86c0 8 0 12-6 18-4 4-8 4-18 4-4 0-8 0-8 0-4 0-4-4-8-4-6-6-6-6-6-10s0-8 0-14v-88h-36v88c0 10 0 18-4 18-4 6-8 6-18 6-4 0-8 0-14-6-4-4-8-4-12-8v-104zM694 574c10 0 18 0 22 6 6 4 10 4 14 8s4 10 10 14c0 4 4 14 4 18s0 8-4 18c0 4-6 8-10 12-4 6-8 10-14 10-4 4-12 4-22 4-8 0-14 0-22-4-4 0-10-4-14-10-4-4-8-8-8-12s-6-10-6-18c0-4 0-14 6-18 0-4 4-10 8-14s10-8 14-8c8-6 14-6 22-6zM694 436c10 0 18 0 22 4 10 4 14 4 18 10 6 4 10 8 10 12 4 6 4 14 4 18 0 18-4 32-14 36-8 10-22 14-40 14s-32-4-40-14c-10-8-14-22-14-36 0-8 0-12 4-18 6-4 6-12 10-18 4-4 8-8 18-8 4 0 14 0 22 0zM694 396c-18 0-32 0-44 4-14 4-28 10-36 18-10 10-18 18-22 26-6 14-10 24-10 36 0 18 4 36 14 46 8 12 22 22 44 26-12 4-26 18-36 28-8 12-12 26-12 40s4 22 8 30c4 10 14 18 22 28 10 8 18 14 32 18s26 4 40 4c14 0 28-4 40-8 14-6 22-10 32-18 8-10 14-18 22-28 4-8 10-22 10-30 0-14-6-28-14-42-10-8-18-18-36-26 18-4 36-18 44-26 10-14 14-28 14-46 0-14-4-26-8-36-6-8-14-18-24-26-8-10-22-14-34-18-14 0-28 0-46 0z" />
<glyph unicode="&#xe904;" glyph-name="8w" d="M744 818c-4-8-10-16-16-22s-14-12-24-14c-10-4-20-6-30-6-12 0-22 2-30 6-10 4-18 8-24 16-6 6-12 14-16 24s-6 20-6 30c0 10 2 20 6 28s8 16 14 22l12-10 2-2c0 0 0-2 0-4s0-2 0-4-2-2-2-4c0-2-2-2-2-4-2-2-2-4-2-6s-2-4-2-8c0-4 0-6 0-10 0-6 2-12 4-18s6-10 10-14c4-4 10-8 16-10s14-4 22-4c8 0 16 2 22 4s12 6 16 10c4 4 8 8 10 14s4 12 4 18c0 4 0 8 0 10 0 4-2 6-2 8s-2 6-4 8c-2 2-4 4-6 6l-2 2v2c0 2 0 2 2 4l12 10c8-6 14-14 18-22s6-20 6-32c-2-8-4-18-8-28zM602 554c2 6 4 12 8 18 4 4 8 8 12 10s10 4 16 4c4 0 6 0 10-2s6-2 10-4c2-2 6-4 8-8s4-8 6-12c4 20 16 30 34 30 6 0 12-2 18-4s10-6 14-10c4-4 6-10 10-18 2-6 4-14 4-24v-56h-150v52c-2 10-2 18 0 24zM600 752h150v-28h-150zM726 644v60h24v-88h-150v28h126zM746 358c-4-8-8-14-12-20-6-6-12-10-20-12s-16-4-24-4h-90v28h90c6 0 10 0 16 2 4 2 8 4 12 6s6 6 8 10c2 4 2 10 2 14 0 6 0 10-2 14s-4 8-8 10c-4 2-8 6-12 6-4 2-10 2-16 2h-90v28h90c8 0 18-2 24-4 8-2 14-8 20-12 6-6 10-12 12-20 4-8 4-16 4-26 0-6 0-14-4-22zM748 194h-150v50c0 10 2 18 4 26s6 14 10 18c4 4 10 8 16 10s12 4 20 4c8 0 14-2 20-4s12-6 16-10c4-4 8-10 10-18s4-16 4-26v-22h52v-28zM796 936h-462c10-2 18-4 28-8 32-12 60-28 84-48s42-44 54-72c12-28 20-56 20-88 0-44-10-82-30-112-20-34-50-58-92-74 52-16 90-42 114-76s38-76 38-126c0-38-8-70-24-102-12-26-30-50-52-70h324v776zM668 268c-2 2-6 4-8 6-4 2-8 2-12 2s-8 0-10-2c-4-2-6-4-8-6s-4-6-6-10c-2-4-2-8-2-14v-22h54v22c0 6 0 10-2 14s-4 6-6 10zM664 528c0 10-2 16-6 22-4 4-8 8-16 8s-14-2-16-6c-4-4-4-12-4-20v-24h44v20zM728 534c0 6 0 10-2 14s-2 6-4 8c-2 2-4 4-8 4-2 0-6 2-8 2-4 0-6 0-8-2s-4-2-6-4c-2-2-4-6-4-8 0-4-2-8-2-12v-28h44v26zM20 608c-8 12-12 24-18 36v-182c24 32 60 56 108 70-40 20-70 44-90 76zM62 882c24 20 50 36 84 48 8 4 18 4 28 8h-172v-142c2 6 4 10 6 16 14 26 32 50 54 70zM254 474c-44 0-82-12-108-36s-38-58-38-104c0-20 4-38 10-54s16-30 28-44c12-12 28-22 46-28s38-10 62-10c24 0 44 4 62 10s32 16 44 28c12 14 22 28 28 44s10 34 10 54c0 46-12 80-38 104s-62 36-106 36zM136 764c-4-14-8-30-8-46s2-32 6-48c4-16 10-30 20-42s22-22 40-32c16-8 36-12 58-12 24 0 42 4 58 12 16 10 28 20 38 32s16 26 20 42c4 16 6 32 6 48s-2 30-8 46c-6 14-12 26-22 38s-22 20-38 26c-16 6-34 10-54 10-22 0-40-4-54-10s-30-14-40-26c-10-10-18-24-22-38zM946 244h78v-16h-78l-112-70v12c0 2 0 2 0 4l2 2 88 54c2 0 4 2 6 2s4 2 6 2c-2 0-4 2-6 2-2 4-4 4-6 6l-88 54c0 0-2 0-2 2s0 2 0 4v12zM834 456h12v-98h78v82h10v-82h78v98h12v-112h-190zM956 514v84l-96-38c-2-2-6-2-12-4 2 0 4-2 6-2s4-2 6-2zM1024 642v-10c0-2 0-2 0-2l-2-2-54-22v-94l54-22c2 0 2-2 2-2s0-2 0-4v-10l-190 76v14zM930 686v32c0 8-2 16-4 22s-4 12-8 16c-4 4-8 8-14 10-8 2-14 4-20 4-14 0-24-4-30-14-6-8-10-22-10-38v-34h86zM940 686h84v-14h-190v50c0 22 4 38 12 48s20 16 36 16c8 0 14-2 22-4 6-2 12-6 16-10s8-10 12-16c2-6 4-14 6-22 2 2 4 4 6 6l80 64v-12c0-2 0-2 0-4s-2-2-2-4l-76-60-4-4c0 0 0-2-2-4 0-2 0-2 0-4v-26zM858 924c2 0 2-2 2-4 0 0 0-2-2-4s-4-4-6-8c-2-4-4-6-6-12-2-4-2-10-2-18 0-6 0-12 2-18 2-4 4-10 8-12 4-4 8-6 12-8s8-2 14-2c6 0 12 2 16 4s10 6 12 10c4 4 6 10 8 16s4 12 6 18c2 6 4 12 6 18s6 10 8 16c4 4 8 8 14 10s12 4 20 4c8 0 16-2 22-4s12-6 18-12c6-4 10-12 12-18 2-8 4-16 4-26 0-12-2-24-6-32s-10-16-18-24l-6 4c-2 0-2 2-2 4 0 0 0 2 2 4s2 2 4 4 4 4 4 6c2 2 4 6 6 8 2 4 2 8 4 12s2 10 2 14c0 8-2 14-4 20s-6 10-10 14c-4 4-8 8-14 10s-12 4-18 4c-6 0-12-2-16-4s-8-6-10-10c-2-4-6-10-8-16s-4-12-6-18c-2-6-4-12-6-18s-6-10-8-16c-4-4-8-8-16-10-6-2-12-4-20-4-6 0-12 2-18 4s-10 6-16 10c-4 4-8 10-10 16s-4 14-4 24c0 10 2 18 4 26 4 8 8 14 14 22zM0 88h14c2 0 2 0 4-2 2 0 2-2 2-2l28-92c0-2 0-4 2-6 0-2 0-4 2-6 0 2 0 4 2 6 0 2 0 4 2 6l30 92c0 0 0 2 2 2 0 0 2 2 4 2h6c2 0 2 0 4-2 2 0 2-2 2-2l30-92c0-2 2-4 2-6s0-4 2-6c0 2 0 4 0 6s0 4 2 6l28 92c0 0 0 2 2 2 0 0 2 2 4 2h16l-44-132h-16l-34 100c0 2-2 4-2 6 0-2 0-2 0-4s0-2 0-2l-34-100h-16zM218 6h50l-20 54c0 2-2 4-2 6s-2 4-2 6c0-2-2-4-2-6s-2-4-2-6zM304-44h-14c-2 0-2 0-4 2l-2 2-12 32h-60l-12-32-2-2c-2 0-2-2-4-2h-16l54 132h18zM340 24h18c6 0 10 0 14 2s8 2 10 6c2 2 4 6 6 8 2 4 2 6 2 10 0 8-2 14-8 18s-12 6-24 6h-20v-50zM340 12v-54h-18v132h38c8 0 16-2 22-2 6-2 12-4 16-8s6-6 8-12c2-4 2-10 2-16 0-4 0-10-2-14s-4-8-6-10c-2-4-6-6-10-8s-8-4-14-6c2-2 4-4 6-6l38-52h-16c-4 0-6 2-8 4l-34 48c-2 2-2 2-4 4-2 0-4 0-6 0h-12zM454 24h18c6 0 10 0 14 2s8 2 10 6c2 2 4 6 6 8 2 4 2 6 2 10 0 8-2 14-8 18s-12 6-24 6h-20v-50zM454 12v-54h-18v132h38c8 0 16-2 22-2 6-2 12-4 14-8 4-4 6-6 8-12 2-4 4-10 4-16 0-4 0-10-2-14s-4-8-6-10c-2-4-6-6-10-8s-8-4-14-6c2-2 4-4 6-6l38-52h-16c-4 0-6 2-8 4l-34 48c0 2-2 2-4 4-2 0-2 0-6 0h-12zM574 6h50l-20 54c0 2-2 4-2 6s-2 4-2 6c0-2-2-4-2-6s-2-4-2-6zM660-44h-14c-2 0-4 0-4 2l-2 2-12 32h-58l-12-32-2-2c-2 0-2-2-4-2h-16l54 132h18zM690 88c2 0 2-2 2-2s0 0 2-2l76-98c0 2 0 4 0 4 0 2 0 2 0 4v94h16v-132h-8c-2 0-2 0-4 0l-2 2-76 100c0-2 0-4 0-4v-98h-16v132h10c-2 0-2 0 0 0zM910 88v-16h-46v-116h-18v116h-42v16zM978 8v-52h-18v52l-48 80h16c2 0 2 0 4-2l2-2 30-52c2-2 2-4 2-6s2-4 2-6c0 2 2 4 2 6s2 4 4 6l30 52 2 2c2 0 2 2 4 2h16z" />
<glyph unicode="&#xe905;" glyph-name="10mm" d="M220 934h46v-972h-46zM244 910l-246-58v46l240 62 790-62v-46zM-2-8v44l250-58 780 58v-44l-784-58zM470 176v146h22c6 0 10 0 10-4l4-10c4 6 4 6 10 10 0 0 4 0 4 0 4 0 8 4 8 4 4 0 10 0 14 0 8 0 18 0 22-8 4-6 10-14 14-18 4 4 4 8 8 12 4 6 10 6 14 10 4 0 8 4 14 4 4 0 8 0 12 0 10 0 14 0 22-4 6-4 14-4 18-10 6-4 10-8 10-16 4-6 4-14 4-24v-88h-36v88c0 10 0 18-4 24-4 4-8 8-18 4-4 0-8 0-8 0-6 0-6-4-10-4-4-6-4-6-4-10s0-8 0-14v-92h-36v98c0 8 0 18-4 22s-10 4-18 4c-4 0-10 0-14-4s-8-4-12-10v-106zM712 184v142h22c4 0 8 0 8-4l4-8c6 4 6 4 10 8s4 4 8 4c6 0 10 6 10 6 4 0 8 0 14 0 8 0 16 0 22-10 4-4 8-8 12-18 6 4 6 10 10 14s8 4 14 8c4 0 8 6 12 6s10 0 14 0c8 0 14 0 22-6 4-4 14-4 18-8s8-10 8-18c6-4 6-14 6-22v-86h-36v90c0 10 0 14-4 18-6 4-10 4-18 4-6 0-10 0-10 0-4 0-4-4-8-4-4-4-4-4-4-8 0-6 0-10 0-14v-90h-36v90c0 8 0 18-6 22-4 4-8 4-16 4-6 0-10 0-14-4s-10-4-14-8v-104zM492 434h64v182c0 10 0 14 0 22l-46-34c-4 0-4-6-8-6s-4 0-10 0c-4 0-4 0-4 6l-4 4-14 22 98 76 46-4v-272h58v-40h-174v44zM862 546c0 22 0 40-4 52-4 14-8 28-12 36-6 10-14 14-18 18-10 4-14 4-24 4-8 0-12 0-22-4-8-4-12-8-18-18-4-8-8-18-12-36-6-12-6-30-6-52 0-24 0-40 6-54 4-14 8-28 12-36 6-8 14-14 18-18 10-4 14-4 22-4 10 0 14 0 24 4 8 4 12 10 18 18 4 8 8 18 12 36 4 14 4 30 4 54zM920 540c0-26-4-48-8-66s-14-36-26-44c-10-14-24-22-36-28-14-4-32-8-46-8-16 0-30 4-44 8-14 6-26 14-36 28-8 12-18 30-22 48s-8 44-8 72c0 26 4 48 8 72 4 16 14 34 22 48 10 14 22 22 36 26 14 6 32 10 44 10 18 0 32-4 46-14 12-8 26-18 36-30 8-14 18-28 26-50 4-22 8-44 8-72z" />
<glyph unicode="&#xe906;" glyph-name="10w" d="M368 796c-14-32-18-68-18-236 0-170 4-202 18-236 34-98 116-158 242-158 74 0 132 22 176 60v668c-44 36-102 60-176 60-126-4-208-60-242-158zM688 768c8-20 12-44 12-210 0-168-4-190-12-212-12-36-40-50-82-50-40 0-68 18-82 50-8 22-10 44-10 212 0 166 2 190 10 210 14 36 38 52 82 52 42 0 70-18 82-52zM16 684l134 84v-590c0-8 4-14 12-14h128c8 0 14 6 14 14v762c0 8-6 10-14 10h-118c-8 0-16-2-22-6l-142-96c-6-4-8-10-8-16v-144c0-6 8-10 16-4zM1020 226v12h-76l-112 72v-12c0-2 0-2 0-2l4-4 84-56c2 0 6-2 6-2 2 0 2-2 4-2-2 0-2-4-4-4-4 0-6-2-6-2l-84-56-4-4v-14l112 72h76zM1020 460h-10v-102h-76v84h-14v-84h-74v102h-10v-116h188v116zM832 558l188-80v12l-2 4-54 22v96l54 22c0 0 2 0 2 4v12l-188-80zM858 568l96 38v-86l-96 40c-2 0-2 0-4 2-4 0-6 0-6 4 2 0 8 2 10 2zM936 728c0 2 0 2 0 2s0 2 2 2l2 4 76 60c2 0 2 4 2 4s0 2 0 4v14l-80-68c-2-2-4-2-4-4 0 8-4 14-6 22s-8 14-10 18c-6 6-10 8-16 10-4 4-12 6-20 6-16 0-28-6-36-18-8-10-14-28-14-52v-48h186v16h-84v24c2 0 2 4 2 4zM926 700h-82v36c0 18 2 30 10 38s14 12 28 12c8 0 12 0 18-2 4-2 10-6 12-10 4-6 8-10 8-18 2-8 2-16 2-24v-32zM846 858c4-4 10-8 16-10 4-2 12-2 18-2s14 2 20 4c4 4 10 8 12 12 4 4 6 10 8 14 2 6 6 14 6 18 2 6 2 14 4 18 4 6 6 10 8 16s6 8 10 10c6 2 10 6 16 6s12 0 18-4c6-2 10-4 12-10 6-4 8-10 12-14 2-6 2-14 2-22 0-4 0-10-2-14 0-6-4-8-6-14-2-2-2-8-6-10-2-2-2-6-4-8s-2-2-6-4l-2-4c0-2 0-2 2-2l6-6c8 8 12 16 18 24 4 10 8 20 8 34 0 10-4 18-6 26-2 6-8 14-12 20-6 4-10 10-18 12s-14 6-24 6c-8 0-12-4-18-6-4-2-10-8-12-10-4-6-6-10-8-16-2-4-6-12-8-18-2-4-2-12-6-18-2-4-4-10-6-14-4-6-8-8-12-10-4-4-10-6-14-6-6 0-10 0-14 2-4 4-8 6-10 8s-4 8-8 14c4 6 4 12 4 20s0 12 2 18c2 4 2 8 4 12 4 2 4 6 6 8s2 2 2 6c0 2 0 2-2 2l-6 2c-4-8-10-12-12-22-2-8-6-18-6-28 0-8 4-18 6-24 0-6 2-10 8-16zM174 80c-2 0-2 0-2-4l-2-2-28-94c0-4 0-4 0-6s0-4 0-4c0 2 0 4-4 4 0 2 0 2-2 6l-30 94c0 0 0 2-4 2 0 0-2 4-4 4h-6c-2 0-2 0-2-4l-2-2-32-94c0-4 0-4-2-6 0-2 0-4 0-4 0 2 0 4 0 4 0 2 0 6 0 6l-28 94c0 0 0 2-2 2 0 0-4 4-6 4h-16l42-136h16l32 104v6c0-2 0-6 4-8l32-106h22l40 136h-16zM236 80l-50-136h12c2 0 2 0 2 2l4 2 12 34h60l12-34c0-2 0-2 2-2l4-2h12l-52 136zM222-8l20 56c0 4 2 4 2 6s2 4 2 8c0-4 4-6 4-8s0-6 2-6l20-56zM378 2c6 0 10 4 12 6 6 2 8 4 12 8 2 2 4 8 4 10 2 4 2 8 2 12 0 6 0 10-2 16-2 4-4 8-8 12s-8 6-14 8c-6 2-14 2-22 2h-36v-136h18v58h14c2 0 4 0 4 0l4-4 32-48c4-2 4-6 8-6h16l-38 54c0 4-4 6-6 8zM362 12h-18v52h22c10 0 18-2 22-6 6-4 8-10 8-18 0-4 0-6-2-10-4-2-4-4-6-8-2-2-4-4-10-4-8-6-10-6-16-6zM494 2c4 0 10 4 12 6 6 2 8 4 10 8 4 2 6 8 6 10 2 4 2 8 2 12 0 6 0 10-2 16-2 4-6 8-8 12-6 4-8 6-16 8-4 2-12 2-20 2h-36v-136h16v58h12c2 0 6 0 6 0l2-4 34-48c2-2 2-6 8-6h14l-38 54c0 4-2 6-2 8zM476 12h-18v52h20c10 0 18-2 24-6 4-4 6-10 6-18 0-4 0-6-2-10-2-2-2-4-4-8-4-2-6-4-12-4-4-6-10-6-14-6zM592 80l-52-136h12c4 0 4 0 4 2l2 2 12 34h60l12-34c0-2 0-2 4-2l2-2h12l-50 136zM576-8l20 56c0 4 0 4 2 6 0 2 0 4 4 8 0-4 2-6 2-8s2-6 2-6l22-56zM768-18c0-2 0-2 0-6 0-2 0-2 0-4l-74 102c0 0 0 0-2 2 0 0 0 0-4 0 0 0 0 0-2 0h-10v-136h16v98c0 0 0 2 0 6 0 2 0 2 0 4l74-102 2-2h10v136h-14v-98zM802 64h44v-120h18v120h44v16h-104v-16zM1002 76l-2-2-28-54c0-2-2-4-2-4 0-4-4-4-4-6 0 2-2 6-2 6 0 2-2 4-2 4l-32 54-2 2-2 4h-16l48-82v-54h18v54l50 82h-16c-4 0-8-4-8-4z" />
<glyph unicode="&#xe907;" glyph-name="12mm" d="M224-36v966h44v-966zM246 908l-246-58v46l242 58 784-58v-46zM0 0v44l250-58 776 58v-44l-780-58zM492 434h64v184c0 8 0 12 0 22l-46-36c-4 0-4-4-8-4s-4 0-10 0c-4 0-4 0-4 4l-4 4-18 22 98 76 46-4v-268h58v-40h-176v40zM810 698c14 0 28-4 42-8 12-6 22-10 30-18 10-10 14-18 18-28 4-8 10-22 10-36 0-8 0-22-6-30-4-10-8-18-12-28-6-8-14-18-24-22-8-10-16-14-22-22l-72-68c10 0 14 4 24 4 8 0 12 0 18 0h80c4 0 8 0 14-4 4-4 4-8 4-14v-30h-216v18c0 4 0 8 6 8 0 4 4 10 8 10l94 88c10 10 14 14 22 24 6 8 14 12 18 22 6 4 10 14 10 22s0 14 0 22c0 10 0 14-4 18 0 4-6 10-10 14s-8 8-14 8c-4 0-12 6-18 6-4 0-12 0-18 0-4 0-8-6-12-6-6-4-10-4-10-8-4-4-4-10-4-14-4-4-4-8-10-14-4 0-8-4-16 0l-28 6c0 12 4 26 14 36 4 8 14 18 22 26 8 10 22 14 32 14 4 4 18 4 30 4zM470 178v148h22c6 0 10 0 10-4l4-10c4 6 4 6 10 10 4 4 4 4 8 4s4 4 10 4c4 0 8 0 12 0 10 0 18 0 22-8 6-4 10-14 14-18 4 4 4 8 10 14 4 4 8 4 12 8 6 0 10 4 14 4s10 0 14 0c8 0 12 0 22-4 4-4 14-4 18-8 4-6 8-10 8-18 0-6 6-14 6-24v-88h-36v88c0 10 0 18-6 24-4 4-8 4-16 4-6 0-10 0-10 0-4 0-4-4-8-4-6-6-6-6-6-10s0-8 0-14v-88h-36v88c0 10 0 18-4 24-4 4-8 4-18 4-4 0-8 0-12-4-6-6-10-6-14-10v-108zM712 188v142h22c6 0 10 0 10-4l4-8c4 4 4 4 8 8 6 4 6 4 10 4s4 6 8 6c6 0 10 0 14 0 10 0 18 0 22-6 6-4 10-8 14-18 4 6 4 10 10 14 4 4 8 4 12 10 6 0 10 4 14 4s8 0 14 0c8 0 12 0 22-4 4 0 14-6 18-10s8-8 8-18c0-4 6-14 6-22v-90h-36v86c0 8 0 12-6 18-4 4-8 4-18 4-4 0-8 0-8 0-4 0-4-4-8-4-6-6-6-6-6-10s0-8 0-14v-80h-36v90c0 8 0 18-4 18-4 4-8 4-18 4-4 0-8 0-14-4-4-4-8-4-12-10v-102z" />
<glyph unicode="&#xe908;" glyph-name="15w" d="M14 682l134 84h2v-592c0-6 4-12 12-12h130c8 0 12 6 12 12v766c0 6-4 12-12 12h-118c-10 0-18-2-22-8l-140-94c-8-8-10-12-10-16v-144c0-12 6-14 12-8zM614 150c66 0 124 18 170 48v454c-36 24-84 34-138 34-62 0-102-20-124-36h-6v154c0 6 2 8 8 8h260v140h-388c-8 0-12-6-12-12v-432c0-8 4-12 12-12h114c8 0 12 2 16 12 12 24 38 46 84 46 42 0 76-16 88-56 6-20 10-38 10-78 0-36-4-58-10-76-12-36-46-56-88-56-52 0-82 28-96 66-2 6-8 8-14 8l-114-24c-8 0-12-6-10-12 12-106 106-176 238-176zM1020 226v12h-76l-108 72v-12c0-2 0-2 0-2l2-4 86-54c2 0 6-4 6-4 2 0 4-2 4-2-2 0-4-2-4-2-4 0-6-2-6-2l-86-56-2-2v-14l108 72h76zM1020 460h-12v-104h-76v84h-12v-84h-72v104h-12v-116h184zM836 556l184-80v10c0 2 0 2 0 2l-2 2-52 22v96l52 22c0 0 2 0 2 2v16l-184-80zM860 568l94 38v-86l-94 38c-4 0-4 2-6 2s-4 2-4 2c2 4 6 4 10 6zM936 728c0 2 0 2 0 2s0 2 2 2l4 2 74 64c2 0 2 2 2 2s0 2 0 4v12l-80-68c-2-2-4-4-4-4 0 10-2 16-4 24-4 8-8 12-12 18-6 4-10 8-16 12-4 2-12 4-18 4-18 0-30-4-36-16-8-14-12-30-12-52v-50h184v12h-84v26c0 2 0 2 0 6zM926 696h-82v36c0 16 4 32 10 38 8 10 18 16 30 16 6 0 12-4 16-6 6-2 10-8 14-10 6-4 8-10 10-16 2-8 2-14 2-24zM848 858c4-6 8-8 14-12 4-4 12-6 16-6 8 0 14 2 20 6 4 2 10 6 14 12 2 4 8 10 10 14s4 12 8 16c2 8 4 12 4 18 2 4 4 12 8 14 2 4 6 8 8 12 8 6 12 8 18 8 8 0 12 0 16-2 6-4 10-6 16-10 4-6 6-10 8-16 4-4 4-12 4-20 0-6 0-10-4-16 0-4-2-6-4-12-2-2-2-6-4-8-4-4-4-6-6-8s-2-2-4-6c2 0 2-2 2-2 0-2 0-2 2-4l6-6c6 8 14 16 16 26 4 8 8 18 8 32 0 10-4 20-6 28-2 10-6 16-12 22-4 4-12 8-16 12-8 2-14 4-22 4s-14-2-20-4c-4-4-10-8-14-12-2-6-8-10-10-16-2-4-4-12-6-16-4-8-6-12-6-18-2-4-4-12-6-14-4-4-8-6-10-12-6-2-10-4-18-4-4 0-10 0-14 2s-8 4-12 8c-2 4-4 6-8 14-2 4-2 12-2 18 0 8 0 12 2 18 4 4 6 10 6 12 2 2 4 4 4 8 2 2 2 2 2 4s0 2-2 2l-6 2c-8-6-12-14-16-20-2-8-4-18-4-28s2-16 4-24c8-6 10-12 16-16zM176 78c-2 0-2 0-4-2l-4-2-26-96c0-2 0-2 0-4s0-4 0-8c0 4 0 6-2 8 0 2 0 4-2 4l-32 96c0 2-2 2-2 2s-2 2-6 2h-4c-2 0-2 0-4-2l-4-2-30-96c0-2 0-2-2-4 0-2 0-4-4-8 0 4 0 6 0 8s0 4-2 4l-26 96c0 2 0 2-2 2 0 0-4 2-6 2h-14l42-138h16l34 104v2c0 2 0 2 0 6 0-4 0-6 2-8l34-104h16l42 138zM238 78l-52-138h14c2 0 2 0 6 2l2 4 12 32h58l12-32c0-4 2-4 2-4s2-2 4-2h16l-54 138zM224-8l20 54c0 2 2 6 2 6 0 2 2 4 2 6 0-2 2-4 2-6 0-4 4-6 4-6l22-54zM378 0c6 0 10 4 16 6 4 2 6 4 10 10 2 2 4 6 6 12 2 4 2 8 2 14 0 4 0 12-2 14-2 6-4 10-10 12-4 2-10 6-14 8-8 2-12 2-22 2h-36v-138h18v58h14c2 0 4 0 4 0l2-2 34-48c4-2 6-6 8-6h16l-38 54c-2 0-4 2-8 4zM362 10h-20v52h22c10 0 18-4 24-8 6-6 8-10 8-20 0-4 0-6-2-12-4-2-4-6-6-10-2-2-4-4-10-4-6 2-12 2-16 2zM492 0c6 0 10 4 14 6 6 2 8 4 10 10 2 2 6 6 8 12 2 4 2 8 2 14 0 4 0 12-2 14-2 6-6 10-10 12s-10 6-14 8c-8 2-14 2-22 2h-36v-138h16v58h16c2 0 4 0 4 0 2 0 2-2 2-2l34-48c2-2 4-6 8-6h16l-38 54c-2 0-6 2-8 4zM478 10h-20v52h20c10 0 16-4 24-8 4-6 8-10 8-20 0-4 0-6-4-12-2-2-2-6-4-10-2-2-4-4-10-4-4 2-10 2-14 2zM592 78l-54-138h14c4 0 4 0 6 2l2 4 12 32h58l12-32c0-4 2-4 2-4s2-2 6-2h14l-54 138zM576-8l22 54c0 2 2 6 2 6 0 2 4 4 4 6 0-2 2-4 2-6 0-4 2-6 2-6l22-54zM770-18c0-4 0-4 0-6s0-2 0-4l-74 104c0 0 0 0-4 2 0 0 0 0-2 0 0 0 0 0-2 0h-10v-138h14v96c0 4 0 4 0 6s0 2 0 4l76-104c0-2 2-2 2-2h12v138h-14v-96h2zM804 62h44v-122h16v122h44v14h-104zM1004 76l-2-2-30-54c-2-2-2-4-2-8 0-2-2-4-2-4 0 2-2 4-2 4 0 4-4 6-4 8l-28 54-2 2c0 0-2 2-6 2h-14l48-82v-56h18v56l48 82h-14c-6 0-8-2-8-2z" />
<glyph unicode="&#xe909;" glyph-name="20w" d="M658 912c-36-16-66-38-92-70-22-28-40-62-54-102-2 24-8 48-16 68-12 26-28 50-48 68s-46 34-74 44c-30 10-62 16-96 16s-66-4-94-14c-30-10-56-24-78-42s-42-42-56-68c-16-28-26-60-30-96l68-12c18-2 32-2 42 4s18 16 24 32c4 12 8 24 16 34 6 10 16 20 26 28s22 14 34 18c14 4 28 6 42 6 16 0 32-2 46-8 14-4 26-12 34-22 10-10 18-22 22-36 6-14 8-30 8-48 0-20-2-40-8-58s-14-36-24-54c-10-18-22-36-38-54s-32-36-52-56l-234-228c-8-8-14-16-18-26s-6-18-6-28v-44h522v78c0 12-4 24-12 32s-20 12-34 12h-196c-14 0-30-2-46-4s-32-6-50-12l172 176c20 22 40 42 58 62s34 42 48 64c6 12 14 22 18 34-2-18-2-36-2-56 0-66 8-122 22-172 14-48 34-88 60-120s56-56 92-70c36-16 74-24 116-24 8 0 14 0 22 0v108c-6-2-14-2-22-2-20 0-38 4-56 12s-34 24-48 44c-14 22-24 50-34 86-8 36-12 80-12 136 0 54 4 100 12 136s20 64 34 86c14 22 30 36 48 44s36 12 56 12c8 0 14 0 22-2v108c-6 0-14 0-22 0-38 2-76-4-112-20zM922 236l-86-54-2-2c0 0 0-2 0-4v-12l110 70h78v14h-78l-110 70v-12c0-2 0-2 0-4l2-2 86-54c2-2 4-2 6-4 2 0 4-2 6-2-2 0-4-2-6-2s-4-2-6-2zM834 348h186v112h-10v-98h-78v82h-12v-82h-76v98h-10zM1016 628c2 0 2 2 2 2v12l-188-76v-14l188-76v10c0 2 0 2 0 4l-2 2-54 22v92zM952 518l-94 38c-2 0-4 2-6 2s-4 2-6 2c4 2 8 2 12 4l94 38zM936 718c0 2 0 2 2 4 0 0 0 2 2 2l2 2 76 60c2 0 2 2 2 4 0 0 0 2 0 4v12l-80-64c-2-2-4-4-6-6 0 8-2 16-6 22-2 6-6 12-12 16-4 4-10 8-16 10s-12 4-20 4c-16 0-28-6-36-16s-12-26-12-48v-48h188v14h-84v24c0 0 0 2 0 4zM926 688h-82v34c0 16 4 30 10 38s16 14 30 14c6 0 12-2 18-4s10-6 14-10c4-4 6-10 8-16s2-14 2-22v-34zM846 842c4-4 10-8 16-10s12-4 18-4c8 0 14 2 20 4s10 6 14 10c4 4 6 10 8 16s4 12 6 18c2 6 4 12 6 18s4 10 8 14c2 4 6 8 10 10s10 4 16 4c6 0 12-2 18-4s10-4 14-10c4-4 8-10 10-14 2-6 4-12 4-20 0-6 0-10-2-14 0-4-2-8-4-12s-4-6-6-8c-2-2-4-4-4-6-2-2-2-4-4-4 0-2-2-2-2-4s0-2 2-4l6-4c8 6 14 14 18 24 4 8 6 20 6 32 0 10-2 18-4 26s-6 14-12 18c-6 6-12 10-18 12s-14 4-22 4c-8 0-14-2-20-4s-10-6-14-10c-4-4-6-10-8-16s-4-12-6-18c-2-6-4-12-6-18s-4-10-8-16c-2-4-6-8-10-10s-10-4-16-4c-4 0-10 2-14 2-4 2-8 4-12 8s-6 8-8 12c-2 6-2 12-2 18s0 12 2 18c2 4 4 8 6 12s4 6 6 8c2 2 2 4 2 4 0 2 0 2-2 4l-6 4c-6-6-10-14-14-22-6-6-6-14-6-24 0-8 2-16 4-24 2-6 6-12 10-16zM172 94c-2 0-2 0-4-2-2 0-2-2-2-2l-28-92c0-2 0-4-2-6 0-2 0-4 0-6 0 2 0 4-2 6 0 2 0 4-2 6l-30 92c0 2-2 2-2 2s-2 2-4 2h-4c-2 0-2 0-4-2-2 0-2-2-2-2l-30-92c0-2 0-4-2-6 0-2 0-4-2-6 0 2 0 4-2 6 0 2 0 4-2 6l-28 92c0 2 0 2-2 2s-2 2-4 2h-14l42-132h16l34 100v2c0 2 0 2 0 4 0-2 2-4 2-6l34-100h16l42 132h-14zM234 94l-52-132h14c2 0 2 0 4 2s2 2 2 2l12 32h60l12-32c0-2 2-2 2-2s2-2 4-2h14l-54 132zM220 10l20 54c0 2 2 4 2 6s2 4 2 6c0-2 2-4 2-6s2-4 2-6l20-54zM376 20c6 2 10 2 14 6 4 2 8 4 10 8s4 6 6 10c2 4 2 8 2 14s0 10-2 16c-2 4-4 8-8 12s-8 6-16 8c-6 2-14 2-22 2h-38v-132h18v52h14c2 0 4 0 6 0s2-2 4-4l34-48c2-2 4-4 8-4h16l-38 52c-4 4-6 6-8 8zM360 30h-18v50h20c10 0 18-2 24-6s8-10 8-18c0-4 0-8-2-10-2-4-4-6-6-8s-6-4-10-6c-8-2-12-2-16-2zM490 20c6 2 10 2 14 6 4 2 8 4 10 8s4 6 6 10c2 4 2 8 2 14s0 10-4 16c-2 4-4 8-8 12s-8 6-14 8c-6 2-14 2-22 2h-38v-132h18v52h14c2 0 4 0 6 0s2-2 4-4l34-48c2-2 4-4 8-4h16l-38 52c-4 4-6 6-8 8zM474 30h-18v50h20c10 0 18-2 24-6s8-10 8-18c0-4 0-8-2-10-2-4-4-6-6-8s-6-4-10-6c-6-2-10-2-16-2zM588 94l-52-132h14c2 0 2 0 4 2 0 2 2 2 2 2l12 32h58l12-32c0-2 2-2 2-2s2-2 4-2h14l-52 132zM574 10l20 54c0 2 2 4 2 6s2 4 2 6c0-2 2-4 2-6s2-4 2-6l20-54zM768 0c0-2 0-2 0-4s0-2 0-4l-76 98c0 0 0 2-2 2 0 0 0 0-2 0 0 0 0 0-2 0h-12v-132h18v100c0 2 0 4 0 4l76-100c0-2 2-2 2-2s2 0 4 0h8v132h-16v-94zM802 78h44v-116h18v116h42v16h-104zM1004 92l-2-2-30-52c-2-2-2-4-2-6s-2-4-2-6c0 2-2 4-2 6s-2 4-2 6l-30 52c0 2-2 2-2 2-2 0-2 2-4 2h-16l48-80v-52h18v52l48 80h-16c-4 0-6-2-6-2z" />
<glyph unicode="&#xe90a;" glyph-name="21" d="M516 820c-14 0-28-6-38-18-12-10-18-24-18-38 0-18 6-28 18-40 10-10 24-14 38-14 18 0 28 4 40 14 10 12 14 26 14 40s-4 28-14 38c-8 14-22 18-40 18zM542 742c-8-6-16-10-26-10s-18 4-24 10c-8 8-10 14-10 26 0 10 2 16 10 24 6 8 14 10 24 10s18-2 26-10c6-8 10-14 10-24 0-12-4-18-10-26zM512 958c-282 0-512-230-512-512 0-284 230-510 512-510 284 0 514 230 514 512 0 284-230 510-514 510zM268 262c0 6 4 10 8 10h138c0-4 0-10 0-22h-138c-4 0-8 4-8 12zM570 576c0-14 2-36 6-60s8-50 12-78c2-28 6-52 10-78 4-24 6-50 6-66 4-22 4-32 4-40 4-10 0-18-4-18-2 0-6 0-14 0-6 0-14 4-14 12-4 6-4 10-4 10 0 4-2 18-6 38-4 22-8 46-14 72-4 24-10 50-14 70-4 22-8 32-8 36h-18l-30-170-8-42c0-4-4-12-4-14 0-4-6-8-14-8-10 0-18 8-14 18l36 346-22 4-18-128c-2-14-6-20-10-20s-8-4-10-4c-12 0-14 8-12 22l30 184c0 14 6 20 14 20h148c6 0 14 0 14-4 4-2 4-6 6-16l12-92 14-92c0-8 0-12 0-14 0-4-4-8-10-8-4 0-8 0-12 4-10-4-14 4-18 18l-16 126-22-4c0 2 0-10 4-24zM552 250h-64c0 0 0 4 0 12 0 4 0 10 0 10h56c0-4 4-6 4-10s0-8 4-12zM524 24h-110v28l36 40c10 10 16 18 20 20 4 4 8 8 8 12s4 6 4 10c0 4 0 8-4 10-4 4-8 4-12 4-2 0-10 0-14-4-2-2-10-6-16-10l-22 24c6 8 14 12 22 16 6 2 10 6 16 6 8 0 14 4 22 4 10 0 18 0 24-4 8-4 14-6 18-14s8-14 8-22c0-6 0-10-4-16 0-4-4-12-8-16-2-2-6-10-14-14-2-6-16-14-32-32h58zM630 24h-42v82c0 10 0 18 0 28-4-4-8-6-12-10l-18-14-20 24 52 42h36v-152zM764 250h-138c0 12 0 18 0 22h138c8 0 8-4 8-10 2-8 0-12-8-12zM658 470l-14 96-14 92c-4 24-18 38-42 38h-142c-14 0-26-4-32-6-4-8-10-18-10-32l-30-184v-4h-336c16 248 216 442 468 442 250 0 452-198 466-442h-314z" />
<glyph unicode="&#xe90b;" glyph-name="23" d="M516 820c-14 0-28-6-38-18-12-10-18-24-18-38 0-18 6-28 18-40 10-10 24-14 38-14 18 0 28 4 40 14 10 12 14 26 14 40s-4 28-14 38c-8 14-22 18-40 18zM542 742c-8-6-16-10-26-10s-18 4-24 10c-8 8-10 14-10 26 0 10 2 16 10 24 6 8 14 10 24 10s18-2 26-10c6-8 10-14 10-24 0-12-4-18-10-26zM512 958c-282 0-512-230-512-512 0-284 230-510 512-510 284 0 514 230 514 512 0 284-230 510-514 510zM268 262c0 6 4 10 8 10h138c0-4 0-10 0-22h-138c-4 0-8 4-8 12zM570 576c0-14 2-36 6-60s8-50 12-78c2-28 6-52 10-78 4-24 6-50 6-66 4-22 4-32 4-40 4-10 0-18-4-18-2 0-6 0-14 0-6 0-14 4-14 12-4 6-4 10-4 10 0 4-2 18-6 38-4 22-8 46-14 72-4 24-10 50-14 70-4 22-8 32-8 36h-18l-30-170-8-42c0-4-4-12-4-14 0-4-6-8-14-8-10 0-18 8-14 18l36 346-22 4-18-128c-2-14-6-20-10-20s-8-4-10-4c-12 0-14 8-12 22l30 184c0 14 6 20 14 20h148c6 0 14 0 14-4 4-2 4-6 6-16l12-92 14-92c0-8 0-12 0-14 0-4-4-8-10-8-4 0-8 0-12 4-10-4-14 4-18 18l-16 126-22-2c0 0 0-12 4-26zM552 250h-64c0 0 0 4 0 12 0 4 0 10 0 10h56c0-4 4-6 4-10s0-8 4-12zM512 24h-108v22l20 18c32 28 50 46 50 64 0 14-8 20-24 20-14 0-26-6-32-14l-12 24c12 8 30 16 50 16 36 0 54-22 54-50 0-26-18-46-40-68l-14-10h56v-22zM580 20c-22 0-36 4-46 12l8 28c6-4 20-10 34-10 18 0 28 10 28 20 0 14-14 22-32 22h-14v24h14c12 0 30 4 30 18 0 10-8 18-22 18s-24-8-32-10l-6 24c10 8 28 10 46 10 30 0 48-18 48-38 0-18-10-28-28-36 18-4 32-18 32-36 4-24-22-46-60-46zM764 250h-138c0 12 0 18 0 22h138c8 0 8-4 8-10 2-8 0-12-8-12zM658 470l-14 96-14 92c-4 24-18 38-42 38h-142c-14 0-26-4-32-6-4-8-10-18-10-32l-30-184v-4h-336c16 248 216 442 468 442 250 0 452-198 466-442z" />
<glyph unicode="&#xe90c;" glyph-name="30w" d="M276 952c36 0 68-6 94-14 26-10 54-28 72-44 18-18 36-42 44-64 10-22 18-48 18-80 0-26-4-48-8-66-6-18-14-36-24-50-8-12-22-26-34-36-14-8-32-18-50-22 44-12 80-36 102-66 22-32 32-68 32-116 0-40-10-72-22-102-14-32-32-54-58-76-22-24-50-36-80-46-32-12-68-18-98-18-36 0-72 6-98 14-28 10-54 22-72 40-22 18-40 40-54 68-14 26-26 52-36 88l58 22c14 6 28 10 40 6 14-6 22-10 28-24 4-12 12-26 22-34 8-14 18-24 26-32 10-8 22-18 36-22s32-10 50-10c22 0 40 6 58 10 16 8 30 18 40 26 8 14 18 28 22 40 4 14 8 32 8 46 0 18 0 34-4 48s-14 26-22 40c-14 10-32 18-54 28-22 4-54 8-90 8v94c32 0 58 4 82 8 22 6 34 14 48 22 14 10 22 24 28 36 4 14 8 32 8 50 0 36-8 66-32 84-18 18-44 28-80 28-12 0-30 0-40-10-14-4-22-8-36-18-8-8-18-18-26-26-8-10-14-22-14-36-4-18-12-26-22-32-8-4-22-8-40-4l-66 14c4 36 12 70 30 98 14 26 32 54 54 72 22 16 50 30 76 44 22 8 54 14 84 14zM790 264c-6 0-14 0-18 0-18 0-36 4-54 14-18 8-32 22-44 44-14 22-22 54-32 90-8 36-14 84-14 142s6 102 14 142c10 36 18 68 32 90 12 22 26 36 44 44 18 10 36 14 54 14 8 0 12 0 18 0v112c-6 0-14 0-18 0-40 0-76-10-108-22-30-18-62-40-84-72s-44-76-58-124c-14-50-22-112-22-180 0-66 8-128 22-178 14-48 30-94 58-124 26-32 54-58 84-72 32-18 72-22 108-22 8 0 12 0 18 0zM936 238h76v-14h-76l-110-72v14c0 0 0 0 0 4 0 0 0 0 4 0l84 54c0 0 4 0 4 4 0 0 6 0 6 6 0 0-6 0-6 4 0 0-4 0-4 4l-84 58c0 0 0 0-4 0 0 0 0 0 0 4v14zM826 460h12v-102h76v84h10v-84h80v102h8v-116h-186zM946 518v90l-94-40c-4 0-10-4-10-4h10zM1012 648v-14c0 0 0 0-4 0l-54-22v-94l54-22c0 0 0 0 4 0 0 0 0 0 0-4v-10l-186 82v12zM918 696v36c0 10 0 18-4 22 0 10-4 14-8 18-6 6-10 10-14 10-4 4-10 4-18 4-14 0-22-4-32-14-4-8-8-22-8-40v-36zM928 696h84v-12h-186v48c0 22 4 40 12 50 10 8 22 18 36 18 8 0 14 0 18-6 4-4 8-4 14-12 4-4 8-10 8-18 4-10 4-14 4-22l6 4 80 66v-18c0 0 0 0-6-4l-74-62c0 0 0 0-6-4 0 0 0 0 0-4 0 0 0 0 0-6v-18zM848 942c4 0 4 0 0 0 0-4 0-4 0-8 0 0-6-6-6-10s-4-8-4-14c0-4-4-8-4-16 0-10 0-14 4-18 0-6 4-10 10-14 4-4 8-4 12-10 6 0 10-4 14-4s14 0 18 4c4 6 8 6 8 10 6 4 6 8 10 14 0 4 4 12 4 18 0 4 4 12 4 16 6 6 6 10 10 14s8 10 12 10c6 4 14 4 18 4 10 0 14 0 24-4 8-6 12-10 16-14 6-4 10-14 14-18 4-8 4-18 4-26 0-14 0-24-4-32s-8-18-18-22l-4 4v4c0 0 0 0 0 6l8 8c0 4 6 4 6 8 0 6 4 10 4 14s0 10 0 14c0 8 0 14-4 22 0 4-6 14-10 14-4 4-8 8-12 8-6 4-10 4-18 4-6 0-14 0-18-4-6-4-10-4-10-14-4-4-4-8-8-12 0-4-4-14-4-18s-6-14-6-18c-4-4-4-10-8-14s-10-8-14-8c-4-4-14-4-18-4s-12 0-18 4c-4 4-8 4-12 8-6 4-10 10-10 18-4 10-4 14-4 22 0 10 0 18 4 28 4 8 10 12 14 22zM0 78h18c0 0 0 0 0-6l26-94 32 94c0 0 0 0 0 6h14c0 0 0 0 0-6l30-94 28 94c0 0 0 0 0 6h18l-42-140h-16l-32 104c0 0 0 4 0 8v-8l-32-104h-18zM214-8h50l-24 54v4c0 0 0 4 0 10 0-6 0-6 0-10v-4zM304-56h-18c0 0 0 0-6 4l-12 30h-58l-14-30c0 0 0 0 0-4h-18l54 138h18zM334 10h18c4 0 10 0 14 0s8 4 8 4c6 6 6 6 6 10s0 8 0 8c0 10-6 14-10 18 4 14-4 14-14 14h-18v-54zM334-4v-58h-18v140h36c10 0 14 0 22-6 6 0 10-4 14-8s8-10 8-14c0-4 6-8 6-14 0-4 0-8-6-12 0-4-4-10-4-14-4-4-4-4-8-8-4-6-10-6-14-6 4 0 4-4 4-4l40-54h-18c-4 0-4 0-8 6l-36 48c0 0 0 4-4 4h-14zM450 10h18c4 0 10 0 14 0s8 4 8 4c6 6 6 6 6 10s0 8 0 8c0 10-6 14-10 18 0 14-4 14-18 14h-18zM450-4v-58h-18v140h36c10 0 14 0 22-6 6 0 10-4 14-8s8-10 8-14c0-4 6-8 6-14 0-4 0-8 0-12s-6-10-6-14c-4-4-4-4-8-8-4-6-8-6-14-6 6 0 6-4 6-4l40-54h-18c-6 0-6 0-10 6l-36 48c0 0 0 4-4 4h-18zM566-8h50l-18 54v4c0 0 0 4 0 10 0-6 0-6 0-10v-4zM656-56h-18c0 0 0 0 0 4l-14 30h-58l-14-30c0 0 0 0 0-4h-16l52 138h18zM682 78c4 0 4 0 0 0l80-108v108h14v-140h-14c0 0 0 0-4 6l-72 102v-108h-12v140h8zM896 78v-14h-40v-120h-18v120h-40v14zM968-4v-52h-18v52l-50 82h18c0 0 0 0 6-6l30-52c0-6 0-6 4-6 0 0 0-4 6-4 0 0 0 4 4 4 0 0 0 6 4 6l32 52c0 0 0 0 4 6h18z" />
<glyph unicode="&#xe90d;" glyph-name="31" d="M516 820c-14 0-28-6-38-18-12-10-18-24-18-38 0-18 6-28 18-40 10-10 24-14 38-14 18 0 28 4 40 14 10 12 14 26 14 40s-4 28-14 38c-8 14-22 18-40 18zM542 742c-8-6-16-10-26-10s-18 4-24 10c-8 8-10 14-10 26 0 10 2 16 10 24 6 8 14 10 24 10s18-2 26-10c6-8 10-14 10-24 0-12-4-18-10-26zM512 958c-282 0-512-230-512-512 0-284 230-510 512-510 284 0 514 230 514 512 0 284-230 510-514 510zM268 262c0 6 4 10 8 10h138c0-4 0-10 0-22h-138c-4 0-8 4-8 12zM512 24c-2-6-6-14-14-18-6-2-10-6-20-10-8-4-14-4-26-4-6 0-16 0-20 4-8 4-14 4-18 8-4 2-10 6-14 14-4 6-8 14-10 20l16 8c4 0 8 4 12 0 2 0 6-4 6-8 4-6 8-10 12-14 2-4 6-4 14-4 2 0 6 0 10 4 4 0 6 4 6 8 4 4 4 4 4 6 0 4 0 8 0 8 0 4 0 6 0 10s-4 8-4 8c-2 2-6 2-10 2s-10 0-20 0v26c6 0 14 0 16 0 4 0 8 4 12 4 2 2 2 2 2 6s0 8 0 10c0 8 0 12-2 18-4 4-8 8-14 8-8 0-12 0-14-4-4-4-8-6-8-10s-4-8-8-8c-2 0-6-4-10 0l-20 4c0 8 2 18 6 24 4 8 8 12 14 18 8 4 10 8 18 12 8 2 14 2 22 2 6 0 16 0 24-2 8-4 14-8 18-12s6-10 10-14c4-6 4-10 4-18 0-6 0-10 0-14s-4-6-4-10c-4-4-4-8-6-8-4-2-8-2-12-6 22-8 28-22 28-40 8-10 4-20 0-28zM488 250c0 0 0 4 0 12 0 4 0 10 0 10h56c0-4 4-6 4-10s0-8 4-12zM604 0c0 0-2-4 0 0l-34-4c0 0-4 0-4 4v130l-32-20h-4v32c0 0 0 2 4 2l32 26h36c0 0 2 0 2-4zM604 478l-16 126-22-2c0 0 0-12 4-26 0-14 2-36 6-60s8-50 12-78c2-28 6-52 10-78 4-24 6-50 6-66 4-22 4-32 4-40 4-10 0-18-4-18-2 0-6 0-14 0-6 0-14 4-14 12-4 6-4 10-4 10 0 4-2 18-6 38-4 22-8 46-14 72-4 24-10 50-14 70-4 22-8 32-8 36h-18l-30-170-8-42c0-4-4-12-4-14 0-4-6-8-14-8-10 0-18 8-14 18l36 346-22 4-18-128c-2-14-6-20-10-20s-8-4-10-4c-12 0-14 8-12 22l30 184c0 14 6 20 14 20h148c6 0 14 0 14-4 4-2 4-6 6-16l12-92 14-92c0-8 0-12 0-14 0-4-4-8-10-8-4 0-8 0-12 4-10-4-14 4-18 18zM764 250h-138c0 12 0 18 0 22h138c8 0 8-4 8-10 2-8 0-12-8-12zM658 470v4l-28 184c-4 24-18 38-42 38h-142c-14 0-26-4-32-6-4-8-10-18-10-32l-30-184v-4h-336c16 248 216 442 468 442 250 0 452-198 466-442z" />
<glyph unicode="&#xe90e;" glyph-name="32" d="M468 740c-4-10-14-10-22-10-10 0-18 6-24 14-8 10-8 18-8 28 0 8 4 18 8 22 10 8 14 8 24 8 8 0 18-4 22-8 8-10 8-14 8-22 0-14 0-24-8-32zM446 820c-14 0-28-4-42-18-8-8-18-22-18-40s6-32 18-40c10-10 24-14 42-14s30 4 40 14c8 8 14 22 14 40 0 14-6 28-14 40-14 14-28 18-40 18zM616 740c-8-10-14-10-22-10-10 0-18 6-22 14-10 10-10 18-10 28 0 8 4 18 10 22 8 8 12 8 22 8 8 0 18-4 22-8 10-10 10-14 10-22 0-14 0-24-10-32zM594 820c-14 0-28-4-40-18-10-8-18-22-18-40s4-32 18-40c8-10 22-14 40-14s32 4 40 14c10 8 14 22 14 40 0 14-4 28-14 40-14 14-26 18-40 18zM734 470v4l-14 94-14 90c-4 28-18 42-40 42h-292c-14 0-28-6-32-10s-10-18-14-32l-26-184v-4h-262c14 248 216 446 468 446s454-198 468-446zM778 244h-76c0 10 0 18 0 24h80c6 0 10-6 10-10-4-8-10-14-14-14zM644 574c0-14 4-36 8-60 4-22 4-48 10-76 4-26 8-54 8-80 4-28 4-50 10-68 0-18 4-32 4-36 4-10 0-18-4-18-6 0-10 0-14 0-10 0-14 4-14 8-4 10-4 10-4 14s-4 18-10 36c-4 22-8 46-12 72-6 28-10 50-14 68-4 22-10 32-10 36h-18l-30-172-10-44c0-4-4-10-4-14s-4-8-14-8c-14 0-18 4-14 18l36 346h-22l-18-130c-4-14-4-18-8-24-6 0-10-4-14-4-10 0-14 10-14 22l28 186c0 12 4 22 12 22h150c8 0 12 0 12-4 6-6 6-10 10-18l14-96 12-90c0-4 0-8 0-12 0-6-4-10-8-10s-10 0-14 4c-4 0-8 10-8 24l-18 134h-24c0 0 0-8 6-26zM562 244c0 0 0 6 0 10s0 8 0 14h58c0-6 0-10 6-14 0-4 0-10 4-10zM648-8h-126v14c0 4 0 4 0 10 0 4 4 4 4 8l50 50c4 4 8 8 14 14 4 4 4 8 8 12 0 6 4 10 4 14s0 10 0 14c0 8 0 14-4 18s-8 4-14 4c-4 0-4 0-8 0s-4 0-4-4l-6-4-4-6c0-4-4-4-4-8 0 0-4-4-10-4 0 0 0 0-4 0 0 0 0 0-4 0l-14-6c0 10 4 18 10 24 4 4 8 12 12 18 6 4 14 8 18 8 10 0 14 4 24 4 8 0 18 0 22-4 8-4 14-4 18-8 4-6 8-10 14-18 4-6 4-14 4-24 0-4 0-12-4-18 0-4-6-8-10-18-4-4-8-8-8-12-6-6-10-10-14-14l-36-36c4 0 8 4 14 4 4 0 8 0 12 0h32c4 0 10 0 10-4 4 0 4-4 4-10zM500 20c-6-10-10-14-14-18s-14-10-18-10c-10-4-14-4-22-4-10 0-18 0-24 4-4 0-12 6-18 10-4 4-8 8-12 14-6 4-10 12-10 22l18 8c4 0 10 0 14 0s4-4 8-4c6-8 10-14 14-14 4-4 10-4 14-4s8 0 8 0c6 0 6 4 10 4 0 0 4 6 4 10s0 4 0 8c0 6 0 10 0 10 0 4 0 4-4 8-4 0-4 6-10 6-4 0-12 0-22 0v26c10 0 14 0 18 0s10 4 10 4c4 0 4 6 4 10s0 4 0 8c0 10 0 14-4 18-6 6-10 6-14 6s-10 0-14-6c-4-4-4-4-8-8 0-4-6-10-6-10-4 0-4 0-12 0l-18 6c0 8 4 18 8 22s10 14 14 18c4 4 14 8 18 8 8 0 14 6 22 6 10 0 18 0 22-6 10-4 14-4 18-8 6-4 10-10 10-14 4-4 4-14 4-18s0-8 0-14c0-4-4-8-4-8 0-4-4-4-10-10-4 0-8-4-12-4 18-8 30-18 30-40-8-18-8-28-12-36zM476 244h-62c0 6 0 10 0 10 0 4 0 4 0 8h58c0-4 0-8 0-8 4 0 4-4 4-10zM476 366c-4 32-8 54-12 72 4-8 12-8 22-8 8 0 18 4 22 8-4-32-4-58-8-86-6-26-6-44-10-62-4 22-8 44-14 76zM360 240c0 4 0 10 0 14l36 346h-22l-18-130c-6-14-6-18-10-22-4 0-8-6-14-6-8 0-12 10-12 24l26 184c0 8 4 18 4 18 6 4 10 4 18 4h108c0-4 0-4-4-8 0-6 0-10-4-14l-28-184c0-6 0-6 0-6h-18l-36-210c0-6-4-10-4-14s-4-10-14-10c0 10-4 10-8 14zM342 244h-82c-4 0-8 6-8 10 0 8 4 8 8 8h82c0 0 0-8 0-18zM512 960c-282 0-512-230-512-512 0-284 230-514 512-514 284 0 514 230 514 514 0 282-230 512-514 512z" />
<glyph unicode="&#xe90f;" glyph-name="33" d="M722 728c8 10 14 24 14 42 0 12-6 26-14 40-10 10-24 18-42 18-12 0-26-4-40-18-10-8-18-22-18-40s4-28 18-42c8-8 22-14 40-14 18-4 32 0 42 14zM644 764c0 10 4 18 10 24 8 8 14 8 22 8 10 0 18-4 22-8 10-10 10-14 10-24 0-8-4-18-10-26-8-10-12-10-22-10-8 0-18 6-22 10-6 8-10 18-10 26zM426 728c10 10 14 24 14 42 0 12-4 26-14 40-8 10-22 18-40 18-14 0-28-4-36-18-10-8-14-22-14-40s4-28 14-42c8-8 22-14 36-14 18-4 32 0 40 14zM354 764c0 10 4 18 10 24 8 8 12 8 22 8 8 0 18-4 26-8 10-10 10-14 10-24 0-8-4-18-10-26-8-10-12-10-26-10-10 0-18 6-22 10-10 8-10 18-10 26zM572 728c8 10 14 24 14 42 0 12-6 26-14 40-10 10-22 18-42 18-12 0-26-4-40-18-8-8-18-22-18-40s4-28 18-42c10-8 22-14 40-14 20-4 32 0 42 14zM500 764c0 10 4 18 8 24 10 8 14 8 22 8 10 0 20-4 24-8 8-10 8-14 8-24 0-8-4-18-8-26-10-10-14-10-24-10-8 0-18 6-22 10-4 8-8 18-8 26zM512 960c-280 0-512-232-512-512 0-282 232-514 512-514 282 0 514 232 514 514 0 280-232 512-514 512zM46 470c12 250 218 444 466 444 250 0 454-194 468-444h-158v4l-14 96-14 90c-4 28-18 42-40 42h-436c-14 0-28-6-32-10s-10-18-10-32l-26-186v-4zM544 474c-4 0-4 0 0 0h-22l-36-212c0-6-4-10-4-14 0-6-6-10-14-10-10 0-14 0-14 4 0 6 0 10 0 14l36 346h-22l-18-128c-6-14-6-18-10-22-4 0-8-4-8-4-10 0-14 8-14 22l26 186c0 8 6 18 6 18 4 4 8 4 18 4h108c0-4 0-4-4-8 0-6 0-10-4-14zM572 428c8 0 18 6 22 10-4-32-4-58-8-82-6-26-6-44-10-64-4 24-8 46-14 78-4 28-8 54-12 72 8-8 12-14 22-14zM440 356c-4-26-4-44-8-64-6 24-10 46-14 78-6 32-10 54-14 72 4-8 14-8 22-8 10 0 18 4 24 8 0-32-6-58-10-86zM286 248h-82c-4 0-8 4-8 8 0 6 4 10 8 10h82c0 0 0-10 0-18zM336 242c0-4-4-8-14-8-4 0-8 0-14 4-4 0-4 10-4 18l36 346h-22l-18-128c0-14-6-18-10-22-4 0-8-4-8-4-6 0-10 0-10 4-4 4-4 8 0 18l28 186c4 8 4 18 8 18 6 4 10 4 14 4h110c-6-4-6-12-6-22l-26-186c0-4 0-4 0-4h-14l-46-204c-4-6-4-10-4-20zM358 262c0 4 0 4 0 8h60c0-8 0-14 4-22h-64c0 4 0 8 0 14zM500 26c-6-10-10-14-14-20-4-4-14-8-18-8-10-4-14-4-24-4-8 0-12 0-22 4-4 0-14 4-18 8-4 6-10 10-14 14-4 6-8 14-8 24l18 8c4 0 8 0 12 0 6 0 6-4 10-4 4-10 10-14 14-14 4-4 8-4 14-4 4 0 8 0 8 0 4 0 4 4 10 4 0 0 4 4 4 10 0 4 0 4 0 8s0 10 0 10c0 4 0 4-4 8-6 0-6 6-10 6s-14 0-22 0v26c8 0 14 0 18 0s8 4 8 4c6 0 6 6 6 10s0 4 0 8c0 10 0 14-6 20-4 4-8 4-12 4-6 0-10 0-14-4-4-6-4-6-10-10 0-4-4-10-4-10-4 0-4 0-14 0l-18 6c0 8 4 18 10 22 4 4 8 14 12 18 6 4 14 10 20 10 8 0 12 4 22 4 8 0 18 0 22-4 6-6 14-6 18-10 6-4 10-8 10-14 4-4 4-12 4-18 0-4 0-8 0-14 0-4-4-8-4-8 0-4-4-4-10-10-4 0-8-4-8-4 18-4 26-18 26-40-8-24-12-32-12-36zM504 248c0 4 0 8 0 8s0 6 0 10h64c0-4 0-10 0-10s0-4 0-8zM640 26c-4-10-10-14-14-20-4-4-14-8-18-8s-14-4-22-4c-10 0-18 0-24 4-4 0-12 4-18 8-4 6-8 10-14 14-8 6-8 14-12 24l18 8c4 0 8 0 14 0 4 0 4-4 8-4 4-10 10-14 14-14 4-4 8-4 14-4 4 0 8 0 8 0 6 0 6 4 10 4 0 0 4 4 4 10 0 4 0 4 0 8s0 10 0 10c0 4 0 4-4 8-4 0-4 6-10 6-4 0-14 0-22 0v26c8 0 14 0 18 0s10 4 10 4c4 0 4 6 4 10s0 4 0 8c0 10 0 14-4 20-6 4-10 4-14 4-6 0-10 0-14-4-4-6-4-6-10-10 0-4-4-10-4-10-4 0-4 0-14 0l-22-4c0 10 4 18 10 24 4 4 8 12 12 18 6 4 14 8 18 8 10 0 14 4 24 4 8 0 18 0 22-4 10-4 14-4 18-8 4-6 10-10 10-14 4-4 4-14 4-18 0-6 0-10 0-14s-4-10-4-10c0-4-6-4-10-8-4 0-8-4-8-4 18-6 26-20 26-42 0-14-4-22-4-26zM654 248c0 0 0 4 0 8 0 6 0 10 0 10h58c0-4 0-10 6-10 0-4 0-8 4-8zM768 474l-20 132h-22c0 0 0-10 4-28 0-12 6-36 10-58s4-50 8-78c6-26 10-54 10-82 4-26 4-48 10-68 0-18 4-30 4-36 4-8 0-18-4-18-6 0-10 0-14 0-10 0-14 4-14 10-4 8-4 8-4 14 0 4-6 18-10 36-4 22-8 44-14 68-4 22-8 50-14 68-4 22-8 32-8 36h-18l-32-168-10-46c0-4-4-8-4-14 0-4-4-8-14-8-12 0-18 4-12 18l36 344h-24l-18-126c-4-14-4-18-8-22-6 0-10-6-10-6-8 0-14 10-14 24l28 186c0 12 4 22 14 22h150c8 0 12 0 12-4 0-6 6-10 10-18l14-96 14-90c0-6 0-10 0-14s-6-10-10-10c-4 0-8 0-14 6-8 8-8 18-12 26zM866 248h-76c0 8 0 18 0 22h82c4 0 8-4 8-8 0-6-4-14-14-14z" />
<glyph unicode="&#xe910;" glyph-name="360" d="M840 598c10-6 20-8 34-8 12 0 24 2 34 8s18 14 24 24c6 10 8 22 8 34s-2 24-8 34c-6 10-14 18-24 24s-22 10-34 10c-14 0-24-4-34-10-12-6-20-14-26-26-6-10-8-20-8-32s2-24 8-34c6-10 14-18 26-24zM856 674c4 4 10 6 18 6 6 0 12-2 16-6 4-6 8-12 8-18s-4-12-8-16c-4-4-10-8-16-8-8 0-14 4-18 8s-6 10-6 16c0 6 2 12 6 18zM768 504c8 20 12 48 12 82 0 44-8 80-24 102-16 24-40 36-72 36s-58-12-74-34c-14-22-22-58-22-104 0-42 6-74 18-96 64 2 116 8 162 14zM664 648c6 12 12 18 20 18s16-6 20-18c4-12 4-32 4-62s-2-52-4-62c-4-12-12-18-20-18s-14 4-20 16c-4 12-4 32-4 64 0 30 0 52 4 62zM230 666c8 0 16-2 22-6s8-8 8-16c0-18-18-28-56-28h-16v-54h16c14 0 26 0 34-2s14-6 18-10c4-4 6-10 6-16 0-10-4-18-12-22-2-2-8-4-12-4 28-6 58-8 94-12 4 10 6 20 6 32 0 38-22 58-66 64v2c18 4 34 14 44 26 10 10 14 26 14 42 0 20-8 36-24 46-16 12-38 16-66 16-18 0-36-2-50-6-16-4-30-10-44-20l30-50c20 12 36 18 54 18zM512 488c12 0 24 0 36 0 10 16 14 34 14 56 0 26-6 48-20 64-12 14-30 22-54 22-26 0-42-10-54-30h-2c2 24 8 42 20 52 10 10 30 16 54 16 14 0 26-2 38-4v58c-14 2-26 2-38 2-30 0-56-4-76-16-22-10-38-28-48-52-10-22-16-52-16-90 0-30 6-54 18-74 40-4 82-4 128-4zM446 566c6 6 12 8 20 8 18 0 26-10 26-32 0-14-2-22-8-28-4-6-10-10-18-10s-16 4-20 12c-4 8-8 18-8 28s4 16 8 22zM512 468c-410 0-512 102-512 102v-296c0 0 150-102 512-102 372 0 512 102 512 102v294c0 0-88-100-512-100zM188 318c2-2 2-4 2-8 0-2 0-4-2-6l-6-6c-2-2-4-2-8-2-2 0-4 0-6 2l-50 52c-2 2-4 4-4 6 0 4 2 6 4 8l52 50c2 2 4 2 6 2s6 0 6-2l8-6c2-2 2-4 2-8 0-2 0-4-2-6l-40-38zM404 284h-28l-30 90h28l12-46c4-10 4-16 4-20 0 2 2 6 2 10 2 4 2 8 2 10l12 46h28zM468 284h-24v90h24zM542 354h-30v-14h28v-20h-28v-16h30v-20h-54v90h54zM656 284h-30l-8 40c0 0-2 4-2 8 0 6-2 10-2 12 0-2 0-6-2-10 0-4-2-6-2-10s-4-18-8-40h-30l-22 90h24l10-44c2-12 2-18 4-24 0 4 2 10 2 16 2 8 4 14 4 18l8 34h24l6-34c2-6 4-12 4-18 2-8 2-14 4-18 0 6 2 12 4 24l10 46h24zM908 350l-52-52c-2-2-4-4-6-4s-6 2-6 4l-8 6c-2 2-2 4-2 6s0 6 2 6l38 40-38 36c-2 2-2 4-2 8 0 2 0 4 2 6l6 6c2 2 4 4 8 4 2 0 4-2 6-4l52-50c2-2 2-4 2-6s-2-4-2-6z" />
<glyph unicode="&#xe911;" glyph-name="ac3" d="M430 468h28l-104 264h-28l-146-354h28c0 0 0 0 6 6l42 104h174zM256 502l70 180c0 0 0 8 6 8 0 6 0 6 8 14 0-8 6-14 6-22l70-180zM534 468h28c0 6-8 14-8 14-6 20-14 42-14 70 0 26 8 48 14 68 8 22 14 36 28 48 14 14 28 28 48 36 22 6 36 14 56 14 14 0 28 0 42-8 14-6 20-6 28-14 14-6 20-6 28-14 6-6 6-6 6-6h6l8 14c-14 14-34 28-48 34-22 8-42 14-62 14-28 0-50-6-70-14-22-6-42-20-56-34s-28-34-34-56c-8-20-14-48-14-76s6-56 14-76c0-8 0-8 0-14zM512 960c-284 0-512-228-512-512s228-514 512-514c284 0 514 230 514 514s-230 512-514 512zM512-32c-262 0-478 216-478 480 0 262 216 478 478 478 264 0 480-216 480-478 0-264-216-480-480-480zM554 274c8 0 22 6 28 14 8 6 14 6 20 14 8 6 8 14 14 20 0 8 8 22 8 28 0 14 0 28-8 34-6 14-14 22-20 28-6 8-20 14-34 22-14 6-28 6-50 6-14 0-34 0-48-6-14-8-28-14-34-22-14-6-22-20-28-34s-14-28-14-48l34-8h8c6 0 14 0 14 8 6 0 6 6 6 14 8 14 14 20 22 26 6 8 20 14 34 14s28-6 42-14c6-6 14-20 14-40 0-8 0-14-8-22 0-6-6-14-14-20-6-8-14-8-28-14-6 0-20-8-40-8v-48c20 0 34 0 40-6 14 0 22-8 28-14 8-8 8-14 14-22 0-6 0-12 0-20 0-6 0-14-6-20 0-8-8-14-14-22-8-6-14-6-22-14 0 28-6 28-20 28-6 0-20 0-28 8-6 6-14 6-20 14-8 6-8 6-14 14-8 6-8 12-8 20 0 6-6 6-6 6-8 0-8 0-14 0s-6 0-14 0l-20-20c6-14 14-28 20-42 8-14 14-20 28-28 6-6 20-14 34-20 14-8 28-8 48-8 14 0 36 0 50 8 14 6 28 14 42 20 12 8 20 22 26 36 8 14 8 28 8 48s-8 42-14 56c-20 14-34 26-56 34zM796 434c0 0-6 0 0 0-12-8-20-14-26-22-8-6-14-6-22-14-6 0-20-6-28-6-6 0-20 0-34 0-20 0-42 6-56 14 0-8 0-14-6-14v-8c20-6 42-14 62-14 14 0 28 0 42 8 14 0 20 6 34 6 8 8 22 8 28 14 6 8 14 14 20 22z" />
<glyph unicode="&#xe912;" glyph-name="ac4" d="M786 438c-2 2-2 2-4 2h-2l-2-2c-6-6-14-12-22-18-6-6-12-10-20-12-8-4-18-6-28-6-8-2-20-2-32-2-20 0-36 2-52 10 0-6-2-8-4-14 0-2-2-4-4-8 18-8 38-10 58-10 14 0 28 2 38 4 12 2 24 6 34 10 8 4 18 10 26 14 8 6 16 14 24 22zM266 506l68 178c2 2 2 6 4 10 2 2 2 6 4 10 2-8 4-14 8-20l68-180h-152zM328 732l-136-352h20c2 0 4 0 6 2 0 2 0 4 2 4l42 102h164l6-18h26l-102 260h-28zM582 672c12 14 26 24 44 30 18 8 34 12 56 12 16 0 28-2 40-6s22-8 30-12c6-2 12-6 16-10s8-6 10-6c2 0 4 0 6 4l8 10c-16 14-32 26-48 32-18 8-40 12-62 12-26 0-46-4-66-14-18-10-36-22-52-36-12-16-24-36-32-58s-12-46-12-74c0-26 4-52 12-74 2-4 2-6 4-10h26c-2 6-4 12-6 18-8 18-10 42-10 66 0 26 4 46 10 66 2 20 12 36 26 50zM512 922c-248 0-452-214-452-474 0-262 204-476 452-476 250 0 454 214 454 476 0 260-204 474-454 474zM512-66c-270 0-488 230-488 514 0 282 218 512 488 512 272 0 490-230 490-512 0-284-220-514-490-514zM508 334c0 6 0 12 0 20 0 6 0 12 0 20l-108-154h106v114zM560 220h48v-34c0-6-2-10-2-12-4-2-6-4-12-4h-34v-90h-52v90h-146c-2 0-4 0-6 2-2 0-4 2-6 4s-4 4-4 6c-2 2-2 4-2 8l-6 30 168 230h58v-230z" />
<glyph unicode="&#xe913;" glyph-name="ac5" d="M590 674c14 14 28 22 46 32 18 8 36 8 58 8 18 0 32 0 42-4 12-4 22-8 30-14 10-4 14-8 20-12 4-6 8-6 8-6 4 0 4 0 4 6l10 8c-14 14-32 22-50 32s-40 14-64 14c-26 0-50-4-68-14-22-10-40-22-54-36s-28-36-36-60c-10-22-14-44-14-72s4-54 14-72c0-6 4-6 4-10h28c-6 4-6 10-10 18-8 18-8 42-8 68 0 24 4 46 8 68 10 14 18 32 32 46zM322 734l-144-354h18c4 0 4 0 4 0l4 4 42 104h176l4-18h28l-104 258h-28zM258 506l74 178c0 4 4 4 4 8s0 10 4 14c4-10 4-14 10-22l72-178zM804 438c-6 0-6 0-6 0s0 0-4 0c-8-4-14-14-22-18-10-4-14-10-24-14-8-4-18-4-26-8-10 0-24-6-32-6-18 0-36 6-54 10 0-4 0-10-6-14 0-4 0-4-4-8 18-10 42-10 60-10 12 0 26 0 40 4 14 6 22 6 32 10 8 4 18 8 28 18 8 4 18 14 22 22zM612 416c0-6 0-10-4-14 0-4-4-10-8-14-6-4-10-4-14-8-6 0-14-6-24-6h-86l-8-54c8 0 14 0 18 4 4 0 14 0 18 0 18 0 36-4 50-8 14-6 26-14 36-24 10-8 18-22 22-36 6-14 10-26 10-44s-4-38-10-56c-8-18-18-32-26-40-14-14-28-22-46-28-18-4-36-8-54-8-14 0-24 0-32 4-10 4-22 4-32 10-8 4-18 8-28 12-8 6-12 14-22 18l22 32c6 6 6 6 10 10 4 0 8 4 8 4 6 0 10 0 14-4 6-4 10-4 14-10 4-4 10-4 18-8 10-4 14-4 28-4 8 0 18 0 26 4 10 4 14 8 18 14 6 4 10 12 10 22s4 18 4 28c0 18-4 30-14 40-8 10-22 14-40 14s-32-4-50-10l-50 14 32 182h186v-36zM0 448c0 286 232 512 512 512 286 0 514-232 514-512 0-286-232-514-514-514-280 0-512 228-512 514zM40 448c0-264 214-478 478-478 262 0 476 214 476 478 0 262-214 476-476 476-264 0-478-214-478-476z" />
<glyph unicode="&#xe914;" glyph-name="acrobat" d="M478 638c6 0 6 0 0 0 6 22 12 34 12 52v10c6 30 6 52 0 58 0 0 0 0 0 6l-6 6c0 0 0-6-6-6-12-34-12-74 0-126zM306 240c-12-6-24-12-30-18-40-34-68-74-74-92 34 6 68 40 104 110 6 0 6 0 0 0 6 0 0 0 0 0zM836 326c-6 6-30 24-110 24-6 0-6 0-12 0 0 0 0 0 0-6 40-18 80-30 110-30 6 0 6 0 12 0h4c0 0 0 0 0 6 0 0-4 0-4 6zM922 960h-806c-64 0-116-52-116-116v-806c0-62 52-114 116-114h806c62 0 114 52 114 114v806c0 64-52 116-114 116zM858 280c-12-6-28-12-52-12-46 0-114 12-172 42-98-12-174-24-230-46-6 0-6 0-12-6-70-122-128-180-174-180-10 0-16 0-22 6l-30 18v6c-4 12-4 16-4 28 6 30 40 82 108 122 12 6 30 16 52 28 18 28 36 64 58 104 28 58 46 114 64 166-24 70-36 110-12 190 6 24 24 46 46 46h12c12 0 22-4 34-10 40-40 24-134 0-208 0-6 0-6 0-6 24-62 58-114 92-150 18-10 30-22 52-34 28 0 52 6 74 6 70 0 116-12 134-40 6-12 6-24 6-36-6-4-12-22-24-34zM484 506c-12-42-34-88-58-140-12-22-22-40-34-62h12c74 28 144 46 190 52-12 6-18 10-24 16-28 36-64 82-86 134z" />
<glyph unicode="&#xe915;" glyph-name="add" d="M512 960c-282 0-512-230-512-512s230-512 512-512c282 0 512 230 512 512s-230 512-512 512zM768 396h-204v-204h-104v204h-204v104h204v204h104v-204h204z" />
<glyph unicode="&#xe916;" glyph-name="angle-angle" d="M124 778l-124-304h16c2 0 4 0 6 2 2 0 2 2 2 4l36 88h150l36-88c0-2 2-4 4-4 0-2 2-2 4-2h18l-126 304zM68 584l62 154c0 2 2 6 2 8 2 4 2 6 4 10 0-4 2-6 2-10 2-2 2-6 4-8l62-154h-136zM124 492l-124-304h18c0 0 2 0 4 0 2 2 2 4 4 4l34 90h150l36-90c2-2 2-2 4-4 0 0 2-2 4-2h18l-126 306h-22zM68 298l62 154c0 2 2 4 2 8 2 2 2 6 4 10 0-4 2-8 2-10 2-4 2-6 4-8l62-154h-136zM872 502c8-10 20-18 32-24 12-4 24-6 40-6 8 0 16 0 24 2s14 4 22 6c6 2 12 6 18 10s10 8 14 12l-6 6c0 2-2 2-4 2s-4 0-6-2c-4-4-8-6-14-8-4-4-12-6-20-8-8-4-16-4-28-4s-22 2-32 6c-10 4-18 10-24 18-8 8-14 18-16 30-4 14-6 28-6 44v4h154c2 0 4 0 4 2 2 0 2 2 2 6 0 14-2 28-6 40s-10 22-18 30c-8 8-16 14-26 18-12 4-22 6-34 6-16 0-30-4-42-8-12-6-22-14-30-22-8-10-14-22-18-34-4-14-8-28-8-42 0-18 4-36 8-50s12-26 20-34zM874 634c4 8 10 16 16 22s14 12 22 16c10 2 18 4 30 4 10 0 18-2 26-4 8-4 16-10 22-16 4-6 10-14 12-22 4-10 6-20 6-32h-142c2 12 4 22 8 32zM460 382c-6 8-14 14-22 18-10 2-20 4-32 4-16 0-30-4-44-10-12-8-24-18-34-30l-2 32c0 4-2 6-6 6h-12v-214h22v160c8 12 20 22 32 30 12 6 24 10 38 10 20 0 34-6 42-16 10-12 14-28 14-48v-138h22v138c0 12-2 24-6 34-2 10-6 18-12 24zM764 500v-312h22v600h-22zM1002 380c-8 8-16 14-26 18s-22 6-34 6c-16 0-28-2-40-8-14-4-24-12-32-22-8-8-14-20-18-34-4-12-6-26-6-42 0-18 2-34 6-48s12-26 20-36c8-10 20-16 32-22s24-8 40-8c8 0 16 0 24 2s14 4 22 6c6 4 12 6 18 10s10 8 14 12l-6 8c0 2-2 2-4 2s-4-2-6-4c-4-2-8-4-14-8-4-2-12-6-20-8s-16-4-28-4c-12 0-22 2-32 6s-18 12-24 20c-8 8-14 18-16 30-4 12-6 26-6 42v4h154c2 0 4 2 4 2 2 2 2 4 2 6 0 16-2 30-6 40-4 12-10 22-18 30zM866 316c2 10 4 22 8 30 4 10 10 16 16 24 6 6 14 10 22 14 10 4 18 6 30 6 10 0 18-2 26-6s16-8 22-14c4-6 10-14 12-24 4-8 6-18 6-30zM638 688c-8 2-16 4-26 4-12 0-22-2-32-6-8-2-16-8-24-14-6-6-12-12-14-20-4-10-6-18-6-28 0-14 2-26 8-36 6-8 14-16 24-22-4-2-8-6-12-8-2-4-6-6-8-10-2-2-4-6-4-10-2-2-2-6-2-8 0-8 2-16 6-20s10-8 16-10c-12-4-22-12-30-20s-10-18-10-28c0-8 0-16 4-22 4-8 10-14 18-18 8-6 18-10 28-14 2 0 2 0 4 0-8-2-16-6-22-12s-12-14-14-22c-4-8-6-18-6-28 0-12 2-24 8-34s14-18 24-24c-4-2-8-4-12-8-2-2-6-4-8-8s-4-6-4-10c-2-4-2-6-2-10 0-8 2-14 6-18 4-6 10-8 16-12-12-4-22-10-30-18s-10-18-10-30c0-8 0-14 4-22 4-6 10-12 18-18 8-4 18-8 28-12 12-4 26-4 40-4s28 2 40 6c12 2 22 8 30 14s16 14 20 22c4 8 6 16 6 26s-2 16-6 22c-4 6-10 12-18 14-6 4-14 6-24 8-8 0-18 2-28 2-8 0-18 0-26 2-10 0-18 0-26 2-6 2-12 4-16 8-4 2-6 8-6 14 0 4 2 8 4 14 4 4 8 8 14 12 10-4 22-6 34-6s22 2 32 4c8 4 16 8 24 14 6 6 10 14 14 22s6 18 6 28c0 8 0 16-2 22s-6 12-10 18l32 2c4 2 6 2 6 6v8h-54c-4 2-10 4-14 6 2 0 6 0 8 2 12 4 22 8 30 14 8 8 16 14 20 22s6 18 6 26c0 10-2 18-6 24s-10 10-18 12c-6 4-14 6-24 8-8 0-18 2-28 2-8 0-18 2-26 2-10 0-18 2-26 2-6 2-12 4-16 8s-6 8-6 14c0 4 2 8 4 14 4 4 8 8 14 12 10-4 22-6 34-6s22 2 32 6c8 2 16 8 24 14 6 6 10 12 14 20 4 10 6 18 6 28 0 8 0 16-2 22-2 8-6 14-10 18l32 4c4 0 6 2 6 6v6h-54c-6 4-14 8-22 10zM580 210c6-2 14-2 22-4 10 0 18 0 26 0 8-2 16-2 24-2 8-2 14-4 20-6s10-4 14-10c4-4 6-8 6-16 0-6-2-14-6-20s-10-10-16-16c-8-4-16-8-26-10-8-2-18-4-30-4s-22 2-30 4c-10 2-18 6-24 10s-10 8-14 14c-2 4-4 10-4 16s0 10 2 14c2 4 4 8 8 12s8 6 12 10c4 2 10 6 16 8zM654 374c6-4 10-10 12-16s4-14 4-22c0-8-2-16-4-22s-6-12-12-18c-4-4-10-8-18-10-6-4-14-4-24-4-8 0-16 0-24 4-8 2-14 6-18 10-6 6-8 12-12 18-2 6-4 14-4 22s2 16 4 22c4 6 6 12 12 16 4 6 10 10 18 12s16 4 24 4c10 0 18-2 24-4 8-2 14-6 18-12zM580 496c6-2 14-2 22-2 10 0 18-2 26-2s16 0 24-2c8 0 14-2 20-4s10-6 14-10c4-4 6-10 6-16 0-8-2-14-6-20s-10-12-16-16c-8-6-16-8-26-10-8-4-18-4-30-4s-22 0-30 2c-10 4-18 6-24 10s-10 8-14 14c-2 6-4 12-4 18 0 4 0 10 2 14s4 8 8 12c4 2 8 6 12 8 4 4 10 6 16 8zM670 622c0-8-2-14-4-22-2-6-6-12-12-16-4-6-10-8-18-12-6-2-14-4-24-4-8 0-16 2-24 4-8 4-14 6-18 12-6 4-8 10-12 16-2 8-4 14-4 22s2 16 4 22c4 8 6 14 12 18 4 4 10 8 18 10 8 4 16 4 24 4 10 0 18 0 24-4 8-2 14-6 18-10 6-4 10-10 12-18 2-6 4-14 4-22zM460 670c-6 6-14 12-22 16-10 4-20 6-32 6-16 0-30-4-44-12-12-8-24-18-34-30l-2 32c0 4-2 6-6 6h-12v-214h22v160c8 14 20 24 32 30 12 8 24 12 38 12 20 0 34-6 42-18 10-12 14-28 14-48v-136h22v136c0 14-2 24-6 34-2 10-6 18-12 26z" />
<glyph unicode="&#xe917;" glyph-name="apteki" d="M774 552h-158v158c0 32-26 58-56 58h-96c-30 0-56-26-56-58v-158h-158c-32 0-58-26-58-56v-96c0-30 26-56 58-56h158v-158c0-32 26-58 56-58h96c30 0 56 26 56 58v158h158c32 0 58 26 58 56v96c0 30-26 56-58 56zM798 400c0-12-10-22-24-22h-174c-10 0-18-8-18-18v-174c0-12-10-24-22-24h-96c-12 0-22 12-22 24v174c0 10-8 18-18 18h-174c-14 0-24 10-24 22v96c0 12 10 22 24 22h174c10 0 18 8 18 18v174c0 14 10 24 22 24h96c12 0 22-10 22-24v-174c0-10 8-18 18-18h174c12 0 24-10 24-22v-96zM910 934h-796c-48 0-88-40-88-88v-794c0-50 40-90 88-90h796c48 0 88 40 88 90v794c0 48-40 88-88 88zM964 50c0-30-24-54-54-54h-796c-30 0-54 24-54 54v796c0 30 24 54 54 54h796c30 0 54-24 54-54z" />
<glyph unicode="&#xe918;" glyph-name="aqua-pearl" d="M812 412c-2-6-4-12-6-16l-8-18h16v18c-2 4-2 10-2 16zM684 514c0 4 0 12 0 16-2-4-6-10-8-16l-8-16h18zM678 412c-2 0-4 0-6 0l-6-24c2 0 6 0 8 0 8-2 16 4 16 12 0 0 0 2 0 2 0 8-6 10-12 10zM750 476c4 0 10 2 14 6 6 8 10 18 8 30 0 8-2 18-16 18-4 0-10-2-12-6-8-8-10-18-10-28 0-12 4-20 16-20zM244 598l-32-42v-12c2-10-2-22-8-30-10-8-22-14-34-12h-70c-6 0-12 0-16-4-6-4-8-12-8-24v-22c0-8 0-14 4-20 8-8 16-10 26-10h142l132-32c10-4 20 0 28 8 12 16 20 28 20 28l2 4h92v-88l32-44h470v300zM926 544l10-80h-18l-2 20h-22l-10-20h-18l40 80zM802 498l8 46h18l-10-46c0-4 0-6 0-10 0-6 4-12 10-12 0 0 2 0 2 0 8 0 14 6 18 20l8 46h18l-8-44c-6-24-16-36-38-36-16 0-26 8-26 24-2 6-2 10 0 12zM730 532c8 8 18 12 30 12 20 0 32-16 32-32 0-14-4-26-14-36-4-4-6-8-12-8 6-2 12-4 20-4l-8-14c-10 2-20 6-28 10-2 2-4 2-6 2-16 2-28 14-28 34 0 12 4 26 14 36zM676 544h22l8-80h-18v20h-24l-10-20h-18zM696 380c-6-6-16-8-24-8-2 0-6 0-8 2l-4-30h-18l16 78c6 2 14 2 20 2 8 2 16 0 22-4s8-10 8-18c0-8-4-16-12-22zM760 378h-28l-2-18h30l-2-14h-48l16 78h46l-2-14h-32l-2-16h28zM816 346v20h-24l-10-20h-18l38 78h22l10-78zM892 382c4-2 6-8 8-14 0-8 0-16 2-24h-18c0 6-2 12-2 18 0 10-4 14-10 14h-6l-6-32h-18l16 78c6 2 14 2 22 2 6 0 14-2 20-4 6-4 10-10 10-16 0-10-8-20-18-22zM960 346h-46l14 78h18l-12-64h30zM416 390c-10-12-24-18-40-12l-130 34h-140c-12-2-24 2-34 12-6 8-8 18-6 28v22c0 14 4 26 12 32 6 6 14 8 24 6h70c8 0 18 4 24 10s8 14 8 22v12l-32 42h-172v-300h478l32 44v74h-74c-2-4-10-14-20-26zM914 514c0 4 0 12-2 16-2-4-4-10-6-16l-8-16h18zM880 412c-2 0-4 0-6 0l-4-22h6c8-2 16 4 16 12 0 0 0 0 0 0 0 8-6 10-12 10z" />
<glyph unicode="&#xe919;" glyph-name="aqua-zero" d="M660 288l-12-38h24zM456 298c-4-2-8-6-10-12-4-8-4-14-4-22s0-16 4-24c2-6 8-12 16-12 2 0 2 0 4 2l-6 6c0 0 0 2 0 2l14 12c0 2 2 2 2 0l4-4c0 6 2 12 2 18 0 8 0 14-4 22-2 10-12 14-22 12zM586 150c0 10-8 18-20 18 0 0-2 0-2 0h-28c-2 0-2 0-2 0v-38c0 0 0 0 2 0h28c14 0 22 6 22 20zM362 288l-12-38h26l-12 38zM814 470l-294 450c-4 4-8 4-12 2-2 0-4-2-4-2l-226-346c24 24 54 42 86 52 70 26 144 30 212 10 48-14 94-38 130-70l14 28 36-112-106 52 28 10c-32 26-70 46-112 58-144 40-304-34-376-178 2 6 4 12 8 18-68-160 0-350 156-432 166-86 372-22 458 144 52 100 52 218 2 316zM598 350v168c0 0 2 2 2 2h32c0 0 2-2 2-2v-58c6 10 18 14 30 14 28 0 42-18 42-46v-78c0 0 0-2-2-2h-30c-2 0-2 2-2 2v72c0 12-8 22-20 22s-18-10-18-22v-72c0 0-2-2-2-2h-32c0 0-2 0-2 2zM580 246c0 0 0 2 0 4v66c0 0 2 0 2 0h18c2 0 2 0 2 0v-66c2-22-14-40-36-42-2 0-4 0-6 0-20-2-38 14-40 34 0 4 0 6 0 8v66c0 0 0 0 0 0h20c0 0 0 0 0 0v-66c0-10 8-20 18-20 12-2 20 6 22 16zM374 492c-2 0-2 0-2 0-12 0-20-6-22-20 0-2 0-2-2-2l-28 4c-2 0-2 0-2 2 2 24 20 46 54 46s52-22 52-50c0-14-6-30-16-40l-46-54h60c0 0 2-2 2-2v-26c0 0-2-2-2-2h-100c-2 0-4 2-4 2v24c0 0 0 2 2 2l60 72c8 8 10 16 10 24 0 10-6 18-16 20zM398 170c0-2 0-2-2-2l-58-90h58c2 0 2 0 2 0v-12c0 0 0-2 0-2h-74c0 0-2 2-2 2v12c0 0 0 0 0 2l58 88h-54c-2 0-2 2-2 2v10c0 2 0 4 0 4h72c0 0 2-2 2-4zM410 210h-20c-2 0-2 0-2 2l-8 18h-36l-6-18c0 0 0 0-2 0h-20c-2 0-2 0-2 0l38 104c0 0 0 2 2 2h20c0 0 2-2 2-2l36-104c0-2 0-2-2-2zM496 172c0-2 0-4 0-4h-58c0 0 0 0 0 0v-34c0 0 0-2 0-2h48c2 0 2-2 2-2v-10c0-2 0-2-2-2h-48c0 0 0 0 0-2v-36c0 0 0-2 0-2h58c0 0 2 0 2 0v-12c0 0-2-2-2-2h-72c0 0-2 2-2 2v116c0 2 2 2 2 2h72c0 0 2 0 2-2v-10zM510 214l-12-12c-2 0-2 0-2 0l-12 12c-6-4-14-6-22-6-16 0-34 8-38 26-2 10-4 20-4 30-2 10 0 20 4 28 4 18 22 28 38 28 18 0 34-10 40-28 2-8 4-18 2-28 2-10 0-20-2-30-2-2-2-4-2-6l10-12c0 0 0 0 0-2zM454 372c0 0-2 2-2 2v26c0 2 0 2 0 4l52 114c0 0 2 2 4 2h32c2 0 2-2 2-2l-52-114v-2h32c2 0 2 0 2 2v36c0 2 0 4 2 4h28c2 0 4-2 4-4v-36c0-2 0-2 0-2h12c0 0 2 0 2-2v-24c0-2-2-2-2-2h-12c0 0 0 0 0-2v-20c0-2-2-2-4-2h-28c-2 0-2 0-2 2v20c0 2 0 2-2 2h-68zM602 64h-14c0 0-2 0-2 2l-24 50h-26c0 0 0 0 0-2v-48c0 0-2-2-2-2h-12c0 0-2 2-2 2v116c0 2 2 2 2 2h42c20 2 36-12 38-30 0-2 0-2 0-4 0-16-8-28-24-34l24-50c4 0 2-2 0-2zM612 212l36 104c0 0 2 2 2 2h20c2 0 2-2 2-2l36-104c0 0 0 0 0 0h-22c0 0-2 0-2 0l-6 18h-36l-6-18c0 0 0-2-2 0h-20c-2-2-2 0-2 0zM708 90c-6-16-22-28-40-28s-34 10-40 28v0c-4 12-4 24-4 34 0 12 0 24 4 34 6 18 22 30 40 28 18 2 34-10 40-28 4-10 4-22 4-34s-2-22-4-34zM668 172c-12 0-22-8-26-18-2-10-4-20-2-30 0-10 0-20 2-28 4-12 14-20 26-18 10-2 20 6 24 18 2 8 4 18 2 28 0 10 0 20-2 30s-14 18-24 18z" />
<glyph unicode="&#xe91a;" glyph-name="aranzator" d="M26 352v130c0 12 10 22 24 22h234l-102-174h-132c-14 0-24 10-24 22zM194 86l-74-50c-10-8-18-2-16 8l10 86c0 12 10 16 22 12l58-34c10-6 10-16 0-22zM212 134l-58 32c-10 6-14 20-8 30l270 456c6 12 20 14 30 8l58-32c10-6 14-20 8-30l-270-456c-6-12-18-14-30-8zM418 330l102 174h58l84-174zM752 280c-24 10-140 272-170 340s-120 248-90 262c20 10 94-132 150-218s172-306 186-332c14-24-14-46-30-52-14-6-24-12-46 0zM828 158l-36 54c-8 12-4 26 8 32l34 16c12 6 26 2 32-10l28-52c6-12 2-26-10-34l-24-14c-10-6-26-2-32 8zM956 18c-8 22-62 24-88 58s-4 52 4 60c102 56 84-118 84-118zM1008 352c0-12-10-22-22-22h-118c-2 8-4 14-6 20-4 6-12 20-22 40-16 30-38 70-62 114h208c12 0 22-10 22-22z" />
<glyph unicode="&#xe91b;" glyph-name="arrow-bottom" d="M996 704l-34 34c-38 38-100 38-138 0l-312-312-312 312c-38 38-100 38-138 0l-34-34c-38-38-38-98 0-136l410-410c20-20 48-30 74-28 26-2 54 8 74 28l410 410c38 36 38 98 0 136z" />
<glyph unicode="&#xe91c;" glyph-name="arrow-left" d="M490 448l312 312c38 38 38 100 0 138l-34 34c-38 38-98 38-136 0l-410-410c-20-20-30-48-28-74-2-26 8-54 28-74l410-410c38-38 98-38 136 0l34 34c38 38 38 100 0 138z" />
<glyph unicode="&#xe91d;" glyph-name="arrow-more" d="M1020 464l-8 14-256 256c-18 16-44 16-60 0-18-16-18-44 0-60l182-184h-836c-22 0-42-18-42-42s20-42 42-42h836l-182-184c-18-16-18-44 0-60 16-16 44-16 60 0l256 256 8 14 4 16z" />
<glyph unicode="&#xe91e;" glyph-name="arrow-right" d="M804 520l-410 412c-38 38-100 38-138 0l-34-34c-38-38-38-100 0-138l314-314-314-314c-38-38-38-98 0-136l34-34c38-38 100-38 138 0l410 410c22 20 30 48 28 74 2 28-6 54-28 74z" />
<glyph unicode="&#xe91f;" glyph-name="arrow-thin-down" d="M1026 678l-70 66-444-456-444 456-68-66 512-528z" />
<glyph unicode="&#xe920;" glyph-name="arrow-thin-left" d="M744-66l66 70-458 444 458 444-66 68-528-512z" />
<glyph unicode="&#xe921;" glyph-name="arrow-thin-right" d="M282 960l-66-68 456-444-456-444 66-68 526 512z" />
<glyph unicode="&#xe922;" glyph-name="arrow-thin-top" d="M0 216l68-66 444 458 444-458 70 66-514 528z" />
<glyph unicode="&#xe923;" glyph-name="arrow-up" d="M998 326l-410 412c-20 20-48 30-74 28-28 2-54-8-74-28l-412-412c-38-36-38-98 0-136l34-34c38-38 100-38 138 0l314 314 314-314c36-38 98-38 136 0l34 34c38 38 38 100 0 136z" />
<glyph unicode="&#xe924;" glyph-name="autostrada" d="M758 594c-26 114-50 228-76 344-44 0-86 0-130 0 8-116 14-230 20-344zM582 410c8-150 16-300 24-452 98 0 196 0 292 0-32 152-66 302-100 452zM472 938c-44 0-86 0-130 0-26-116-50-230-76-344h186c6 114 12 228 20 344zM126-42c96 0 194 0 292 0 8 152 16 302 24 452h-216c-34-150-68-300-100-452zM1012 546h-1000c-6 0-12-6-12-12v-64c0-6 6-12 12-12h64v-96c0-6 6-12 12-12h64c6 0 10 4 12 8l24 100h648l24-100c2-4 6-8 12-8h64c6 0 12 6 12 12v96h64c6 0 12 6 12 12v64c0 6-6 12-12 12z" />
<glyph unicode="&#xe925;" glyph-name="bike" d="M856 494c-14 0-28 0-40-4l-108 236c-6 12-18 20-32 20h-68c-20 0-34-16-34-36 0-18 14-34 34-34h44l30-66h-300l-20 44h18c20 0 36 16 36 36 0 18-16 34-36 34h-130c-20 0-36-16-36-34 0-20 16-36 36-36h36l34-74-68-100c-22 10-46 14-72 14-98 0-180-80-180-178s82-178 180-178c88 0 162 62 178 144h30c18-44 64-70 110-60 52 12 86 62 76 114-2 6-4 14-8 20l160 160 24-54c-46-34-74-86-74-146 0-98 80-178 180-178s180 80 180 178c0 98-80 178-180 178zM408 382c-8-8-14-18-20-30h-30c-6 34-24 64-48 90l44 62zM268 382c8-10 12-20 16-30h-36zM180 208c-60 0-110 48-110 108s50 108 110 108c10 0 20 0 30-4l-58-84c-8-10-8-24-2-36s18-18 30-18h104c-14-44-54-74-104-74zM516 404c-14 6-28 8-42 8l-60 128h236zM856 208c-60 0-110 48-110 108 0 32 14 60 34 80l44-94c6-14 18-20 32-20 4 0 10 0 14 2 18 8 26 28 18 46l-42 94c4 0 6 0 10 0 60 0 110-48 110-108s-50-108-110-108z" />
<glyph unicode="&#xe926;" glyph-name="biura" d="M258 626h90c8 0 14 6 14 16 0 6-6 14-14 14h-90c-8 0-14-6-14-14 0-10 6-16 14-16zM438 366c6 0 14 6 14 14v90c0 8-6 14-14 14s-16-6-16-14v-90c0-8 8-14 16-14zM984 734h-944c-8 0-14-6-14-14s6-14 14-14h48v-530c0-8 6-14 14-14h404c8 0 14 6 14 14v380h376v28h-376v122h376v-530c0-8 6-14 14-14s14 6 14 14v530h60c8 0 14 6 14 14s-6 14-14 14zM492 190h-376v366h376zM492 584h-376v122h376z" />
<glyph unicode="&#xe927;" glyph-name="blaty-kuchenne" d="M798 934h-572c-10 0-18-8-18-18v-934c0-12 8-20 18-20h570c12 0 20 8 20 20v934c0 10-8 18-18 18zM578 896c0 0 0 0 0 0 2-24-4-46-10-66-2-8-4-16-6-24-4-14-8-28-12-40-4-22-6-46-4-68 0-26 6-48 14-66 2-6 4-10 8-16 6-14 14-28 16-44 0-6 0-12-2-20 0-2 0-6 0-10 0-10 0-22 2-36 0-8 0-14 2-22 0-14 2-26 2-40 0-4 0-10 0-14-2-14-2-30 2-46 2-12 8-20 16-30-18 10-40 14-62 8-36-8-56-32-70-50-16-24-24-50-32-74-2-8-4-12-6-18-4-16-10-34-20-52-8-12-16-24-24-36-4-6-8-10-12-16-28-40-46-74-54-106-2-2-2-6-2-10h-52c4 14 10 30 18 44 8 10 14 22 22 34 6 10 12 20 18 30 4 8 10 16 16 26 8 10 18 24 24 36 10 18 18 36 24 54 10 26 18 48 34 70 14 18 30 36 48 52l4 4c16 16 34 34 38 56 6 32-4 62-16 92-2 10-6 20-10 30-4 14-4 28-4 42 0 8 0 16 0 24-2 18-14 34-26 48-4 2-6 6-8 8-16 20-28 42-36 60-4 12-8 24-12 34s-8 20-12 30c-8 22-6 46-2 66 2 12 4 26 6 40 2 4 2 10 2 16zM382 454c-4 12-6 24-10 34l-2 8c-4 20-8 38-16 58-8 18-16 38-18 60-2 14-2 30-4 46v12c-2 22-6 42-12 62s-4 40 4 62c2 4 4 8 6 14 6 14 12 28 14 44 4 14 2 30 0 44h40c-4-20-8-42-10-60l-2-8c-2-22 0-44 8-68 2-6 6-12 8-18 2-4 4-8 6-12s4-12 6-18c2-4 4-10 6-14 6-18 18-38 36-60 2-2 6-6 8-10 6-6 12-12 14-18 6-8 6-18 6-28 0-4 0-8 0-12 0-6 0-12 0-20 0-12 4-24 8-34 2-8 6-16 8-24 6-12 10-26 12-38 6-22 6-42-2-58-6-14-20-28-36-42-4-4-8-8-14-14-20-20-34-38-44-56-8-16-16-34-22-50-2-4-4-8-6-14-6-18-16-40-30-60-16-24-30-44-40-64-4-6-10-14-14-20-6-10-12-22-18-32 2 14 8 28 10 42 12 42 30 84 56 136 6 8 10 20 16 28 6 14 14 26 20 38 10 20 22 42 24 66 4 32-6 66-16 98zM324 896c2-18 4-38-2-58-4-8-6-16-10-24-6-14-10-26-14-38-4-22 2-40 8-60l2-8c4-18 4-34 6-50 0-6 0-12 0-16 0-20 2-42 10-64 2-8 6-14 8-20 2-4 2-8 4-12 4-12 8-24 12-36l2-12c6-18 10-38 16-58 6-18 12-42 14-66 0-24-10-48-20-66-8-18-16-36-26-52-14-26-30-54-42-82-20-44-32-90-44-138 0-4-2-8-2-12v872zM428 0c0 10 4 22 14 36l2 2-4 8c2 10 6 22 12 32 8 18 18 32 30 44 14 14 28 22 42 24 8 2 16 0 22-4s10-12 12-18c2-10 0-22-4-34v-6c-4-12-4-24-2-36h-2v-6c0-6 2-12 2-18 2-8 4-16 2-24h-24c2 12 2 22 0 34-2 8-10 22-22 26-4 2-14 4-24-2-12-6-18-18-22-26-2-6-8-14-6-24 0-2-2-4 0-8zM512 0h-40c0 2 0 4 0 8 0 0 0 2 0 2 0 2 0 2 0 4 2 2 2 4 2 6 2 2 2 2 2 2 4 8 8 16 16 22 4 2 6 4 8 2 4 0 6-2 8-6 6-6 6-14 6-24 0-6 0-12-2-16zM576 0c0 8-2 18-4 26 0 2 0 4 0 6-2 12-4 20-4 30s2 18 4 26c0 6 2 10 2 16 2 14 0 34-12 46-8 10-22 14-40 12s-34-14-44-20c-14-10-24-22-34-38-10-18-16-38-24-56l-2-12c-4-8-6-18-8-28 0 0-2 0-2 0 0-2 0-6 0-8h-18c0 4 2 6 2 8 2 4 4 10 6 14 4 12 8 22 12 32 2 6 4 10 4 16 6 14 16 28 24 44l4 8c6 8 10 16 14 24 10 18 20 38 34 56 14 20 36 42 72 48 48 4 62-28 66-38 8-20 6-40 4-60-2-8-2-16-2-22-2-22 0-40 2-60s2-38 0-54c0-6-2-10-2-16zM648 0c4 24 4 48 2 72-2 10-2 22-2 34 0 18 2 36 2 58 2 12 2 24 0 36-4 28-18 48-42 58-28 12-64 6-86-6-28-14-44-38-56-56s-20-34-30-50c-4-8-8-18-14-26v-2c-10-16-20-32-26-50l-2-6c-2-8-4-14-8-22l-2-8c-2-2-2-4-4-6 0-2 0-4-2-4l-2-6h2c-2-6-4-12-6-18h-28c0 8 2 14 4 20 12 38 36 74 60 104 10 16 22 32 32 50 8 18 14 36 20 54l2 8c8 26 16 54 36 76 16 20 42 42 78 36s52-28 62-48v0l2-6c2-2 2-4 2-6 0-4 0-6 0-10 2-8 6-16 8-22 4-8 8-14 12-22 2-4 4-10 6-14-2-8 2-14 4-18 2-6 6-16 14-22 0 0 0 0 2 0 2-4 4-8 6-14 0-4 2-10 6-16 0 0 2-2 2-4l6-18c0-4 2-6 2-10 0 0 0-2 2-2 0-2 0-4 0-6 2-28-4-58-12-86-2-8-4-16-6-24zM710 0c8 22 14 46 18 70 2 18 2 32 0 48 0 4-2 8-2 12 0 0 0 2-2 2 0 2 0 4 0 6-2 2-2 6-4 8 0 6-2 10-2 14l-2 2c-2 6-4 10-6 16 0 2 0 4-2 6-2 10-10 22-16 32l-2 6c-6 8-10 18-16 26 0 2 0 6-2 6l-2 8c-6 22-12 44-28 64 6-4 14-10 18-16 8-8 12-18 16-28v-4c4-8 8-16 12-26 6-10 12-20 20-28 14-20 28-40 34-62 8-18 10-40 10-66 0-12 0-24-2-36 0-10 0-20-2-30 0-10 0-20-2-30zM778 0h-12c2 10 2 20 2 30 2 10 2 18 2 28 2 34 4 70-8 104-6 24-20 44-34 64-14 18-26 38-34 56-4 16-14 36-36 54-4 2-6 4-10 6-18 14-34 26-40 40-4 16-2 32-2 48 0 4 0 8 0 14 2 14 0 28-2 42 0 8-2 14-2 22 0 10 0 20 0 32 0 10 2 22 0 32 0 20-10 36-18 54l-4 6c-18 38-22 82-10 132 2 14 6 26 10 38 8 30 16 62 16 94h60c0-2-2-6-2-8-2-24 0-46 6-66 6-24 14-48 24-70 6-10 12-22 18-34 6-8 10-16 14-24 8-18 10-36 6-60-4-16-12-30-20-46-2-6-6-10-8-16-20-44-32-88-34-128s10-82 34-124c12-18 24-38 40-56 12-16 22-30 30-44l10-18v38c-8 10-14 20-22 28-14 18-28 38-40 60-24 40-34 80-32 120 2 38 14 80 36 124l4 10c8 16 16 32 20 50 6 24 4 44-4 62-4 12-10 22-16 32-4 8-10 16-14 26-12 26-20 46-26 66-6 22-8 42-8 66l2 10c0 0 0 0 0 2h104z" />
<glyph unicode="&#xe928;" glyph-name="bookmark" d="M1020 574c-8 26-32 44-58 48l-268 40-116 240c-12 26-38 42-66 42s-54-16-66-42l-116-240-268-40c-26-4-50-22-58-48s-2-54 18-72l194-196-44-270c-6-28 6-54 30-70 12-10 28-14 42-14 12 0 24 4 36 8l232 126 232-126c12-4 24-8 36-8 16 0 30 4 42 14 24 16 36 42 32 70l-46 270 196 196c18 18 24 46 16 72zM754 356c-16-16-22-38-20-62l46-270-232 126c-12 6-24 8-36 8s-24-2-36-8l-232-126 46 270c4 24-4 46-20 62l-196 196 266 40c24 2 46 18 56 40l116 240 116-240c10-22 32-38 56-42l266-38z" />
<glyph unicode="&#xe929;" glyph-name="bookmarked" d="M480 914c6 14 20 22 36 22s30-8 36-22l128-260c6-12 18-20 30-22l288-42c14-2 28-12 32-26 4-16 0-32-10-42l-208-202c-10-10-14-22-12-36l50-286c2-14-4-30-16-38-12-10-30-12-42-4l-258 136c-12 6-26 6-36 0l-258-136c-14-8-30-6-42 4-12 8-18 24-16 38l50 286c2 14-2 26-12 36l-208 202c-10 10-14 26-10 42 4 14 18 24 32 26l288 42c12 2 24 10 30 22z" />
<glyph unicode="&#xe92a;" glyph-name="bubble" d="M512 892c-282 0-512-180-512-402 0-106 52-202 136-274-4-70-18-164-70-212 98 0 198 64 258 112 58-20 122-28 188-28 282 0 512 180 512 402s-230 402-512 402z" />
<glyph unicode="&#xe92b;" glyph-name="bus" d="M996 806h-74v84c0 24-18 42-42 42h-724c-22 0-42-18-42-42v-84h-72c-24 0-42-18-42-40v-136c0-22 18-40 42-40 22 0 40 18 40 40v94h32v-628c0-22 20-40 42-40h8v-64c0-22 20-40 42-40h86c22 0 40 18 40 40v64h372v-64c0-22 18-40 42-40h84c24 0 42 18 42 40v64h8c24 0 42 18 42 40v628h32v-94c0-22 18-40 42-40 22 0 40 18 40 40v136c0 22-18 40-40 40zM284 132c-40 0-72 30-72 70 0 38 32 70 72 70s72-32 72-70c0-40-32-70-72-70zM752 132c-40 0-72 30-72 70 0 38 32 70 72 70s72-32 72-70c0-40-32-70-72-70zM840 766v-360h-642v444h642z" />
<glyph unicode="&#xe92c;" glyph-name="car" d="M990 556h-2l-106 240c-8 18-24 28-42 28h-642c-20 0-36-10-44-28l-106-240h-2c-26 0-46-22-46-46v-276c0-24 20-44 46-44h18v-86c0-24 20-44 46-44h112c26 0 46 20 46 44v86h500v-86c0-24 22-44 46-44h112c26 0 46 20 46 44v86h18c26 0 46 20 46 44v276c0 24-20 46-46 46zM228 732h580l78-176h-736zM200 284c-50 0-90 40-90 88 0 50 40 90 90 90s92-40 92-90c0-48-42-88-92-88zM834 284c-50 0-90 40-90 88 0 50 40 90 90 90s92-40 92-90c0-48-42-88-92-88z" />
<glyph unicode="&#xe92d;" glyph-name="cart" d="M308 140c-58 0-104-46-104-102s46-102 104-102c56 0 102 46 102 102s-46 102-102 102zM0 960v-102h102l184-390-70-122c-6-16-12-36-12-52 0-56 46-102 104-102h614v102h-594c-6 0-10 6-10 10v6l46 86h378c42 0 72 22 88 52l184 332c10 12 10 16 10 26 0 32-20 52-52 52h-756l-48 102zM820 140c-58 0-104-46-104-102s46-102 104-102c56 0 102 46 102 102s-46 102-102 102z" />
<glyph unicode="&#xe92e;" glyph-name="centra-sportowe" d="M996 490c0 0 0 0 0 0-10 114-58 220-140 302-92 92-214 142-344 142-4 0-10 0-14 0 0 0 0 0 0 0-124-4-242-54-330-142s-138-204-142-330c0 0 0 0 0 0 0-4 0-10 0-14 0-130 50-252 142-344s214-142 344-142c130 0 252 50 344 142s142 214 142 344c0 14 0 28-2 42zM774 808c20-12 38-28 54-44 50-50 86-112 108-178-90 104-198 96-288 88-62-4-118-10-160 22 118 102 226 148 286 112zM510 894c0 0 2 0 2 0 62 0 122-12 178-36-72-14-156-68-232-136-26 36-14 66 52 172zM460 892c-54-90-76-140-30-196-20-18-38-38-56-56-4-4-8-10-12-14l-152 152c70 64 158 102 250 114zM182 750l154-154c-22-26-44-54-64-82-56 32-122 26-204-16 10 94 50 180 114 252zM140 200c-48 72-74 158-74 248 0 0 0 2 0 2 90 54 146 52 184 32-64-100-108-202-110-282zM198 132c-44 64 0 196 84 324 2 0 2 0 2-2 46-46 48-100 52-164 4-92 8-196 144-288-106 8-206 54-282 130zM556 4c-172 90-176 190-180 288-4 66-6 134-62 190-4 4-6 6-8 8 18 26 38 52 58 78l450-450c-72-64-162-104-258-114zM842 146l-452 452c4 6 10 10 14 14 18 20 36 38 54 56 56-46 126-40 194-34 106 10 216 18 304-152 2-10 2-22 2-34 0-112-42-218-116-302z" />
<glyph unicode="&#xe92f;" glyph-name="centrum-medyczne" d="M512 746c-34 0-68-34-92-58l-304-304v-350c0-38 32-68 70-68h652c38 0 70 30 70 68v350l-304 304c-24 24-58 58-92 58zM724 232h-140v-140h-144v140h-140v142h140v140h144v-140h140c0 0 0-142 0-142zM1008 526l-346 344c-80 80-220 80-300 0l-346-344c-22-22-22-58 0-80s58-22 80 0l344 344c38 38 106 38 144 0l344-344c10-12 24-16 40-16 14 0 28 4 40 16 22 22 22 58 0 80z" />
<glyph unicode="&#xe930;" glyph-name="centrum-miasta" d="M938 862h-214c-12 0-20-10-20-20v-376h-140v474c0 10-10 20-20 20h-124c-10 0-20-10-20-20v-286h-46v112c0 12-8 20-20 20-10 0-20-8-20-20v-112h-22c-12 0-20-10-20-22v-98h-104v76c0 10-10 20-22 20-10 0-20-10-20-20v-76h-40c-12 0-20-10-20-20v-558c0-10 8-20 20-20h852c12 0 20 10 20 20v886c0 10-8 20-20 20zM272-24h-166v516h166zM522-24h-210v636h210zM522 654h-82v266h82zM704-24h-140v450h140zM918-24h-174v846h174zM372 562c-10 0-20-10-20-20v-28c0-10 10-20 20-20 12 0 20 10 20 20v28c0 10-8 20-20 20zM460 562c-12 0-20-10-20-20v-28c0-10 8-20 20-20 10 0 20 10 20 20v28c0 10-10 20-20 20zM482 748c-12 0-22-8-22-20v-26c0-12 10-20 22-20 10 0 20 8 20 20v26c0 12-10 20-20 20zM482 856c-12 0-22-10-22-20v-28c0-12 10-20 22-20 10 0 20 8 20 20v28c0 10-10 20-20 20zM372 444c-10 0-20-10-20-22v-26c0-12 10-20 20-20 12 0 20 8 20 20v26c0 12-8 22-20 22zM460 444c-12 0-20-10-20-22v-26c0-12 8-20 20-20 10 0 20 8 20 20v26c0 12-10 22-20 22zM372 332c-10 0-20-8-20-20v-26c0-12 10-22 20-22 12 0 20 10 20 22v26c0 12-8 20-20 20zM460 332c-12 0-20-8-20-20v-26c0-12 8-22 20-22 10 0 20 10 20 22v26c0 12-10 20-20 20zM372 214c-10 0-20-10-20-20v-28c0-10 10-20 20-20 12 0 20 10 20 20v28c0 10-8 20-20 20zM460 214c-12 0-20-10-20-20v-28c0-10 8-20 20-20 10 0 20 10 20 20v28c0 10-10 20-20 20zM372 96c-10 0-20-10-20-22v-26c0-12 10-20 20-20 12 0 20 8 20 20v26c0 12-8 22-20 22zM460 96c-12 0-20-10-20-22v-26c0-12 8-20 20-20 10 0 20 8 20 20v26c0 12-10 22-20 22zM796 562c-10 0-20-10-20-20v-28c0-10 10-20 20-20 12 0 22 10 22 20v28c0 10-10 20-22 20zM872 562c-10 0-20-10-20-20v-28c0-10 10-20 20-20 12 0 22 10 22 20v28c0 10-10 20-22 20zM796 444c-10 0-20-10-20-22v-26c0-12 10-20 20-20 12 0 22 8 22 20v26c0 12-10 22-22 22zM872 444c-10 0-20-10-20-22v-26c0-12 10-20 20-20 12 0 22 8 22 20v26c0 12-10 22-22 22zM796 332c-10 0-20-8-20-20v-26c0-12 10-22 20-22 12 0 22 10 22 22v26c0 12-10 20-22 20zM872 332c-10 0-20-8-20-20v-26c0-12 10-22 20-22 12 0 22 10 22 22v26c0 12-10 20-22 20zM796 788c-10 0-20-8-20-20v-26c0-12 10-22 20-22 12 0 22 10 22 22v26c0 12-10 20-22 20zM872 788c-10 0-20-8-20-20v-26c0-12 10-22 20-22 12 0 22 10 22 22v26c0 12-10 20-22 20zM796 678c-10 0-20-8-20-20v-28c0-10 10-20 20-20 12 0 22 10 22 20v28c0 12-10 20-22 20zM872 678c-10 0-20-8-20-20v-28c0-10 10-20 20-20 12 0 22 10 22 20v28c0 12-10 20-22 20zM796 214c-10 0-20-10-20-20v-28c0-10 10-20 20-20 12 0 22 10 22 20v28c0 10-10 20-22 20zM872 214c-10 0-20-10-20-20v-28c0-10 10-20 20-20 12 0 22 10 22 20v28c0 10-10 20-22 20zM796 96c-10 0-20-10-20-22v-26c0-12 10-20 20-20 12 0 22 8 22 20v26c0 12-10 22-22 22zM872 96c-10 0-20-10-20-22v-26c0-12 10-20 20-20 12 0 22 8 22 20v26c0 12-10 22-22 22zM226 454h-74c-10 0-20-10-20-22 0-10 10-20 20-20h74c12 0 22 10 22 20 0 12-10 22-22 22zM226 374h-74c-10 0-20-8-20-20s10-20 20-20h74c12 0 22 8 22 20s-10 20-22 20zM226 292h-74c-10 0-20-8-20-20s10-20 20-20h74c12 0 22 8 22 20s-10 20-22 20zM226 214h-74c-10 0-20-10-20-20 0-12 10-22 20-22h74c12 0 22 10 22 22 0 10-10 20-22 20zM226 132h-74c-10 0-20-10-20-20 0-12 10-20 20-20h74c12 0 22 8 22 20 0 10-10 20-22 20zM226 52h-74c-10 0-20-8-20-20 0-10 10-20 20-20h74c12 0 22 10 22 20 0 12-10 20-22 20zM658 396h-52c-12 0-22-8-22-20s10-20 22-20h52c10 0 20 8 20 20s-10 20-20 20zM658 300h-52c-12 0-22-8-22-20 0-10 10-20 22-20h52c10 0 20 10 20 20 0 12-10 20-20 20zM658 204h-52c-12 0-22-10-22-22 0-10 10-20 22-20h52c10 0 20 10 20 20 0 12-10 22-20 22zM658 102h-52c-12 0-22-8-22-20 0-10 10-20 22-20h52c10 0 20 10 20 20 0 12-10 20-20 20zM334 872c-10 0-20-8-20-20v-24c0-12 10-20 20-20 12 0 20 8 20 20v24c0 12-8 20-20 20z" />
<glyph unicode="&#xe931;" glyph-name="check" d="M326 222l-244 244-82-82 326-326 698 698-82 82z" />
<glyph unicode="&#xe932;" glyph-name="cieplo-z-powietrza" d="M1000 422h-172c-14 0-24-10-24-24s10-24 24-24h172c14 0 24 10 24 24s-10 24-24 24zM704 182h-172c-14 0-24-12-24-24 0-14 10-26 24-26h172c14 0 24 12 24 26 0 12-10 24-24 24zM612 670h-172c-14 0-24-10-24-24 0-12 10-24 24-24h172c14 0 24 12 24 24 0 14-10 24-24 24zM256 452h-232c-14 0-24-12-24-24 0-14 10-26 24-26h232c86 0 156-70 156-156 0-66-54-118-120-118-50 0-90 40-90 90 0 38 30 68 66 68 14 0 26 10 26 24s-12 24-26 24c-64 0-116-52-116-116 0-78 62-140 140-140 92 0 168 76 168 168 0 114-92 206-204 206zM218 818c-64 0-116-52-116-116 0-14 12-24 24-24 14 0 26 10 26 24 0 36 30 66 66 66 50 0 90-40 90-90 0-64-52-118-118-118h-166c-14 0-24-12-24-24 0-14 10-26 24-26h166c92 0 168 76 168 168 0 78-62 140-140 140zM100 344h-76c-14 0-24-12-24-26 0-12 10-24 24-24h76c14 0 24 12 24 24 0 14-10 26-24 26zM980 784c-2 10-8 16-18 20-66 16-136-2-184-50s-66-118-48-184c2-10 8-16 18-18 66-18 136 0 184 48s66 120 48 184zM894 638c-22-22-50-36-80-40l56 58c10 10 10 26 0 36-10 12-26 12-36 0l-58-56c4 30 18 58 40 80 30 32 74 46 118 40 6-44-8-88-40-118zM690 472c-48 48-118 68-184 50-8-2-16-10-18-18-18-66 2-136 50-184s118-68 182-50c10 2 18 10 20 18 16 66-2 136-50 184zM692 318c-42-6-86 8-118 38-22 22-36 52-40 82l58-58c10-10 28-10 38 0s10 26 0 38l-58 56c30-4 60-16 82-38 30-32 44-76 38-118z" />
<glyph unicode="&#xe933;" glyph-name="close" d="M1024 900l-60 58-452-450-452 450-60-58 452-452-452-452 60-58 452 450 452-450 60 58-452 452z" />
<glyph unicode="&#xe934;" glyph-name="cp" d="M148 474c60-60 60-118 0-176 60 58 118 58 176 0-58 58-58 116 0 176-58-60-116-60-176 0zM734 676c-58 58-58 118 0 176-58-58-116-58-174 0 58-58 58-118 0-176 58 58 116 58 174 0zM900 578c-30 30-30 58 0 88-30-30-58-30-88 0 30-30 30-58 0-88 30 30 58 30 88 0zM0 960v-1026h1026v1026zM520 922l-114-114c-98-72-198-56-298 44 100-100 116-200 44-298l-114-114v482zM46-28l110 112c20 8 44 4 64-18-20 20-26 42-18 62l236 236c0 6 0 12 2 16l-246-244c-22-8-44-2-64 18 20-20 26-42 18-62l-110-112v446l118 118c102 72 202 58 302-42-100 100-114 200-42 302l118 118h446l-366-366c4 0 8 0 12 0 2 0 2 0 4 0l358 358v-942zM406 84c-2 2-4 4-6 4-2 2-4 2-8 2-2 0-6 2-8 2s-4 2-6 2c-2 2-4 2-4 4-2 2-2 4-2 6s0 4 2 6c0 2 2 4 4 4 2 2 4 2 4 2 2 0 4 2 6 2s6 0 8-2c2 0 4-2 4-2 2 0 2-2 4-2l2-2h2c0 0 0 0 2 2l2 6c-2 2-6 6-10 6-4 2-8 2-14 2-4 0-8 0-12-2s-6-4-8-6c-2-2-4-4-6-8-2-2-2-6-2-8 0-4 0-6 2-10 2-2 2-4 4-6s4-4 6-4c2-2 4-2 8-2 2 0 6-2 8-2s4-2 6-2c2-2 4-2 4-4 2-2 2-4 2-6s0-4-2-6c0-4-2-6-4-6-2-2-4-2-6-4-2 0-4-2-8-2-2 0-4 0-6 0s-4 0-4 2c-2 0-2 2-4 2s-2 2-2 2l-2 4h-4c0 0 0 0-2-4l-4-6c4-4 8-6 12-8s10-2 16-2c4 0 8 0 12 2s6 4 10 6c2 2 4 6 6 8 2 6 2 8 2 12s0 6-2 10c0 4-2 6-2 8zM476 126l-22-36c0-2-2-2-2-4s-2-2-2-4c0 2 0 2-2 4 0 2-2 2-2 4l-20 34c0 0 0 2-2 2h-12l32-52v-36h12v36l32 52h-10c0 2 0 2-2 0zM562 66v-2c0-2 0-2 0-4l-52 64c0 0 0 0-2 0h-6v-88h10v68l52-66 2-2h8v88h-10v-58zM654 60c0 0-2 0 0 0-4-4-4-6-6-6s-4-2-4-2c-2 0-4-2-6-2s-4 0-6 0-8 0-12 2c-4 2-6 4-10 8-2 2-4 6-6 10s-2 8-2 14c0 6 0 10 2 14s4 8 6 10c2 2 6 6 10 6 4 2 8 2 12 2s6 0 10-2c2 0 4-2 6-2s4-2 4-2c2 0 2-2 2-2h2l4 6c-4 4-8 6-12 8s-10 2-16 2c-6 0-12-2-18-4s-10-6-14-8c-4-4-6-8-8-14s-4-12-4-18c0-6 0-12 2-18 2-8 4-12 8-16s8-6 12-10c6-2 10-4 16-4 8 0 14 2 18 4s10 6 12 10l-2 14c2 0 2 0 0 0zM732 90h-46v38h-12v-88h12v40h46v-40h12v88h-12zM800 80c4 0 6 2 8 4s4 4 6 6c2 2 4 4 4 8 0 2 2 6 2 8 0 4 0 6-2 10-2 2-4 6-6 8s-6 4-10 4c-4 2-8 2-14 2h-24v-88h12v38h8c2 0 2 0 4 0l2-2 22-32c2-2 2-2 4-2h10l-26 36c2-2 2-2 0 0zM790 86h-12v32h12c6 0 12-2 16-4s4-6 4-12c0-2 0-4-2-6 0-2-2-4-4-6s-4-2-6-4c-2 0-6 0-8 0zM910 116c-4 4-10 6-16 10-6 2-10 4-18 4-6 0-12-2-18-4s-10-6-14-10c-4-4-6-8-8-14s-4-12-4-18c0-6 2-12 4-18s4-12 8-16c4-4 8-6 14-10 6-2 12-4 18-4s12 2 18 4c6 2 12 6 16 10s6 10 8 16c2 6 4 12 4 18s-2 12-4 18c-2 6-6 10-8 14zM906 70c-4-4-6-8-8-10s-6-8-8-8c-4-2-8-2-12-2s-8 0-12 2c-4 2-6 4-10 8-2 2-4 6-6 10s-2 8-2 14c0 6 0 10 2 14s4 8 6 10c2 2 6 6 10 6 4 2 8 2 12 2s8 0 12-2c4-2 6-4 10-6 2-2 6-6 8-10s2-8 2-14c-2-4-2-10-4-14zM810 332c18 0 34 2 48 8s26 12 34 22c10 8 18 20 22 32s6 28 6 42c0 10-2 20-6 30s-8 16-18 24c-8 6-16 12-28 16-10 4-24 6-40 6h-82l-30-276h48l12 96zM792 472h34c8 0 14-2 20-2 6-2 10-4 14-8s6-8 8-14c2-6 2-10 2-16 0-8-2-18-4-26s-6-14-10-18c-4-6-10-10-18-12s-16-4-24-4h-34zM684 276l-18 22-2 2c-2 0-2 0-4 0s-4 0-6-2c-2-2-4-2-6-4s-4-4-8-6c-2-2-6-4-10-6s-10-4-14-4c-6-2-12-2-20-2-10 0-18 2-26 6s-14 10-20 16c-6 6-12 16-16 26s-4 22-4 34c0 18 2 34 6 46 4 14 14 28 22 38s18 18 30 22c12 6 24 8 36 8 10 0 18-2 24-4s10-4 14-8c4-2 6-6 10-8 2-2 6-4 8-4s4 0 6 2c2 2 4 2 4 4l16 20c-4 6-8 10-14 16-6 4-12 8-18 12s-14 6-22 8c-8 2-18 2-28 2-14 0-26-2-38-6s-24-8-34-16c-12-6-22-14-32-24s-16-20-22-32c-6-12-12-26-14-40-4-14-6-28-6-44s2-32 6-48c4-14 12-26 20-38 8-10 20-18 32-24 14-6 30-8 46-8 20 0 38 4 54 10 22 10 36 20 48 34z" />
<glyph unicode="&#xe935;" glyph-name="delete" d="M220-16c2-28 24-50 52-50h482c28 0 50 22 50 50l36 726h-654zM622 530c0 12 8 20 20 20h34c12 0 22-8 22-20v-414c0-12-10-22-22-22h-34c-12 0-20 10-20 22zM474 530c0 12 10 20 22 20h34c10 0 20-8 20-20v-414c0-12-10-22-20-22h-34c-12 0-22 10-22 22zM328 530c0 12 10 20 22 20h32c12 0 22-8 22-20v-414c0-12-10-22-22-22h-32c-12 0-22 10-22 22zM862 908h-222v42c0 6-4 10-10 10h-234c-6 0-10-4-10-10v-42h-224c-16 0-32-16-32-34v-100h764v100c0 18-14 34-32 34z" />
<glyph unicode="&#xe936;" glyph-name="dopasowanie" d="M512-66c-282 0-512 230-512 514 0 282 230 512 512 512 284 0 514-230 514-512 0-284-230-514-514-514zM512 892c-244 0-444-200-444-444 0-246 200-446 444-446 246 0 446 200 446 446 0 244-200 444-446 444zM746 568l-288-288c0 0 0 0 0 0-6-8-16-10-24-10s-18 2-24 10l-130 130c-14 14-14 34 0 48 12 12 34 12 48 0l106-108 264 266c14 12 34 12 48 0 14-14 14-36 0-48z" />
<glyph unicode="&#xe937;" glyph-name="download" d="M994 460c-16 0-28-14-28-30v-266c0-72-60-132-132-132h-644c-72 0-132 60-132 132v270c0 18-12 30-28 30s-30-12-30-30v-270c0-106 86-190 190-190h644c104 0 190 84 190 190v266c0 16-14 30-30 30zM492 206c6-6 12-8 20-8s14 2 20 8l188 186c10 12 10 30 0 42-12 12-30 12-42 0l-136-136v596c0 16-14 28-30 28s-30-12-30-28v-596l-136 136c-12 12-30 12-42 0-10-12-10-30 0-42z" />
<glyph unicode="&#xe938;" glyph-name="drzw-kuchenne" d="M830 934h-636c-30 0-56-24-56-56v-860c0-30 24-56 56-56h636c30 0 56 24 56 56v860c0 32-24 56-56 56zM494-2h-300c-10 0-18 10-18 20v860c0 10 8 20 18 20h300v-900zM848 18c0-10-8-20-18-20h-300v900h300c10 0 18-10 18-20zM602 480c-18 0-34-14-34-32s16-32 34-32c18 0 32 14 32 32s-14 32-32 32zM422 480c-18 0-32-14-32-32s14-32 32-32c18 0 32 14 32 32s-14 32-32 32z" />
<glyph unicode="&#xe939;" glyph-name="dustbin" d="M512 678c-20 0-36-18-36-38v-498c0-20 16-36 36-36s38 16 38 36v498c0 20-18 38-38 38zM862 848h-180v76c0 20-16 36-36 36h-268c-20 0-36-16-36-36v-76h-180c-20 0-36-18-36-38s16-36 36-36h34v-802c0-20 16-36 36-36h560c20 0 38 16 38 36v802h32c20 0 38 16 38 36s-18 38-38 38zM416 886h194v-38h-194zM756 10h-488v764h488z" />
<glyph unicode="&#xe93a;" glyph-name="eco" d="M196 442l-136 4-2-92 128-2v-46l-128 2-2-106 136-2v-48l-192 4 6 336 192-2zM490 422c-12 6-24 10-36 14s-26 6-40 8c-32 0-58-10-76-34-18-22-28-52-28-92-2-40 6-72 24-94 16-20 42-32 76-32 14 0 28 0 40 2 14 4 28 6 44 12l-2-48c-26-10-56-14-90-14-50 2-88 18-114 48s-38 72-38 128c2 36 8 66 22 92s32 46 56 60c26 12 54 20 86 18 36 0 68-8 96-22zM1034 724c0-4-2-12-4-18s-4-14-8-22c-2-8-6-18-8-26-4-8-6-18-10-28-4-8-8-18-14-26-8-18-20-34-32-50-6-8-14-16-22-22-6-8-16-14-24-22-8-6-16-12-26-18-8-6-18-10-26-14-10-6-18-10-28-12-4-4-10-6-16-6h-12c10-6 18-14 26-22 20-24 34-58 36-98v0c2-10 2-20 2-30 0 0 0 0 0 0 0-2 0-2 0-2 0-56-16-98-44-126-28-30-66-44-118-44-2 0-6 2-8 2 0 0 0 0 0 0-46 2-82 18-108 46-22 24-34 58-38 98v0c0 10 0 20 0 30 0 0 0 0 0 2 0 0 0 0 0 0 0 56 14 98 42 128 28 28 68 42 120 42 2 0 6-2 8-2 0 0 0 0 0 0 20 0 38-4 56-12-2 8-6 16-6 26-2 8-4 20-4 30 0 22 4 46 12 70 4 14 10 26 16 36 6 12 14 24 22 34 10 10 20 20 30 30 10 8 22 16 34 22s24 12 36 16c14 4 26 6 36 8 12 0 24 0 34 0s18-4 26-6c8-2 14-4 16-6 4-2 6-2 6-2s0-2-2-6zM712 438c-16 0-30-2-42-6-12-6-24-14-32-24-4-4-8-10-10-16-2-2-2-4-4-6s-2-6-4-10c-2-6-4-14-6-24 0 0 0 0 0 0-2-12-4-24-4-38 0-42 8-72 24-94s40-34 74-34c16 0 28 2 40 6 14 6 26 14 34 24 4 6 8 10 10 16 2 2 2 4 4 6 0 2 2 6 4 10 2 8 4 16 6 24v0c2 12 4 24 4 38 0 42-8 74-24 94-16 22-42 34-74 34zM910 636c-4-2-6-4-10-8-4-2-8-6-14-10-4-4-8-8-14-12-4-6-10-12-14-16-10-12-20-24-28-38-18-26-34-54-44-76 0-2-2-4-2-6 6-2 10-4 16-8 0 2 0 4 2 6 8 22 20 52 36 78 8 14 16 28 24 40 6 6 10 10 14 16s8 10 12 14c4 4 8 8 12 12 4 2 8 4 10 6 6 4 8 8 8 8s-2-2-8-6z" />
<glyph unicode="&#xe93b;" glyph-name="eksploatacja" d="M1004 468h-228v222c0 12-10 22-20 22h-222v228c0 10-10 20-22 20h-492c-10 0-20-10-20-20v-984c0-10 10-20 20-20h984c10 0 20 10 20 20v492c0 12-10 20-20 20zM736 670v-202h-448v202zM40 920h452v-208h-452zM40 670h208v-202h-208zM40 428h452v-204h-452zM248-24h-208v208h208zM736-24h-448v208h448zM984-24h-208v208h66c12 0 20 8 20 20s-8 20-20 20h-308v204h450zM928 224h-12c-12 0-20-8-20-20s8-20 20-20h12c12 0 20 8 20 20s-8 20-20 20z" />
<glyph unicode="&#xe93c;" glyph-name="energooszczednosc" d="M684 784c8-16 16-30 24-46 2-2 2-6 4-10 122-70 206-200 206-350 0-224-182-406-406-406 0 0-48 2-68 34-18 30-10 80 24 144 24 14 48 32 72 52 38 34 74 80 102 130 28 52 48 110 58 170 8 60 8 124-6 186-12 60-38 118-72 164s-76 80-108 94c-16 8-32 10-42 12s-14 2-14 2c0 0-2-4-4-14s-8-22-14-36c-12-28-30-60-50-96-42-70-80-154-94-250-6-48-10-98-4-148 4-48 12-96 26-140 10-38 36-126 48-152 22 34 44 68 62 104 14 24 26 52 36 78 12 24 20 52 28 78s12 50 18 74c2 26 6 48 8 70-2 22-2 42-4 58 0 18-6 34-8 46-6 24-8 38-8 38s4-14 10-38c4-12 12-26 12-44 2-18 6-38 8-60 0-22-2-46-2-72-4-24-6-52-12-78-8-26-14-56-24-82-10-28-18-56-32-82-6-16-14-32-20-48l-2 2c-6-12-10-22-14-34-2-2-4-6-6-10 0 0 0 0 0 0-22-56-24-102-4-136 30-50 98-52 100-52 244 0 442 198 442 442 0 182-112 338-270 406zM280 130c-26 38-72 52-114 38-38 62-60 134-60 210 0 156 90 290 218 358 4 18 10 34 18 50-160-68-272-224-272-408 0-82 22-162 66-230-32-32-40-80-14-118l8-16 28 18 30-48 30 20-30 46 36 24 30-48 30 20-30 46 34 22zM144 66c-6 24 4 48 26 62 20 14 48 12 66-4z" />
<glyph unicode="&#xe93d;" glyph-name="express" d="M190 472c2 0 4-2 6-2 10-4 18-10 20-24l8-50c0-2 2-6 2-6 0-2 2-2 6-2h64l4 2c6 2 8 8 8 18l2 42h-48c-4 0-8 4-8 8v70c0 4 4 6 8 6h48v138h-310v-452h130v244c0 6 4 8 8 8h2l44 2c2 0 4-2 6-2zM278 468h64v50h-40zM324 674v-138h114c4 0 6-4 6-6v-70c0-4-4-8-6-8h-116l-2-42c0-18-8-28-18-32-2-2-4-2-6-2-2-4-4-4-6-4h-60c-10 0-16 4-18 8-4 4-6 10-6 14l-8 52c0 6-4 10-10 10l-2 2h-42v-236h882v452zM888 516c10 0 16 0 18-2l-6-16c-2 2-8 4-16 4s-12-4-12-8c0-6 4-8 12-12 10-6 16-12 16-22 0-18-16-28-34-28-12 0-20 4-24 6l6 14c4-2 12-4 20-4 6 0 14 4 14 8 2 6-4 8-12 14-8 4-16 12-16 22 0 16 14 24 34 24zM522 516h48l-2-16h-32l-4-18h30l-4-14h-28l-4-20h34l-4-16h-52zM530 330c-16 0-26 10-26 24 0 16 12 26 26 26 6 0 12-2 12-2l-2-6c-2 0-4 0-8 0-10 0-18-6-18-18 0-10 6-18 18-18 4 0 6 0 10 2l2-6c-2-2-6-2-14-2zM582 330h-30v50h10v-42h20zM600 330h-8v50h8zM594 450l-8-16h-24l32 42-14 40h18l6-14c2-6 2-8 4-14h2c2 6 4 10 8 14l8 14h22l-32-40 16-42h-18l-6 16c-2 6-4 10-6 14-2-4-4-8-8-14zM636 336c4 0 6 0 8 2l2-6c-2-2-6-2-14-2-16 0-26 10-26 24 0 16 12 26 26 26 6 0 12-2 12-2l2-6c-2 0-6 0-10 0-12 0-18-6-18-18 0-10 8-18 18-18zM690 346h-18v6h18zM698 472c-6-6-16-8-26-8h-8l-6-30h-18l16 82c6 0 14 0 22 0s16 0 22-4c6-4 8-10 8-18 0-10-4-18-10-22zM726 330c-6 0-12 2-14 4l2 6c2-2 6-4 12-4s8 4 8 8c0 4-2 6-8 8-8 4-14 8-14 14 0 8 6 14 18 14 4 0 8-2 12-2l-2-8c0 2-4 2-10 2s-8-2-8-6c0-4 4-6 10-8 8-4 12-8 12-16 2-6-4-12-18-12zM740 466h-6l-6-34h-18l16 82c6 2 14 2 22 2s16-2 22-6c6-4 10-8 10-16 0-14-8-20-20-24 6-2 8-8 8-16s2-20 4-24h-18c-2 2-2 8-2 20-2 14-6 16-12 16zM776 350v-22h-8v22l-16 28h10l6-12c2-4 2-6 4-10 2 4 2 6 4 10l6 12h10zM808 330c-4 0-10 2-14 4l2 6c4-2 8-4 12-4 6 0 8 4 8 8s-2 6-8 8-14 8-14 14c0 8 6 14 18 14 6 0 8-2 12-2l-2-8c0 2-4 2-8 2-6 0-8-2-8-6s4-6 10-8c8-4 12-8 12-16 0-6-6-12-20-12zM782 432l16 84h50l-4-16h-32l-4-18h30l-4-14h-30l-4-20h34l-4-16zM872 372h-16v-44h-8v44h-14v6h38zM908 330h-30v50h28v-8h-20v-14h18v-6h-18v-14h22zM960 330l-2 22v20c-2-6-4-14-6-20l-6-22h-8l-6 22c-2 6-4 14-4 20 0-6-2-14-2-22l-2-20h-8l4 50h12l6-20c2-6 4-12 4-16 2 6 4 12 6 16l6 20h12l2-50zM964 500c-2 2-8 4-16 4s-12-4-12-8c0-6 4-8 12-12 10-6 16-12 16-22 0-18-14-28-34-28-12 0-20 4-24 6l6 14c4-2 12-4 18-4 8 0 14 4 14 8 0 6-4 8-12 12s-16 12-16 22c0 16 14 24 32 24 10 0 16 0 20-2zM352 518v-50h76v50zM678 504c-4 0-6 0-6-2l-4-24h6c12 0 18 6 18 14-2 10-6 12-14 12zM760 494c0 6-6 10-14 10-4 0-6 0-6-2l-4-22h8c10 0 16 6 16 14z" />
<glyph unicode="&#xe93e;" glyph-name="facebook-sq" d="M896 960h-768c-70 0-128-58-128-128v-768c0-70 58-128 128-128h384v352h-128v160h128v128c0 106 86 192 192 192h128v-160h-64c-36 0-64 4-64-32v-128h160l-64-160h-96v-352h192c70 0 128 58 128 128v768c0 70-58 128-128 128z" />
<glyph unicode="&#xe93f;" glyph-name="facebook" d="M508 960c-280 0-508-228-508-508s228-508 508-508c280 0 508 228 508 508s-228 508-508 508zM634 434h-82c0-132 0-296 0-296h-122c0 0 0 162 0 296h-58v104h58v68c0 48 22 122 124 122h90v-100c0 0-56 0-66 0s-26-6-26-28v-62h94z" />
<glyph unicode="&#xe940;" glyph-name="favorite" d="M512-24l-72 72c-266 236-440 394-440 590 0 158 122 282 282 282 86 0 174-42 230-108 56 66 144 108 230 108 160 0 282-124 282-282 0-196-174-354-440-590z" />
<glyph unicode="&#xe941;" glyph-name="fullscreen" d="M1024 128v768h-1024v-768h448v-64h-192v-64h512v64h-192v64zM64 192v640h896v-640zM896 512v256h-256zM128 256h256l-256 256z" />
<glyph unicode="&#xe942;" glyph-name="gabinety-lekarskie" d="M612 218h64v-30h-64zM420 324c-2 6-8 8-12 8-8 0-12-4-14-10l-50-168-56 250c-2 6-6 10-14 10-6 0-12-4-14-10l-50-194-44 114c-2 4-8 8-12 8-8 0-12-4-14-10l-40-104h-74c8-10 16-20 24-30h60c6 0 12 4 14 10l30 78 46-118c2-6 8-10 14-10 6 2 12 6 14 12l46 178 54-246c2-8 8-12 14-12h2c6 0 10 4 12 12l54 182 30-76c2-6 6-10 12-10h32v30h-22zM548 312c94 0 234 148 234 350 0 70-30 114-82 122 0 0 0 0 0 0-6 28-32 50-62 50-36 0-66-28-66-64s30-66 66-66c30 0 56 20 62 48 0 0 0 0 0 0 46-10 52-64 52-90 0-186-132-318-204-318s-204 132-204 318c0 26 6 80 52 90 0 0 0 0 0 2 6-30 32-50 62-50 36 0 66 30 66 66s-30 66-66 66c-30 0-56-22-64-52 0 0 0 0 0 0-50-6-82-52-82-120 0-204 142-352 236-352zM638 736c-18 0-34 14-34 34 0 18 14 32 34 32 18 0 34-14 34-32 0-20-16-34-34-34zM458 802c18 0 34-14 34-34 0-18-14-34-34-34-18 0-34 16-34 34 0 20 16 34 34 34zM942 270c0 0 0 0 0 0v12c0 26-14 48-36 64-18 12-44 20-72 20-54 0-110-28-110-82v-122c0-22-8-40-22-52-12-10-32-16-52-16-42 0-86 26-86 68v152c-6-2-12-2-16-2-6 0-10 0-16 2v-152c0-62 60-100 118-100 28 0 54 8 72 24 22 18 34 44 34 76v122c0 32 40 50 78 50 22 0 40-6 54-14 14-10 22-22 22-38v-12c0 0 0 0 0 0-28-6-48-26-54-52 0 0 0 0 0 0h-52v-30h50c0 4-2 8-2 10 2-40 34-72 74-72s72 34 72 74c0 34-24 64-56 70zM926 272c0 0 0 0 0 0s0 0 0 0 0 0 0 0 0 0 0 0zM926 158c-22 0-42 20-42 42s20 40 42 40c22 0 40-18 40-40s-18-42-40-42z" />
<glyph unicode="&#xe943;" glyph-name="home-key" d="M1022 32l-204 204 20 72-90 90 52 52c52 52 52 138 0 190l-216 218c0 0 24 24 54 54s4 52-60 48l-434-24c-62-4-116-58-120-120l-24-434c-4-64 18-90 48-60s54 54 54 54l218-216c52-52 138-52 190 0l52 52 62-64 74 20 36-34 32 10 30-28-16-28 18-20 34 12 28-30-16-28 84-84c8-8 26-16 38-14l44 2c14 0 24 10 24 24l2 44c2 12-6 30-14 38zM456 726l92-94-92-92-92 92zM234 504l94 92 92-92-92-92zM456 284l-92 92 92 92 92-92zM584 412l-92 92 92 92 92-92z" />
<glyph unicode="&#xe944;" glyph-name="home" d="M530 928l486-454c10-10 10-24 2-34-6-6-12-8-18-8v0h-124v-446c0-14-12-24-24-24h-194c-14 0-26 10-26 24v342h-240v-342c0-14-12-24-26-24h-194c-12 0-24 10-24 24v446h-124c-14 0-24 10-24 24 0 8 4 14 10 20l242 226 244 226c8 8 24 8 34 0zM738 664l-226 212-226-212-198-182h84c14 0 26-12 26-26v-444h144v342c0 12 12 24 24 24h292c12 0 24-12 24-24v-342h144v444c0 14 12 26 26 26h84z" />
<glyph unicode="&#xe945;" glyph-name="hotele" d="M538 416l26 12 26-12-4 28 20 20-28 4-14 26-12-26-30-4 22-20zM644 416l26 12 26-12-6 28 22 20-30 4-12 26-14-26-28-4 20-20zM328 416l26 12 26-12-4 28 20 20-28 4-14 26-12-26-30-4 22-20zM434 416l26 12 26-12-6 28 22 20-30 4-12 26-14-26-28-4 20-20zM968 680h-124l-262 140c2 6 2 12 2 20 0 38-32 70-72 70s-72-32-72-70c0-8 2-14 4-20l-264-140h-124c-16 0-30-14-30-32v-632c0-16 14-30 30-30h910c18 0 32 14 32 30v632c0 18-14 32-30 32zM458 792c14-14 34-24 54-24 22 0 40 8 54 24l210-114h-528zM936 48h-848v568h848zM188 204c2 0 2 0 2 2v70c0 2 0 2 2 2h72c2 0 2 0 2-2v-70c0-2 0-2 2-2h18c0 0 2 0 2 2v162c0 2-2 4-2 4h-18c-2 0-2-2-2-4v-68c0-2 0-2-2-2h-72c-2 0-2 0-2 2v68c0 2-2 4-2 4h-18c-2 0-2-2-2-4v-162c0-2 0-2 2-2zM716 204c0 0 2 0 2 2v16c0 0-2 2-2 2h-80c-2 0-2 0-2 2v50c0 2 0 2 2 2h68c2 0 2 2 2 2v16c0 2 0 2-2 2h-68c-2 0-2 2-2 2v50c0 0 0 2 2 2h80c0 0 2 0 2 2v16c0 0-2 2-2 2h-102c0 0-2-2-2-2v-164c0-2 2-2 2-2zM468 372c-2 0-2-2-2-4v-14c0-2 0-4 2-4h46c0 0 2 0 2 0v-144c0-2 0-2 2-2h16c2 0 4 0 4 2v144c0 0 0 0 0 0h46c2 0 2 2 2 4v14c0 2 0 4-2 4zM852 204c2 0 4 0 4 2v16c0 0-2 2-4 2h-78c-2 0-2 0-2 2v142c0 2 0 4-2 4h-18c0 0-2-2-2-4v-162c0-2 2-2 2-2zM384 374c-28 0-48-14-56-40-4-10-6-20-6-48 0-26 2-38 6-46 8-28 28-40 56-40s48 12 56 40c4 8 6 20 6 46 0 28-2 38-6 48-8 26-28 40-56 40zM420 246c-6-16-18-26-36-26s-30 10-36 26c-2 6-4 16-4 42 0 24 2 34 4 40 6 16 18 26 36 26s30-8 36-26c2-6 2-16 2-40s0-36-2-42z" />
<glyph unicode="&#xe946;" glyph-name="info" d="M636 960c70 0 104-46 104-100 0-68-60-128-138-128-64 0-102 38-100 102 0 52 44 126 134 126zM426-64c-54 0-94 34-56 180l62 262c10 40 12 58 0 58-16 0-86-30-128-58l-28 46c132 112 284 176 348 176 54 0 64-64 36-164l-70-274c-14-48-8-66 6-66 16 0 68 20 120 62l32-42c-128-130-268-180-322-180z" />
<glyph unicode="&#xe947;" glyph-name="instagram-sq" d="M742 960h-460c-156 0-282-126-282-282v-460c0-156 126-282 282-282h460c156 0 282 126 282 282v460c0 156-126 282-282 282zM934 218c0-106-86-192-192-192h-460c-106 0-192 86-192 192v460c0 106 86 192 192 192h460c106 0 192-86 192-192v-460zM512 712c-146 0-264-118-264-264s118-264 264-264c146 0 264 118 264 264s-118 264-264 264zM512 274c-96 0-172 78-172 174s76 172 172 172c96 0 174-76 174-172s-78-174-174-174zM788 788c-18 0-36-6-48-18-12-14-20-30-20-48s8-34 20-46c12-14 30-20 48-20 16 0 34 6 46 20 12 12 20 28 20 46s-8 34-20 48c-12 12-30 18-46 18z" />
<glyph unicode="&#xe948;" glyph-name="jakosc" d="M906 598l-78 80 16 112c2 16-10 32-26 34l-110 20-54 100c-8 14-26 20-42 12l-100-48-100 48c-16 8-34 2-42-12l-54-100-110-20c-16-2-28-18-26-34l16-112-78-80c-12-12-12-32 0-44l78-80-16-112c-2-16 10-32 26-36l88-14v-344c0-12 6-22 16-28 6-2 10-4 16-4s10 2 14 4l172 84 172-84c8-6 20-6 30 0s16 16 16 28v344l88 14c16 4 28 20 26 36l-16 112 78 80c12 12 12 32 0 44zM526 88c-8 6-20 6-28 0l-140-68v210l12-22c8-14 26-20 42-14l100 50 100-50c6-2 10-2 14-2 12 0 22 6 28 16l12 22v-210zM772 506c-8-6-10-16-10-26l14-96-96-16c-8-2-18-8-22-18l-46-84-86 42c-4 2-10 2-14 2s-10 0-14-2l-86-42-46 84c-4 10-14 16-22 18l-96 16 14 96c0 10-2 20-10 26l-66 70 66 70c8 6 10 16 10 26l-14 96 96 16c8 2 18 8 22 16l46 86 86-42c8-4 20-4 28 0l86 42 46-86c4-8 14-14 22-16l96-16-14-96c0-10 2-20 10-26l66-70zM512 792c-120 0-218-96-218-216s98-218 218-218c120 0 218 98 218 218s-98 216-218 216zM512 422c-84 0-154 70-154 154s70 154 154 154c84 0 154-70 154-154s-70-154-154-154zM576 656l-94-94-34 36c-14 12-34 12-46 0s-12-32 0-44l58-58c6-8 14-10 22-10 10 0 18 2 24 10l116 116c12 12 12 32 0 44s-32 12-46 0z" />
<glyph unicode="&#xe949;" glyph-name="krono" d="M924 140c64 86 102 192 102 308 0 282-230 512-514 512-282 0-512-230-512-512 0-284 230-514 512-514 168 0 318 80 412 206h-234l-178 228v-228h-204v122l382 494h234l-242-308zM512 610l-204-266h-206v206h206v204h206v-144z" />
<glyph unicode="&#xe94a;" glyph-name="kuchnie" d="M582 846c-90 0-160-86-160-196 0-98 36-124 62-144 20-14 32-24 32-56v-326c0-44 26-74 66-74 38 0 64 30 64 74v326c0 32 12 42 32 56 28 20 62 48 62 144 0 112-68 196-158 196zM656 532c-20-16-44-34-44-82v-326c0-20-8-40-32-40-22 0-32 20-32 40v326c0 48-22 66-44 82-24 18-50 38-50 118 0 78 44 162 126 162s126-84 126-162c0-80-24-100-50-118zM326 846c-10 0-16-8-16-18v-232c0-38-18-48-40-60-24-14-54-32-54-86v-326c0-20-8-40-32-40s-32 20-32 40v326c0 54-30 72-54 86-24 12-40 22-40 60v232c0 10-6 18-16 18s-16-8-16-18v-232c0-58 30-76 56-90 22-12 36-20 36-56v-326c0-44 28-74 66-74s64 30 64 74v326c0 36 16 44 38 56 24 14 56 32 56 90v232c0 10-8 18-16 18zM136 586c8 0 16 6 16 16v226c0 10-8 18-16 18-10 0-18-8-18-18v-226c0-10 8-16 18-16zM232 586c10 0 16 6 16 16v226c0 10-6 18-16 18-8 0-16-8-16-18v-226c0-10 8-16 16-16zM982 846c-84 0-160-110-160-196v-246c0-4 2-8 6-12l54-44c2 0 2-2 2-2 0-2 2-2 2-4v-232c0-34 20-60 50-60h12c30 0 50 26 50 60v718c0 10-6 18-16 18zM966 110c0-4-2-26-18-26h-12c-12 0-18 14-18 26v232c0 6-2 12-4 18s-6 10-10 14l-48 38v238c0 66 52 148 110 160z" />
<glyph unicode="&#xe94b;" glyph-name="laboratiora" d="M88 532c34 0 62 28 62 62s-28 62-62 62c-34 0-62-28-62-62s28-62 62-62zM88 626c16 0 30-14 30-32 0-16-14-30-30-30-18 0-32 14-32 30 0 18 14 32 32 32zM158 784c40 0 72 32 72 72s-32 72-72 72c-40 0-72-32-72-72s32-72 72-72zM158 898c22 0 40-18 40-42 0-22-18-40-40-40s-42 18-42 40c0 24 20 42 42 42zM408 816c-36 0-64-26-68-58h32c4 16 18 28 36 28 20 0 34-16 34-36 0-16-8-28-22-34v-32c30 6 54 32 54 66 0 36-30 66-66 66zM374 154c0-14 12-26 26-26 16 0 28 12 28 26s-12 26-28 26c-14 0-26-12-26-26zM566 648c-2 4-4 10-4 14 0 22 18 38 40 38 20 0 38-16 38-38 0-4-2-10-4-14h32c2 4 2 10 2 14 0 38-32 70-68 70-38 0-70-32-70-70 0-4 0-10 2-14zM134 124c0-14 12-26 26-26s26 12 26 26c0 14-12 26-26 26s-26-12-26-26zM270 74c0-14 12-26 26-26s26 12 26 26c0 14-12 26-26 26s-26-12-26-26zM428 48c-38-32-88-50-140-50-126 0-228 102-230 228 18-2 30-6 42-12 16-8 36-18 72-18 34 0 54 10 70 18s28 14 56 14c20 0 30-6 42-14s28-18 58-18c12 0 22 2 30 4v34c-8-4-16-6-30-6-22 0-30 4-42 12s-28 18-56 18c-36 0-56-8-72-16s-28-14-56-14c-28 0-42 6-58 14-12 6-28 12-52 16 14 90 84 168 178 192 6 0 12 6 12 14v172c0 8-8 14-16 14h-10v38h124v-38h-54c-8 0-14-6-14-14 0-10 6-16 14-16h28v-156c0-8 6-14 12-14 36-10 66-26 94-48v40c-24 14-48 26-74 34v144h10c10 0 16 8 16 16v66c0 10-8 16-16 16h-158c-8 0-14-6-14-16v-66c0-10 6-16 14-16h12v-144c-112-34-192-136-192-248 0-144 116-260 260-260 52 0 102 16 142 42 0 10-2 18-2 28zM704 610h-204c-8 0-14-8-14-16v-84c0-8 6-14 14-14h10v-404c0-68 42-124 92-124s92 56 92 124v404h10c8 0 16 6 16 14v84c0 8-8 16-16 16zM688 526h-78c-10 0-16-6-16-16 0-8 8-14 16-14h54v-404c0-50-28-92-62-92-32 0-60 42-60 92v418c0 10-8 16-16 16h-10v52h172zM586 156h34v32h-34c-8 0-16-8-16-16s8-16 16-16zM586 264h34v32h-34c-8 0-16-8-16-16s8-16 16-16zM586 374h34v30h-34c-8 0-16-8-16-16s8-14 16-14zM984 610h-204c-8 0-16-8-16-16v-84c0-8 8-14 16-14h8v-404c0-68 42-124 94-124 50 0 92 56 92 124v404h10c8 0 14 6 14 14v84c0 8-6 16-14 16zM968 526h-80c-8 0-16-6-16-16 0-8 8-14 16-14h54v-404c0-50-28-92-60-92-34 0-62 42-62 92v418c0 10-6 16-14 16h-10v52h172z" />
<glyph unicode="&#xe94c;" glyph-name="lock" d="M494 824c88 10 164-46 186-124 8-26 38-48 66-48 44 0 76 44 64 88-38 130-160 224-304 220-168-4-298-146-298-314v-100h-8c-46 0-82-36-82-82v-446c0-46 36-82 82-82h624c46 0 82 36 82 82v446c0 46-36 82-82 82h-482v102c0 88 64 166 152 176zM572 118c2-8-6-18-14-18h-92c-10 0-18 10-16 18l18 86c-16 16-26 38-22 64 4 28 28 52 58 56 40 4 76-28 76-68 0-20-10-40-26-52z" />
<glyph unicode="&#xe94d;" glyph-name="logout" d="M866 494h-540c-26 0-46-20-46-46s20-46 46-46h540l-62-60c-18-20-18-48 0-66 20-18 48-18 66 0l140 140c2 0 2 2 4 2 0 0 0 2 0 2s2 2 2 2c0 0 0 0 0 2 2 0 2 2 2 2s2 0 2 0c0 2 0 4 0 4s0 0 0 0c2 2 2 4 2 4s0 0 0 0c0 2 0 4 2 4 0 2 0 2 0 2 0 2 0 2 0 4s0 2 0 4 0 4 0 4 0 4 0 4c0 0 0 2 0 2-2 0-2 2-2 4 0 0 0 0 0 0 0 2 0 2-2 4 0 0 0 0 0 0 0 2 0 2 0 4 0 0 0 0 0 0-2 0-2 2-2 4-2 0-2 0-2 0s0 2-2 2c0 2 0 2 0 2-2 2-2 2-4 4l-138 138c-10 10-22 14-34 14s-24-4-32-14c-20-18-20-46 0-64zM380 68c128 0 246 62 316 168 16 22 10 50-12 64s-50 8-64-12c-54-80-144-128-240-128-158 0-286 130-286 288s128 288 286 288c96 0 186-48 240-128 14-20 42-26 64-12s26 44 12 64c-70 106-188 168-316 168-210 0-380-170-380-380s170-380 380-380z" />
<glyph unicode="&#xe94e;" glyph-name="mail" d="M944 28h-852c-22 0-42 8-60 24l294 298c6-6 14-10 20-16 22-16 40-28 54-38 14-8 32-18 54-28s44-14 64-14v0c20 0 42 4 64 14 24 10 42 20 56 28 12 10 30 22 52 38 8 6 14 10 22 16l292-298c-16-16-36-24-60-24zM0 136v452c16-18 36-36 58-50 82-58 150-104 200-140zM778 398c56 38 122 86 200 140 22 14 42 32 58 50v-452zM1008 672c-18-28-42-52-70-72-94-66-164-116-212-150-26-18-46-32-60-40 0-2-4-4-8-6-4-4-10-8-16-12-12-10-22-18-30-22-10-6-20-12-30-20-12-6-24-12-34-16s-20-4-30-4v0c-10 0-18 0-30 4-10 4-20 10-32 16-12 8-22 14-30 20-8 4-20 12-32 22-6 4-12 8-16 12-4 2-6 4-8 6-16 10-36 24-58 40-28 20-58 42-94 66-66 46-106 74-118 84-24 16-46 40-68 68s-32 56-32 80c0 30 8 56 24 76s38 30 68 30h852c26 0 46-8 66-26 18-20 26-42 26-68 0-30-8-60-28-88z" />
</font>
</defs>
</svg>
