<?xml version="1.0" encoding="utf-8"?>
<!-- Generator: Adobe Illustrator 24.0.3, SVG Export Plug-In . SVG Version: 6.00 Build 0)  -->
<svg version="1.1" id="Layer_1" xmlns="http://www.w3.org/2000/svg" xmlns:xlink="http://www.w3.org/1999/xlink" x="0px" y="0px"
	 width="16px" height="16px" viewBox="0 0 16 16" style="enable-background:new 0 0 16 16;" xml:space="preserve">
<path d="M8,16c-4.4,0-8-3.6-8-8s3.6-8,8-8s8,3.6,8,8l0,0C16,12.4,12.4,16,8,16z M11.7,6.6H8V4.3c0-0.2-0.2-0.4-0.4-0.4
	c-0.1,0-0.2,0-0.3,0.1L3.6,7.7c-0.2,0.1-0.2,0.4,0,0.5l0,0L7.3,12c0.2,0.1,0.4,0.1,0.6,0C8,11.9,8,11.8,8,11.7V9.4h3.7
	c0.3,0,0.4-0.2,0.4-0.4V7C12.1,6.8,12,6.6,11.7,6.6z"/>
</svg>
