<?xml version="1.0" encoding="utf-8"?>
<!-- Generator: Adobe Illustrator 24.0.3, SVG Export Plug-In . SVG Version: 6.00 Build 0)  -->
<svg version="1.1" id="Layer_1" xmlns="http://www.w3.org/2000/svg" xmlns:xlink="http://www.w3.org/1999/xlink" x="0px" y="0px"
	 width="18px" height="24px" viewBox="0 0 18 24" style="enable-background:new 0 0 18 24;" xml:space="preserve">
<path d="M8.5,12c-0.2-0.7-0.2-1.5-0.1-2.2C8.8,9.8,8.8,11.5,8.5,12z M8.4,14.2c-0.4,1-0.8,2-1.3,2.9c0.9-0.4,1.9-0.8,2.9-1
	C9.4,15.6,8.8,15,8.4,14.2L8.4,14.2z M4,20.1c0,0,0.6-0.3,1.6-1.9C5,18.7,4.5,19.3,4,20.1L4,20.1z M11.6,7.5H18v15.4
	c0,0.6-0.5,1.1-1.1,1.1c0,0,0,0,0,0H1.1C0.5,24,0,23.5,0,22.9c0,0,0,0,0,0V1.1C0,0.5,0.5,0,1.1,0c0,0,0,0,0,0h9.4v6.4
	C10.5,7,11,7.5,11.6,7.5z M11.2,15.6c-0.9-0.6-1.7-1.5-2-2.5c0.3-1,0.4-2,0.3-3C9.5,9.4,8.9,8.9,8.2,9C7.8,9.1,7.5,9.3,7.3,9.7
	c-0.2,1.2,0,2.5,0.4,3.6c-0.6,1.4-1.2,2.7-1.9,4c0,0,0,0,0,0c-1.3,0.7-3.5,2.1-2.6,3.2c0.3,0.3,0.6,0.5,1,0.5c0.8,0,1.7-0.8,2.9-2.9
	c1.2-0.5,2.4-0.8,3.7-1.1c0.9,0.5,1.9,0.8,3,0.9c0.7,0,1.2-0.5,1.2-1.2c0-0.3-0.1-0.6-0.3-0.9C14,15.3,12.2,15.4,11.2,15.6
	L11.2,15.6z M17.7,4.9l-4.6-4.6C12.9,0.1,12.6,0,12.3,0H12v6h6V5.7C18,5.4,17.9,5.1,17.7,4.9z M14.2,16.9c0.2-0.1-0.1-0.6-2-0.4
	C13.9,17.2,14.2,16.9,14.2,16.9z"/>
</svg>
