<?xml version="1.0" encoding="utf-8"?>
<!-- Generator: Adobe Illustrator 24.0.3, SVG Export Plug-In . SVG Version: 6.00 Build 0)  -->
<svg version="1.1" id="Layer_1" xmlns="http://www.w3.org/2000/svg" xmlns:xlink="http://www.w3.org/1999/xlink" x="0px" y="0px"
	 width="32px" height="31.3px" viewBox="0 0 32 31.3" style="enable-background:new 0 0 32 31.3;" xml:space="preserve">
<path d="M31.4,4.9c1.7,4.1-0.2,8.7-4.3,10.4c-2.3,1-4.9,0.8-7-0.4l-2.2,2.4l1.6,1.6l0.9-0.9c0.5-0.5,1.3-0.5,1.7,0c0,0,0,0,0,0
	l7.6,7.7c0.5,0.5,0.5,1.3,0,1.7c0,0,0,0,0,0l-3.5,3.5c-0.5,0.5-1.3,0.5-1.7,0c0,0,0,0,0,0l-7.6-7.7c-0.5-0.5-0.5-1.3,0-1.7
	c0,0,0,0,0,0l0.9-0.9l-1.5-1.5L5.7,30.6c-1,1-2.5,1-3.5,0c0,0,0,0,0,0l-0.9-0.9c-1-1-1-2.5,0-3.5c0,0,0,0,0,0l12-10.1l-8-8H2.9
	L0,3.5l2.3-2.3l4.8,2.9l0,2.5l8.1,8.1l2.3-2C15,9.2,15.7,4.2,19.3,1.6c2.2-1.7,5.2-2,7.8-1l-5.2,5.1l4.3,4.3L31.4,4.9L31.4,4.9z
	 M4.3,27.5C3.8,27,3,27,2.5,27.5s-0.5,1.3,0,1.7c0.5,0.5,1.3,0.5,1.7,0C4.8,28.7,4.8,28,4.3,27.5C4.3,27.5,4.3,27.5,4.3,27.5z"/>
</svg>
