<?xml version="1.0" encoding="utf-8"?>
<!-- Generator: Adobe Illustrator 24.0.3, SVG Export Plug-In . SVG Version: 6.00 Build 0)  -->
<svg version="1.1" id="Layer_1" xmlns="http://www.w3.org/2000/svg" xmlns:xlink="http://www.w3.org/1999/xlink" x="0px" y="0px"
	 width="24px" height="19.6px" viewBox="0 0 24 19.6" style="enable-background:new 0 0 24 19.6;" xml:space="preserve">
<path d="M21.8,0H2.2C1,0,0,1,0,2.2c0,0,0,0,0,0v13.1c0,1.2,1,2.2,2.2,2.2c0,0,0,0,0,0h5.5v2.2h8.7v-2.2h5.5c1.2,0,2.2-1,2.2-2.2
	l0-13.1C24,1,23,0,21.8,0C21.8,0,21.8,0,21.8,0z M21.8,15.3H2.2V2.2h19.6V15.3z M16.4,8.7l-7.6,4.4V4.4L16.4,8.7z"/>
</svg>
