<?xml version="1.0" encoding="utf-8"?>
<!-- Generator: Adobe Illustrator 24.0.3, SVG Export Plug-In . SVG Version: 6.00 Build 0)  -->
<svg version="1.1" id="Layer_1" xmlns="http://www.w3.org/2000/svg" xmlns:xlink="http://www.w3.org/1999/xlink" x="0px" y="0px"
	 width="36px" height="27px" viewBox="0 0 36 27" style="enable-background:new 0 0 36 27;" xml:space="preserve">
<path d="M18.1,0C6.8,0,0,13.5,0,13.5S6.8,27,18.1,27C29.2,27,36,13.5,36,13.5S29.2,0,18.1,0z M18,4.5c5,0,9,4,9,9s-4,9-9,9s-9-4-9-9
	S13,4.5,18,4.5z M18,9c-2.5,0-4.5,2-4.5,4.5s2,4.5,4.5,4.5s4.5-2,4.5-4.5c0-0.4-0.1-0.9-0.3-1.3c-0.5,1.1-1.9,1.6-3,1
	c-1.1-0.5-1.6-1.9-1-3c0.2-0.5,0.6-0.8,1-1C18.9,9.1,18.4,9,18,9z"/>
</svg>
