<?xml version="1.0" encoding="utf-8"?>
<!-- Generator: Adobe Illustrator 24.0.3, SVG Export Plug-In . SVG Version: 6.00 Build 0)  -->
<svg version="1.1" id="Layer_1" xmlns="http://www.w3.org/2000/svg" xmlns:xlink="http://www.w3.org/1999/xlink" x="0px" y="0px"
	 width="22px" height="32px" viewBox="0 0 22 32" style="enable-background:new 0 0 22 32;" xml:space="preserve">
<path d="M11,32L11,32c-2-2.3-3.8-4.7-5.5-7.2c-1.4-2.1-2.7-4.4-3.8-6.8c-1-2.1-1.6-4.4-1.7-6.8C0,5.1,4.9,0.1,11,0
	c6.1,0.1,11,5.1,11,11.2c-0.1,2.4-0.7,4.7-1.7,6.8c-1.1,2.4-2.3,4.6-3.8,6.8C14.8,27.3,13,29.7,11,32z M11,12.8L11,12.8l3.4,4.4h4.5
	l-4.6-5.9l4.6-5.9h-4.5l-7.3,9.5v2.4H11V12.8L11,12.8z M3.1,9.3v4h3.9L11,8.1V5.3H7.1v4H3.1z"/>
</svg>
