<?xml version="1.0" encoding="utf-8"?>
<!-- Generator: Adobe Illustrator 24.0.3, SVG Export Plug-In . SVG Version: 6.00 Build 0)  -->
<svg version="1.1" id="Layer_1" xmlns="http://www.w3.org/2000/svg" xmlns:xlink="http://www.w3.org/1999/xlink" x="0px" y="0px"
	 width="28.5px" height="30.8px" viewBox="0 0 28.5 30.8" style="enable-background:new 0 0 28.5 30.8;" xml:space="preserve">
<path d="M14.1,14c-0.8,6.3-4.8,7.5-4.8,11.9c0.1,2.8,2.5,4.9,5.2,4.8c2.6-0.1,4.7-2.2,4.8-4.8c0-4.4-4-5.5-4.8-11.9
	c0-0.1-0.1-0.2-0.2-0.1C14.1,13.9,14.1,14,14.1,14L14.1,14z M4.8,0.1C4,6.5,0,7.6,0,12c0,2.8,2.3,5,5.1,4.9c2.7,0,4.9-2.2,4.9-4.9
	c0-4.4-4-5.5-4.8-11.9C5.2,0,5,0,4.9,0C4.9,0,4.8,0.1,4.8,0.1z M23.3,0.1c-0.8,6.3-4.8,7.5-4.8,11.9c0,2.8,2.3,5,5.1,4.9
	c2.7,0,4.9-2.2,4.9-4.9c0-4.4-4-5.5-4.8-11.9C23.7,0,23.6,0,23.5,0C23.4,0,23.3,0.1,23.3,0.1z"/>
</svg>
