<?xml version="1.0" encoding="utf-8"?>
<!-- Generator: Adobe Illustrator 24.0.3, SVG Export Plug-In . SVG Version: 6.00 Build 0)  -->
<svg version="1.1" id="Layer_1" xmlns="http://www.w3.org/2000/svg" xmlns:xlink="http://www.w3.org/1999/xlink" x="0px" y="0px"
	 width="16px" height="16px" viewBox="0 0 16 16" style="enable-background:new 0 0 16 16;" xml:space="preserve">
<path d="M8,0c4.4,0,8,3.6,8,8s-3.6,8-8,8s-8-3.6-8-8l0,0C0,3.6,3.6,0,8,0z M4.3,9.4H8v2.3c0,0.2,0.2,0.4,0.4,0.4
	c0.1,0,0.2,0,0.3-0.1l3.7-3.7c0.2-0.1,0.2-0.4,0-0.5c0,0,0,0,0,0L8.7,4C8.5,3.9,8.3,3.9,8.1,4C8,4.1,8,4.2,8,4.3v2.3H4.3
	C4,6.6,3.9,6.8,3.9,7V9C3.9,9.2,4,9.4,4.3,9.4z"/>
</svg>
