<?xml version="1.0" encoding="utf-8"?>
<!-- Generator: Adobe Illustrator 24.0.3, SVG Export Plug-In . SVG Version: 6.00 Build 0)  -->
<svg version="1.1" id="Layer_1" xmlns="http://www.w3.org/2000/svg" xmlns:xlink="http://www.w3.org/1999/xlink" x="0px" y="0px"
	 width="27px" height="33px" viewBox="0 0 27 33" style="enable-background:new 0 0 27 33;" xml:space="preserve">
<g transform="translate(1.5 1.5)">
	<path d="M21,31.5H3c-2.5,0-4.5-2-4.5-4.5V3c0-2.5,2-4.5,4.5-4.5h12c0.4,0,0.8,0.2,1.1,0.4l9,9c0.3,0.3,0.4,0.7,0.4,1.1v18
		C25.5,29.5,23.5,31.5,21,31.5z M3,1.5C2.2,1.5,1.5,2.2,1.5,3v24c0,0.8,0.7,1.5,1.5,1.5h18c0.8,0,1.5-0.7,1.5-1.5V9.6l-8.1-8.1H3z"
		/>
	<path d="M24,10.5h-9c-0.8,0-1.5-0.7-1.5-1.5V0c0-0.8,0.7-1.5,1.5-1.5s1.5,0.7,1.5,1.5v7.5H24c0.8,0,1.5,0.7,1.5,1.5
		S24.8,10.5,24,10.5z"/>
	<path d="M18,18H6c-0.8,0-1.5-0.7-1.5-1.5C4.5,15.7,5.2,15,6,15h12c0.8,0,1.5,0.7,1.5,1.5C19.5,17.3,18.8,18,18,18z"/>
	<path d="M18,24H6c-0.8,0-1.5-0.7-1.5-1.5S5.2,21,6,21h12c0.8,0,1.5,0.7,1.5,1.5S18.8,24,18,24z"/>
	<path d="M9,12H6c-0.8,0-1.5-0.7-1.5-1.5S5.2,9,6,9h3c0.8,0,1.5,0.7,1.5,1.5S9.8,12,9,12z"/>
</g>
</svg>
