<?xml version="1.0" encoding="utf-8"?>
<!-- Generator: Adobe Illustrator 24.0.3, SVG Export Plug-In . SVG Version: 6.00 Build 0)  -->
<svg version="1.1" id="Layer_1" xmlns="http://www.w3.org/2000/svg" xmlns:xlink="http://www.w3.org/1999/xlink" x="0px" y="0px"
	 width="26px" height="28.7px" viewBox="0 0 26 28.7" style="enable-background:new 0 0 26 28.7;" xml:space="preserve">
<path d="M21,18.7c-1.5,0-2.8,0.7-3.7,1.7l-7.6-4.4c0.2-0.5,0.3-1,0.3-1.6c0-0.6-0.1-1.1-0.3-1.6l7.6-4.4c0.9,1,2.2,1.7,3.7,1.7
	c2.8,0,5-2.2,5-5s-2.2-5-5-5s-5,2.2-5,5c0,0.6,0.1,1.1,0.3,1.6L8.7,11C7.8,10,6.5,9.3,5,9.3c-2.8,0-5,2.2-5,5s2.2,5,5,5
	c1.5,0,2.8-0.7,3.7-1.7l7.6,4.4c-0.2,0.5-0.3,1-0.3,1.6c0,2.8,2.2,5,5,5s5-2.2,5-5S23.8,18.7,21,18.7z M21,2c1.7,0,3,1.3,3,3
	s-1.3,3-3,3s-3-1.3-3-3S19.3,2,21,2z M5,17.3c-1.7,0-3-1.3-3-3s1.3-3,3-3s3,1.3,3,3S6.7,17.3,5,17.3z M21,26.7c-1.7,0-3-1.3-3-3
	c0-0.5,0.2-1.1,0.4-1.5c0,0,0,0,0,0s0,0,0,0c0.5-0.9,1.5-1.5,2.6-1.5c1.7,0,3,1.3,3,3S22.7,26.7,21,26.7z"/>
</svg>
