<?xml version="1.0" encoding="utf-8"?>
<!-- Generator: Adobe Illustrator 24.0.3, SVG Export Plug-In . SVG Version: 6.00 Build 0)  -->
<svg version="1.1" id="Layer_1" xmlns="http://www.w3.org/2000/svg" xmlns:xlink="http://www.w3.org/1999/xlink" x="0px" y="0px"
	 width="40px" height="32px" viewBox="0 0 40 32" style="enable-background:new 0 0 40 32;" xml:space="preserve">
<path d="M38.9,16.9l-7.2-2.8c-0.4-0.2-0.9-0.2-1.4,0l-7.2,2.8c-0.7,0.2-1.1,0.9-1.1,1.6c0,7,4.3,11.8,8.3,13.4
	c0.4,0.2,0.9,0.2,1.4,0c5.2-2.4,8.5-7.6,8.3-13.4C40,17.8,39.5,17.2,38.9,16.9z M31,28.9V17.1l6,2.3C36.8,23.4,34.5,27,31,28.9z
	 M14,16c4.4,0,8-3.6,8-8s-3.6-8-8-8S6,3.6,6,8S9.6,16,14,16z M20,18.5c0-0.2,0-0.3,0.1-0.5c-0.2,0-0.3,0-0.5,0h-1
	c-2.9,1.3-6.2,1.3-9.1,0h-1C3.8,18,0,21.8,0,26.4c0,0,0,0,0,0V29c0,1.7,1.3,3,3,3l0,0h22c0.4,0,0.8-0.1,1.2-0.2
	C22.2,28.5,19.9,23.6,20,18.5z"/>
</svg>
